STARTFONT 2.1
FONT -mplus-gothic-bold-R-normal--12-120-75-75-C-120-jisx0208.1990-0
SIZE 13 75 75
FONTBOUNDINGBOX 12 13 0 -2
STARTPROPERTIES 23
FONTNAME_REGISTRY ""
FOUNDRY "mplus"
FAMILY_NAME "gothic"
WEIGHT_NAME "bold"
SLANT "R"
SETWIDTH_NAME "normal"
ADD_STYLE_NAME ""
PIXEL_SIZE 12
POINT_SIZE 120
RESOLUTION_X 75
RESOLUTION_Y 75
SPACING "C"
AVERAGE_WIDTH 120
CHARSET_REGISTRY "jisx0208.1990"
CHARSET_ENCODING "0"
COPYRIGHT "Copyright (C) 2002-2004 COZ"
WEIGHT 10
X_HEIGHT 11
QUAD_WIDTH 12
_XMBDFED_INFO "Edited with xmbdfed 4.5."
DEFAULT_CHAR 8481
FONT_DESCENT 2
FONT_ASCENT 11
ENDPROPERTIES
CHARS 6963
STARTCHAR 0x2121
ENCODING 8481
SWIDTH 886 0
DWIDTH 12 0
BBX 12 13 0 -2
BITMAP
0000
0000
0000
0000
0000
0000
0000
0000
0000
0000
0000
0000
0000
ENDCHAR
STARTCHAR 0x2122
ENCODING 8482
SWIDTH 886 0
DWIDTH 12 0
BBX 12 13 0 -2
BITMAP
0000
0000
0000
0000
0000
0000
0000
0000
0000
0000
6000
3000
0000
ENDCHAR
STARTCHAR 0x2123
ENCODING 8483
SWIDTH 886 0
DWIDTH 12 0
BBX 12 13 0 -2
BITMAP
0000
0000
0000
0000
0000
0000
0000
0000
3800
6C00
6C00
3800
0000
ENDCHAR
STARTCHAR 0x2124
ENCODING 8484
SWIDTH 886 0
DWIDTH 12 0
BBX 12 13 0 -2
BITMAP
0000
0000
0000
0000
0000
0000
0000
0000
0000
3800
3800
7000
0000
ENDCHAR
STARTCHAR 0x2125
ENCODING 8485
SWIDTH 886 0
DWIDTH 12 0
BBX 12 13 0 -2
BITMAP
0000
0000
0000
0000
0000
0000
0000
0000
0000
3800
3800
0000
0000
ENDCHAR
STARTCHAR 0x2126
ENCODING 8486
SWIDTH 886 0
DWIDTH 12 0
BBX 12 13 0 -2
BITMAP
0000
0000
0000
0000
0000
0000
0E00
0E00
0000
0000
0000
0000
0000
ENDCHAR
STARTCHAR 0x2127
ENCODING 8487
SWIDTH 886 0
DWIDTH 12 0
BBX 12 13 0 -2
BITMAP
0000
0000
0000
0000
0E00
0E00
0000
0000
0E00
0E00
0000
0000
0000
ENDCHAR
STARTCHAR 0x2128
ENCODING 8488
SWIDTH 886 0
DWIDTH 12 0
BBX 12 13 0 -2
BITMAP
0000
0000
0000
0000
0E00
0E00
0000
0000
0E00
0E00
1C00
0000
0000
ENDCHAR
STARTCHAR 0x2129
ENCODING 8489
SWIDTH 886 0
DWIDTH 12 0
BBX 12 13 0 -2
BITMAP
0000
0F00
1980
30C0
00C0
0180
0300
0600
0600
0000
0600
0000
0000
ENDCHAR
STARTCHAR 0x212A
ENCODING 8490
SWIDTH 886 0
DWIDTH 12 0
BBX 12 13 0 -2
BITMAP
0000
0600
0600
0600
0600
0600
0600
0600
0000
0000
0600
0000
0000
ENDCHAR
STARTCHAR 0x212B
ENCODING 8491
SWIDTH 886 0
DWIDTH 12 0
BBX 12 13 0 -2
BITMAP
1800
6C00
3000
0000
0000
0000
0000
0000
0000
0000
0000
0000
0000
ENDCHAR
STARTCHAR 0x212C
ENCODING 8492
SWIDTH 886 0
DWIDTH 12 0
BBX 12 13 0 -2
BITMAP
3800
6C00
6C00
3800
0000
0000
0000
0000
0000
0000
0000
0000
0000
ENDCHAR
STARTCHAR 0x212D
ENCODING 8493
SWIDTH 886 0
DWIDTH 12 0
BBX 12 13 0 -2
BITMAP
0600
0C00
0000
0000
0000
0000
0000
0000
0000
0000
0000
0000
0000
ENDCHAR
STARTCHAR 0x212E
ENCODING 8494
SWIDTH 886 0
DWIDTH 12 0
BBX 12 13 0 -2
BITMAP
0C00
0600
0000
0000
0000
0000
0000
0000
0000
0000
0000
0000
0000
ENDCHAR
STARTCHAR 0x212F
ENCODING 8495
SWIDTH 886 0
DWIDTH 12 0
BBX 12 13 0 -2
BITMAP
1DC0
1DC0
0000
0000
0000
0000
0000
0000
0000
0000
0000
0000
0000
ENDCHAR
STARTCHAR 0x2130
ENCODING 8496
SWIDTH 886 0
DWIDTH 12 0
BBX 12 13 0 -2
BITMAP
0600
0D00
1980
0000
0000
0000
0000
0000
0000
0000
0000
0000
0000
ENDCHAR
STARTCHAR 0x2131
ENCODING 8497
SWIDTH 886 0
DWIDTH 12 0
BBX 12 13 0 -2
BITMAP
FFF0
0000
0000
0000
0000
0000
0000
0000
0000
0000
0000
0000
0000
ENDCHAR
STARTCHAR 0x2132
ENCODING 8498
SWIDTH 886 0
DWIDTH 12 0
BBX 12 13 0 -2
BITMAP
0000
0000
0000
0000
0000
0000
0000
0000
0000
0000
0000
FFF0
0000
ENDCHAR
STARTCHAR 0x2133
ENCODING 8499
SWIDTH 886 0
DWIDTH 12 0
BBX 12 13 0 -2
BITMAP
0000
0000
0000
1800
0C00
0600
0600
0300
0300
0000
0000
0000
0000
ENDCHAR
STARTCHAR 0x2134
ENCODING 8500
SWIDTH 886 0
DWIDTH 12 0
BBX 12 13 0 -2
BITMAP
0000
00C0
0360
3180
1800
0C00
0C00
0600
0600
0000
0000
0000
0000
ENDCHAR
STARTCHAR 0x2135
ENCODING 8501
SWIDTH 886 0
DWIDTH 12 0
BBX 12 13 0 -2
BITMAP
0000
0000
0000
0C00
0600
0300
0300
0180
0F80
0000
0000
0000
0000
ENDCHAR
STARTCHAR 0x2136
ENCODING 8502
SWIDTH 886 0
DWIDTH 12 0
BBX 12 13 0 -2
BITMAP
0000
00C0
0360
1980
0C00
0600
0600
0300
1F00
0000
0000
0000
0000
ENDCHAR
STARTCHAR 0x2137
ENCODING 8503
SWIDTH 886 0
DWIDTH 12 0
BBX 12 13 0 -2
BITMAP
0000
0000
0000
0D80
0D80
0D80
1B00
1B00
1B00
0000
0000
0000
0000
ENDCHAR
STARTCHAR 0x2138
ENCODING 8504
SWIDTH 886 0
DWIDTH 12 0
BBX 12 13 0 -2
BITMAP
0000
0F00
1980
30C0
6060
C030
3FC0
0600
0600
0600
0600
7FE0
0000
ENDCHAR
STARTCHAR 0x2139
ENCODING 8505
SWIDTH 886 0
DWIDTH 12 0
BBX 12 13 0 -2
BITMAP
0000
0000
1800
1800
1FC0
30C0
30C0
0180
0D00
0600
0300
0000
0000
ENDCHAR
STARTCHAR 0x213A
ENCODING 8506
SWIDTH 886 0
DWIDTH 12 0
BBX 12 13 0 -2
BITMAP
0000
0000
0060
00C0
1E80
3300
6680
6CC0
6860
7000
6000
0000
0000
ENDCHAR
STARTCHAR 0x213B
ENCODING 8507
SWIDTH 886 0
DWIDTH 12 0
BBX 12 13 0 -2
BITMAP
0000
0000
0F00
39C0
6060
C030
C030
C030
6060
39C0
0F00
0000
0000
ENDCHAR
STARTCHAR 0x213C
ENCODING 8508
SWIDTH 886 0
DWIDTH 12 0
BBX 12 13 0 -2
BITMAP
0000
0000
0000
0000
0000
6000
3FE0
0000
0000
0000
0000
0000
0000
ENDCHAR
STARTCHAR 0x213D
ENCODING 8509
SWIDTH 886 0
DWIDTH 12 0
BBX 12 13 0 -2
BITMAP
0000
0000
0000
0000
0000
0000
FFF0
0000
0000
0000
0000
0000
0000
ENDCHAR
STARTCHAR 0x213E
ENCODING 8510
SWIDTH 886 0
DWIDTH 12 0
BBX 12 13 0 -2
BITMAP
0000
0000
0000
0000
0000
0000
0F00
0000
0000
0000
0000
0000
0000
ENDCHAR
STARTCHAR 0x213F
ENCODING 8511
SWIDTH 886 0
DWIDTH 12 0
BBX 12 13 0 -2
BITMAP
0000
0030
0060
00C0
0180
0300
0600
0C00
1800
3000
6000
C000
0000
ENDCHAR
STARTCHAR 0x2140
ENCODING 8512
SWIDTH 886 0
DWIDTH 12 0
BBX 12 13 0 -2
BITMAP
0000
C000
6000
3000
1800
0C00
0600
0300
0180
00C0
0060
0030
0000
ENDCHAR
STARTCHAR 0x2141
ENCODING 8513
SWIDTH 886 0
DWIDTH 12 0
BBX 12 13 0 -2
BITMAP
0000
0000
0000
0000
0000
3C00
6660
03C0
0000
0000
0000
0000
0000
ENDCHAR
STARTCHAR 0x2142
ENCODING 8514
SWIDTH 886 0
DWIDTH 12 0
BBX 12 13 0 -2
BITMAP
0D00
0D00
0D00
0D00
0D00
0D00
0D00
0D00
0D00
0D00
0D00
0D00
0D00
ENDCHAR
STARTCHAR 0x2143
ENCODING 8515
SWIDTH 886 0
DWIDTH 12 0
BBX 12 13 0 -2
BITMAP
0600
0600
0600
0600
0600
0600
0600
0600
0600
0600
0600
0600
0600
ENDCHAR
STARTCHAR 0x2144
ENCODING 8516
SWIDTH 886 0
DWIDTH 12 0
BBX 12 13 0 -2
BITMAP
0000
0000
0000
0000
0000
0000
7770
7770
0000
0000
0000
0000
0000
ENDCHAR
STARTCHAR 0x2145
ENCODING 8517
SWIDTH 886 0
DWIDTH 12 0
BBX 12 13 0 -2
BITMAP
0000
0000
0000
0000
0000
0000
39C0
39C0
0000
0000
0000
0000
0000
ENDCHAR
STARTCHAR 0x2146
ENCODING 8518
SWIDTH 886 0
DWIDTH 12 0
BBX 12 13 0 -2
BITMAP
00E0
01C0
01C0
0000
0000
0000
0000
0000
0000
0000
0000
0000
0000
ENDCHAR
STARTCHAR 0x2147
ENCODING 8519
SWIDTH 886 0
DWIDTH 12 0
BBX 12 13 0 -2
BITMAP
3800
3800
7000
0000
0000
0000
0000
0000
0000
0000
0000
0000
0000
ENDCHAR
STARTCHAR 0x2148
ENCODING 8520
SWIDTH 886 0
DWIDTH 12 0
BBX 12 13 0 -2
BITMAP
0760
0EC0
0EC0
0000
0000
0000
0000
0000
0000
0000
0000
0000
0000
ENDCHAR
STARTCHAR 0x2149
ENCODING 8521
SWIDTH 886 0
DWIDTH 12 0
BBX 12 13 0 -2
BITMAP
3B00
3B00
7600
0000
0000
0000
0000
0000
0000
0000
0000
0000
0000
ENDCHAR
STARTCHAR 0x214A
ENCODING 8522
SWIDTH 886 0
DWIDTH 12 0
BBX 12 13 0 -2
BITMAP
0060
00C0
0180
0180
0300
0300
0300
0300
0300
0180
0180
00C0
0060
ENDCHAR
STARTCHAR 0x214B
ENCODING 8523
SWIDTH 886 0
DWIDTH 12 0
BBX 12 13 0 -2
BITMAP
6000
3000
1800
1800
0C00
0C00
0C00
0C00
0C00
1800
1800
3000
6000
ENDCHAR
STARTCHAR 0x214C
ENCODING 8524
SWIDTH 886 0
DWIDTH 12 0
BBX 12 13 0 -2
BITMAP
0060
00C0
0180
0180
0180
0180
0180
0180
0180
0180
0180
00C0
0060
ENDCHAR
STARTCHAR 0x214D
ENCODING 8525
SWIDTH 886 0
DWIDTH 12 0
BBX 12 13 0 -2
BITMAP
6000
3000
1800
1800
1800
1800
1800
1800
1800
1800
1800
3000
6000
ENDCHAR
STARTCHAR 0x214E
ENCODING 8526
SWIDTH 886 0
DWIDTH 12 0
BBX 12 13 0 -2
BITMAP
03E0
0300
0300
0300
0300
0300
0300
0300
0300
0300
0300
0300
03E0
ENDCHAR
STARTCHAR 0x214F
ENCODING 8527
SWIDTH 886 0
DWIDTH 12 0
BBX 12 13 0 -2
BITMAP
7C00
0C00
0C00
0C00
0C00
0C00
0C00
0C00
0C00
0C00
0C00
0C00
7C00
ENDCHAR
STARTCHAR 0x2150
ENCODING 8528
SWIDTH 886 0
DWIDTH 12 0
BBX 12 13 0 -2
BITMAP
00E0
0180
0180
0180
0180
0180
0700
0180
0180
0180
0180
0180
00E0
ENDCHAR
STARTCHAR 0x2151
ENCODING 8529
SWIDTH 886 0
DWIDTH 12 0
BBX 12 13 0 -2
BITMAP
7000
1800
1800
1800
1800
1800
0E00
1800
1800
1800
1800
1800
7000
ENDCHAR
STARTCHAR 0x2152
ENCODING 8530
SWIDTH 886 0
DWIDTH 12 0
BBX 12 13 0 -2
BITMAP
0000
0060
0060
00C0
00C0
0180
0180
0180
00C0
00C0
0060
0060
0000
ENDCHAR
STARTCHAR 0x2153
ENCODING 8531
SWIDTH 886 0
DWIDTH 12 0
BBX 12 13 0 -2
BITMAP
0000
6000
6000
3000
3000
1800
1800
1800
3000
3000
6000
6000
0000
ENDCHAR
STARTCHAR 0x2154
ENCODING 8532
SWIDTH 886 0
DWIDTH 12 0
BBX 12 13 0 -2
BITMAP
0000
01B0
01B0
0360
0360
06C0
06C0
06C0
0360
0360
01B0
01B0
0000
ENDCHAR
STARTCHAR 0x2155
ENCODING 8533
SWIDTH 886 0
DWIDTH 12 0
BBX 12 13 0 -2
BITMAP
0000
D800
D800
6C00
6C00
3600
3600
3600
6C00
6C00
D800
D800
0000
ENDCHAR
STARTCHAR 0x2156
ENCODING 8534
SWIDTH 886 0
DWIDTH 12 0
BBX 12 13 0 -2
BITMAP
03E0
0300
0300
0300
0300
0300
0300
0300
0000
0000
0000
0000
0000
ENDCHAR
STARTCHAR 0x2157
ENCODING 8535
SWIDTH 886 0
DWIDTH 12 0
BBX 12 13 0 -2
BITMAP
0000
0000
0000
0000
0000
0C00
0C00
0C00
0C00
0C00
0C00
0C00
7C00
ENDCHAR
STARTCHAR 0x2158
ENCODING 8536
SWIDTH 886 0
DWIDTH 12 0
BBX 12 13 0 -2
BITMAP
0FE0
0C60
0DE0
0D00
0D00
0D00
0D00
0D00
0F00
0000
0000
0000
0000
ENDCHAR
STARTCHAR 0x2159
ENCODING 8537
SWIDTH 886 0
DWIDTH 12 0
BBX 12 13 0 -2
BITMAP
0000
0000
0000
0000
0F00
0D00
0D00
0D00
0D00
0D00
7D00
6300
7F00
ENDCHAR
STARTCHAR 0x215A
ENCODING 8538
SWIDTH 886 0
DWIDTH 12 0
BBX 12 13 0 -2
BITMAP
03E0
03C0
0380
0380
0300
0300
0300
0300
0300
0380
0380
03C0
03E0
ENDCHAR
STARTCHAR 0x215B
ENCODING 8539
SWIDTH 886 0
DWIDTH 12 0
BBX 12 13 0 -2
BITMAP
7C00
3C00
1C00
1C00
0C00
0C00
0C00
0C00
0C00
1C00
1C00
3C00
7C00
ENDCHAR
STARTCHAR 0x215C
ENCODING 8540
SWIDTH 886 0
DWIDTH 12 0
BBX 12 13 0 -2
BITMAP
0000
0000
0600
0600
0600
0600
7FE0
0600
0600
0600
0600
0000
0000
ENDCHAR
STARTCHAR 0x215D
ENCODING 8541
SWIDTH 886 0
DWIDTH 12 0
BBX 12 13 0 -2
BITMAP
0000
0000
0000
0000
0000
0000
7FE0
0000
0000
0000
0000
0000
0000
ENDCHAR
STARTCHAR 0x215E
ENCODING 8542
SWIDTH 886 0
DWIDTH 12 0
BBX 12 13 0 -2
BITMAP
0000
0000
0600
0600
0600
3FC0
0600
0600
0600
0000
3FC0
0000
0000
ENDCHAR
STARTCHAR 0x215F
ENCODING 8543
SWIDTH 886 0
DWIDTH 12 0
BBX 12 13 0 -2
BITMAP
0000
0000
0000
30C0
1980
0D00
0600
0D00
1980
30C0
0000
0000
0000
ENDCHAR
STARTCHAR 0x2160
ENCODING 8544
SWIDTH 886 0
DWIDTH 12 0
BBX 12 13 0 -2
BITMAP
0000
0000
0600
0F00
0600
0000
7FE0
0000
0600
0F00
0600
0000
0000
ENDCHAR
STARTCHAR 0x2161
ENCODING 8545
SWIDTH 886 0
DWIDTH 12 0
BBX 12 13 0 -2
BITMAP
0000
0000
0000
0000
0000
7FE0
0000
0000
7FE0
0000
0000
0000
0000
ENDCHAR
STARTCHAR 0x2162
ENCODING 8546
SWIDTH 886 0
DWIDTH 12 0
BBX 12 13 0 -2
BITMAP
0000
0000
0000
00C0
0180
7FE0
0600
0C00
7FE0
3000
6000
0000
0000
ENDCHAR
STARTCHAR 0x2163
ENCODING 8547
SWIDTH 886 0
DWIDTH 12 0
BBX 12 13 0 -2
BITMAP
0000
0000
00E0
0380
0E00
3800
E000
3800
0E00
0380
00E0
0000
0000
ENDCHAR
STARTCHAR 0x2164
ENCODING 8548
SWIDTH 886 0
DWIDTH 12 0
BBX 12 13 0 -2
BITMAP
0000
0000
7000
1C00
0700
01C0
0070
01C0
0700
1C00
7000
0000
0000
ENDCHAR
STARTCHAR 0x2165
ENCODING 8549
SWIDTH 886 0
DWIDTH 12 0
BBX 12 13 0 -2
BITMAP
0000
0000
01E0
0F00
7800
0F00
01E0
0000
7FE0
0000
7FE0
0000
0000
ENDCHAR
STARTCHAR 0x2166
ENCODING 8550
SWIDTH 886 0
DWIDTH 12 0
BBX 12 13 0 -2
BITMAP
0000
0000
7800
0F00
01E0
0F00
7800
0000
7FE0
0000
7FE0
0000
0000
ENDCHAR
STARTCHAR 0x2167
ENCODING 8551
SWIDTH 886 0
DWIDTH 12 0
BBX 12 13 0 -2
BITMAP
0000
0000
0000
0000
39C0
6D60
C630
C630
6D60
39C0
0000
0000
0000
ENDCHAR
STARTCHAR 0x2168
ENCODING 8552
SWIDTH 886 0
DWIDTH 12 0
BBX 12 13 0 -2
BITMAP
0000
0000
0600
0F00
0600
0000
0000
30C0
79E0
30C0
0000
0000
0000
ENDCHAR
STARTCHAR 0x2169
ENCODING 8553
SWIDTH 886 0
DWIDTH 12 0
BBX 12 13 0 -2
BITMAP
0000
0000
07E0
00E0
01A0
0360
3E60
6600
6600
6600
3C00
0000
0000
ENDCHAR
STARTCHAR 0x216A
ENCODING 8554
SWIDTH 886 0
DWIDTH 12 0
BBX 12 13 0 -2
BITMAP
0000
0F00
1980
1980
1980
0F00
0600
0600
3FC0
0600
0600
0000
0000
ENDCHAR
STARTCHAR 0x216B
ENCODING 8555
SWIDTH 886 0
DWIDTH 12 0
BBX 12 13 0 -2
BITMAP
0000
3800
6C00
6C00
3800
0000
0000
0000
0000
0000
0000
0000
0000
ENDCHAR
STARTCHAR 0x216C
ENCODING 8556
SWIDTH 886 0
DWIDTH 12 0
BBX 12 13 0 -2
BITMAP
0000
1800
3000
6000
0000
0000
0000
0000
0000
0000
0000
0000
0000
ENDCHAR
STARTCHAR 0x216D
ENCODING 8557
SWIDTH 886 0
DWIDTH 12 0
BBX 12 13 0 -2
BITMAP
0000
1B00
3600
6C00
0000
0000
0000
0000
0000
0000
0000
0000
0000
ENDCHAR
STARTCHAR 0x216E
ENCODING 8558
SWIDTH 886 0
DWIDTH 12 0
BBX 12 13 0 -2
BITMAP
3800
6C00
6C00
3BC0
0660
0C00
0C00
0C00
0C00
0660
03C0
0000
0000
ENDCHAR
STARTCHAR 0x216F
ENCODING 8559
SWIDTH 886 0
DWIDTH 12 0
BBX 12 13 0 -2
BITMAP
0000
30C0
30C0
1980
1980
3FC0
0600
0600
3FC0
0600
0600
0000
0000
ENDCHAR
STARTCHAR 0x2170
ENCODING 8560
SWIDTH 886 0
DWIDTH 12 0
BBX 12 13 0 -2
BITMAP
0000
0600
1F80
36C0
3600
1F80
06C0
06C0
36C0
1F80
0600
0000
0000
ENDCHAR
STARTCHAR 0x2171
ENCODING 8561
SWIDTH 886 0
DWIDTH 12 0
BBX 12 13 0 -2
BITMAP
0000
00C0
00C0
0780
0DC0
1B00
1B00
1B00
0EC0
0780
0C00
0C00
0000
ENDCHAR
STARTCHAR 0x2172
ENCODING 8562
SWIDTH 886 0
DWIDTH 12 0
BBX 12 13 0 -2
BITMAP
0000
0780
0CC0
0C00
0C00
7F80
0C00
3C00
6C00
6E60
3BC0
0000
0000
ENDCHAR
STARTCHAR 0x2173
ENCODING 8563
SWIDTH 886 0
DWIDTH 12 0
BBX 12 13 0 -2
BITMAP
0000
3980
6D80
6D00
6D00
3A00
06C0
0D60
0D60
1B60
19C0
0000
0000
ENDCHAR
STARTCHAR 0x2174
ENCODING 8564
SWIDTH 886 0
DWIDTH 12 0
BBX 12 13 0 -2
BITMAP
0000
0D80
0D80
0D80
3FE0
0D80
0D80
3FE0
0D80
0D80
0D80
0000
0000
ENDCHAR
STARTCHAR 0x2175
ENCODING 8565
SWIDTH 886 0
DWIDTH 12 0
BBX 12 13 0 -2
BITMAP
0000
0E00
1B00
1B00
1B00
0EE0
1AC0
3340
3180
3340
1E60
0000
0000
ENDCHAR
STARTCHAR 0x2176
ENCODING 8566
SWIDTH 886 0
DWIDTH 12 0
BBX 12 13 0 -2
BITMAP
0000
0600
36C0
1A80
0F00
1A80
36C0
0600
0000
0000
0000
0000
0000
ENDCHAR
STARTCHAR 0x2177
ENCODING 8567
SWIDTH 886 0
DWIDTH 12 0
BBX 12 13 0 -2
BITMAP
0000
0F80
38C0
3760
6DA0
6DA0
6DA0
6DA0
37C0
3800
0F00
0000
0000
ENDCHAR
STARTCHAR 0x2178
ENCODING 8568
SWIDTH 886 0
DWIDTH 12 0
BBX 12 13 0 -2
BITMAP
0F00
1980
1980
0C00
0F00
1980
1980
0F00
0300
1980
1980
0F00
0000
ENDCHAR
STARTCHAR 0x2179
ENCODING 8569
SWIDTH 886 0
DWIDTH 12 0
BBX 12 13 0 -2
BITMAP
0600
0600
0D00
0D00
FDF0
30C0
1980
1A80
3540
39C0
6060
0000
0000
ENDCHAR
STARTCHAR 0x217A
ENCODING 8570
SWIDTH 886 0
DWIDTH 12 0
BBX 12 13 0 -2
BITMAP
0600
0600
0F00
0F00
FFF0
3FC0
1F80
1F80
3DC0
39C0
6060
0000
0000
ENDCHAR
STARTCHAR 0x217B
ENCODING 8571
SWIDTH 886 0
DWIDTH 12 0
BBX 12 13 0 -2
BITMAP
0000
0700
1DC0
3060
3060
6030
6030
3060
3060
1DC0
0700
0000
0000
ENDCHAR
STARTCHAR 0x217C
ENCODING 8572
SWIDTH 886 0
DWIDTH 12 0
BBX 12 13 0 -2
BITMAP
0000
0700
1FC0
3FE0
3FE0
7FF0
7FF0
3FE0
3FE0
1FC0
0700
0000
0000
ENDCHAR
STARTCHAR 0x217D
ENCODING 8573
SWIDTH 886 0
DWIDTH 12 0
BBX 12 13 0 -2
BITMAP
0000
0700
1DC0
3060
3760
6DB0
6DB0
3760
3060
1DC0
0700
0000
0000
ENDCHAR
STARTCHAR 0x217E
ENCODING 8574
SWIDTH 886 0
DWIDTH 12 0
BBX 12 13 0 -2
BITMAP
0000
0600
0D00
1980
30C0
6060
C030
6060
30C0
1980
0D00
0600
0000
ENDCHAR
STARTCHAR 0x2221
ENCODING 8737
SWIDTH 886 0
DWIDTH 12 0
BBX 12 13 0 -2
BITMAP
0000
0600
0F00
1F80
3FC0
7FE0
FFF0
7FE0
3FC0
1F80
0F00
0600
0000
ENDCHAR
STARTCHAR 0x2222
ENCODING 8738
SWIDTH 886 0
DWIDTH 12 0
BBX 12 13 0 -2
BITMAP
0000
0000
7FE0
6060
6060
6060
6060
6060
6060
6060
7FE0
0000
0000
ENDCHAR
STARTCHAR 0x2223
ENCODING 8739
SWIDTH 886 0
DWIDTH 12 0
BBX 12 13 0 -2
BITMAP
0000
0000
7FE0
7FE0
7FE0
7FE0
7FE0
7FE0
7FE0
7FE0
7FE0
0000
0000
ENDCHAR
STARTCHAR 0x2224
ENCODING 8740
SWIDTH 886 0
DWIDTH 12 0
BBX 12 13 0 -2
BITMAP
0000
0000
0600
0D00
0D00
1980
1980
30C0
30C0
6060
7FE0
0000
0000
ENDCHAR
STARTCHAR 0x2225
ENCODING 8741
SWIDTH 886 0
DWIDTH 12 0
BBX 12 13 0 -2
BITMAP
0000
0000
0600
0F00
0F00
1F80
1F80
3FC0
3FC0
7FE0
7FE0
0000
0000
ENDCHAR
STARTCHAR 0x2226
ENCODING 8742
SWIDTH 886 0
DWIDTH 12 0
BBX 12 13 0 -2
BITMAP
0000
0000
7FE0
6060
30C0
30C0
1980
1980
0D00
0D00
0600
0000
0000
ENDCHAR
STARTCHAR 0x2227
ENCODING 8743
SWIDTH 886 0
DWIDTH 12 0
BBX 12 13 0 -2
BITMAP
0000
0000
7FE0
7FE0
3FC0
3FC0
1F80
1F80
0F00
0F00
0600
0000
0000
ENDCHAR
STARTCHAR 0x2228
ENCODING 8744
SWIDTH 886 0
DWIDTH 12 0
BBX 12 13 0 -2
BITMAP
0000
0600
6F60
36C0
1980
6D60
F6F0
6D60
1980
36C0
6F60
0600
0000
ENDCHAR
STARTCHAR 0x2229
ENCODING 8745
SWIDTH 886 0
DWIDTH 12 0
BBX 12 13 0 -2
BITMAP
0000
7FE0
0000
0000
0000
7FE0
0600
0600
0600
0600
0600
0000
0000
ENDCHAR
STARTCHAR 0x222A
ENCODING 8746
SWIDTH 886 0
DWIDTH 12 0
BBX 12 13 0 -2
BITMAP
0000
0000
0300
0180
00C0
0060
FFF0
0060
00C0
0180
0300
0000
0000
ENDCHAR
STARTCHAR 0x222B
ENCODING 8747
SWIDTH 886 0
DWIDTH 12 0
BBX 12 13 0 -2
BITMAP
0000
0000
0C00
1800
3000
6000
FFF0
6000
3000
1800
0C00
0000
0000
ENDCHAR
STARTCHAR 0x222C
ENCODING 8748
SWIDTH 886 0
DWIDTH 12 0
BBX 12 13 0 -2
BITMAP
0000
0600
0F00
1A80
36C0
6660
0600
0600
0600
0600
0600
0600
0000
ENDCHAR
STARTCHAR 0x222D
ENCODING 8749
SWIDTH 886 0
DWIDTH 12 0
BBX 12 13 0 -2
BITMAP
0000
0600
0600
0600
0600
0600
0600
6660
36C0
1A80
0F00
0600
0000
ENDCHAR
STARTCHAR 0x222E
ENCODING 8750
SWIDTH 886 0
DWIDTH 12 0
BBX 12 13 0 -2
BITMAP
0000
0000
0000
7FE0
7FE0
7FE0
0000
7FE0
7FE0
7FE0
0000
0000
0000
ENDCHAR
STARTCHAR 0x223A
ENCODING 8762
SWIDTH 886 0
DWIDTH 12 0
BBX 12 13 0 -2
BITMAP
0000
0000
0000
1FE0
3000
6000
7FE0
6000
3000
1FE0
0000
0000
0000
ENDCHAR
STARTCHAR 0x223B
ENCODING 8763
SWIDTH 886 0
DWIDTH 12 0
BBX 12 13 0 -2
BITMAP
0000
0000
0000
7F80
00C0
0060
7FE0
0060
00C0
7F80
0000
0000
0000
ENDCHAR
STARTCHAR 0x223C
ENCODING 8764
SWIDTH 886 0
DWIDTH 12 0
BBX 12 13 0 -2
BITMAP
0000
0000
1FE0
3000
6000
6000
3000
1FE0
0000
0000
7FE0
0000
0000
ENDCHAR
STARTCHAR 0x223D
ENCODING 8765
SWIDTH 886 0
DWIDTH 12 0
BBX 12 13 0 -2
BITMAP
0000
0000
7F80
00C0
0060
0060
00C0
7F80
0000
0000
7FE0
0000
0000
ENDCHAR
STARTCHAR 0x223E
ENCODING 8766
SWIDTH 886 0
DWIDTH 12 0
BBX 12 13 0 -2
BITMAP
0000
0000
0000
1FE0
3000
6000
6000
6000
3000
1FE0
0000
0000
0000
ENDCHAR
STARTCHAR 0x223F
ENCODING 8767
SWIDTH 886 0
DWIDTH 12 0
BBX 12 13 0 -2
BITMAP
0000
0000
0000
7F80
00C0
0060
0060
0060
00C0
7F80
0000
0000
0000
ENDCHAR
STARTCHAR 0x2240
ENCODING 8768
SWIDTH 886 0
DWIDTH 12 0
BBX 12 13 0 -2
BITMAP
0000
0000
30C0
30C0
30C0
30C0
30C0
30C0
30C0
1980
0F00
0000
0000
ENDCHAR
STARTCHAR 0x2241
ENCODING 8769
SWIDTH 886 0
DWIDTH 12 0
BBX 12 13 0 -2
BITMAP
0000
0000
0F00
1980
30C0
30C0
30C0
30C0
30C0
30C0
30C0
0000
0000
ENDCHAR
STARTCHAR 0x224A
ENCODING 8778
SWIDTH 886 0
DWIDTH 12 0
BBX 12 13 0 -2
BITMAP
0000
0600
0600
0D00
0D00
1980
1980
30C0
30C0
6060
6060
0000
0000
ENDCHAR
STARTCHAR 0x224B
ENCODING 8779
SWIDTH 886 0
DWIDTH 12 0
BBX 12 13 0 -2
BITMAP
0000
6060
6060
30C0
30C0
1980
1980
0D00
0D00
0600
0600
0000
0000
ENDCHAR
STARTCHAR 0x224C
ENCODING 8780
SWIDTH 886 0
DWIDTH 12 0
BBX 12 13 0 -2
BITMAP
0000
0000
0000
0000
0000
0000
7FE0
0060
0060
0000
0000
0000
0000
ENDCHAR
STARTCHAR 0x224D
ENCODING 8781
SWIDTH 886 0
DWIDTH 12 0
BBX 12 13 0 -2
BITMAP
0000
0000
0000
0180
00C0
FFE0
0030
FFE0
00C0
0180
0000
0000
0000
ENDCHAR
STARTCHAR 0x224E
ENCODING 8782
SWIDTH 886 0
DWIDTH 12 0
BBX 12 13 0 -2
BITMAP
0000
0000
0000
1980
30C0
7FE0
C030
7FE0
30C0
1980
0000
0000
0000
ENDCHAR
STARTCHAR 0x224F
ENCODING 8783
SWIDTH 886 0
DWIDTH 12 0
BBX 12 13 0 -2
BITMAP
0000
6060
6060
30C0
3FC0
1980
1980
0D00
0D00
0600
0600
0000
0000
ENDCHAR
STARTCHAR 0x2250
ENCODING 8784
SWIDTH 886 0
DWIDTH 12 0
BBX 12 13 0 -2
BITMAP
0000
3FC0
00C0
00C0
00C0
3FC0
00C0
00C0
00C0
00C0
3FC0
0000
0000
ENDCHAR
STARTCHAR 0x225C
ENCODING 8796
SWIDTH 886 0
DWIDTH 12 0
BBX 12 13 0 -2
BITMAP
0000
0000
00C0
0180
0300
0600
0C00
1800
3000
7FE0
0000
0000
0000
ENDCHAR
STARTCHAR 0x225D
ENCODING 8797
SWIDTH 886 0
DWIDTH 12 0
BBX 12 13 0 -2
BITMAP
0000
0000
0600
0600
0600
0600
0600
0600
0600
7FE0
0000
0000
0000
ENDCHAR
STARTCHAR 0x225E
ENCODING 8798
SWIDTH 886 0
DWIDTH 12 0
BBX 12 13 0 -2
BITMAP
1F80
70E0
C030
0000
0000
0000
0000
0000
0000
0000
0000
0000
0000
ENDCHAR
STARTCHAR 0x225F
ENCODING 8799
SWIDTH 886 0
DWIDTH 12 0
BBX 12 13 0 -2
BITMAP
0000
0000
0780
0CC0
00C0
00C0
0F40
1980
3180
3300
1E00
0000
0000
ENDCHAR
STARTCHAR 0x2260
ENCODING 8800
SWIDTH 886 0
DWIDTH 12 0
BBX 12 13 0 -2
BITMAP
0000
0000
7FE0
7FE0
38C0
38C0
1D80
1D80
0D00
0F00
0600
0000
0000
ENDCHAR
STARTCHAR 0x2261
ENCODING 8801
SWIDTH 886 0
DWIDTH 12 0
BBX 12 13 0 -2
BITMAP
0000
0000
0000
7FE0
0000
0000
7FE0
0000
0000
7FE0
0000
0000
0000
ENDCHAR
STARTCHAR 0x2262
ENCODING 8802
SWIDTH 886 0
DWIDTH 12 0
BBX 12 13 0 -2
BITMAP
0000
0000
3800
3800
0000
7FE0
0000
7FE0
0000
01C0
01C0
0000
0000
ENDCHAR
STARTCHAR 0x2263
ENCODING 8803
SWIDTH 886 0
DWIDTH 12 0
BBX 12 13 0 -2
BITMAP
0000
0000
0660
0CC0
1980
3300
6600
3300
1980
0CC0
0660
0000
0000
ENDCHAR
STARTCHAR 0x2264
ENCODING 8804
SWIDTH 886 0
DWIDTH 12 0
BBX 12 13 0 -2
BITMAP
0000
0000
CC00
6600
3300
1980
0CC0
1980
3300
6600
CC00
0000
0000
ENDCHAR
STARTCHAR 0x2265
ENCODING 8805
SWIDTH 886 0
DWIDTH 12 0
BBX 12 13 0 -2
BITMAP
03F0
0300
0300
0600
0600
6600
6C00
D400
D400
1800
1800
0000
0000
ENDCHAR
STARTCHAR 0x2266
ENCODING 8806
SWIDTH 886 0
DWIDTH 12 0
BBX 12 13 0 -2
BITMAP
0000
0000
0000
31C0
6360
C630
C630
6C60
38C0
0000
0000
0000
0000
ENDCHAR
STARTCHAR 0x2267
ENCODING 8807
SWIDTH 886 0
DWIDTH 12 0
BBX 12 13 0 -2
BITMAP
0000
0000
0000
39C0
6D60
C600
C600
6D60
39C0
0000
0000
0000
0000
ENDCHAR
STARTCHAR 0x2268
ENCODING 8808
SWIDTH 886 0
DWIDTH 12 0
BBX 12 13 0 -2
BITMAP
0000
0000
30C0
79E0
30C0
0000
0000
0600
0F00
0600
0000
0000
0000
ENDCHAR
STARTCHAR 0x2269
ENCODING 8809
SWIDTH 886 0
DWIDTH 12 0
BBX 12 13 0 -2
BITMAP
0700
0D00
0C00
0C00
0C00
0600
0600
0300
0300
0300
0D00
0E00
0000
ENDCHAR
STARTCHAR 0x226A
ENCODING 8810
SWIDTH 886 0
DWIDTH 12 0
BBX 12 13 0 -2
BITMAP
1DC0
3540
3300
3300
3300
1980
1980
0CC0
0CC0
0CC0
3540
3B80
0000
ENDCHAR
STARTCHAR 0x2272
ENCODING 8818
SWIDTH 886 0
DWIDTH 12 0
BBX 12 13 0 -2
BITMAP
0700
0D80
0D80
0700
0600
0D00
0D00
1980
1F80
30C0
30C0
0000
0000
ENDCHAR
STARTCHAR 0x2273
ENCODING 8819
SWIDTH 886 0
DWIDTH 12 0
BBX 12 13 0 -2
BITMAP
0000
7300
DB00
DA00
DA00
7400
0F60
1DB0
1DB0
35B0
3760
0000
0000
ENDCHAR
STARTCHAR 0x2274
ENCODING 8820
SWIDTH 886 0
DWIDTH 12 0
BBX 12 13 0 -2
BITMAP
0000
0D80
0D80
0DE0
0F80
3D80
0DE0
0F80
3D80
0D80
0D80
0000
0000
ENDCHAR
STARTCHAR 0x2275
ENCODING 8821
SWIDTH 886 0
DWIDTH 12 0
BBX 12 13 0 -2
BITMAP
0000
1800
1800
1800
1B00
1D80
1980
1980
1B00
1A00
1C00
0000
0000
ENDCHAR
STARTCHAR 0x2276
ENCODING 8822
SWIDTH 886 0
DWIDTH 12 0
BBX 12 13 0 -2
BITMAP
0000
0600
0700
0680
06C0
06C0
0680
0600
1E00
3E00
3C00
0000
0000
ENDCHAR
STARTCHAR 0x2277
ENCODING 8823
SWIDTH 886 0
DWIDTH 12 0
BBX 12 13 0 -2
BITMAP
0600
0600
1F80
0600
0600
0F00
0F00
0F00
0600
0600
0600
0600
0000
ENDCHAR
STARTCHAR 0x2278
ENCODING 8824
SWIDTH 886 0
DWIDTH 12 0
BBX 12 13 0 -2
BITMAP
0600
0600
1F80
0600
0F00
0600
0600
0F00
0600
1F80
0600
0600
0000
ENDCHAR
STARTCHAR 0x2279
ENCODING 8825
SWIDTH 886 0
DWIDTH 12 0
BBX 12 13 0 -2
BITMAP
0000
0F80
1E80
3E80
3E80
1E80
0E80
0680
0680
0680
0680
0000
0000
ENDCHAR
STARTCHAR 0x227E
ENCODING 8830
SWIDTH 886 0
DWIDTH 12 0
BBX 12 13 0 -2
BITMAP
0000
0F00
39C0
6060
6060
C030
C030
C030
6060
6060
39C0
0F00
0000
ENDCHAR
STARTCHAR 0x2330
ENCODING 9008
SWIDTH 886 0
DWIDTH 12 0
BBX 12 13 0 -2
BITMAP
0000
0F00
1980
30C0
30C0
30C0
30C0
30C0
30C0
1980
0F00
0000
0000
ENDCHAR
STARTCHAR 0x2331
ENCODING 9009
SWIDTH 886 0
DWIDTH 12 0
BBX 12 13 0 -2
BITMAP
0000
0600
0E00
1A00
3600
0600
0600
0600
0600
0600
0600
0000
0000
ENDCHAR
STARTCHAR 0x2332
ENCODING 9010
SWIDTH 886 0
DWIDTH 12 0
BBX 12 13 0 -2
BITMAP
0000
0F00
1980
30C0
00C0
0180
0300
0600
0C00
1800
3FC0
0000
0000
ENDCHAR
STARTCHAR 0x2333
ENCODING 9011
SWIDTH 886 0
DWIDTH 12 0
BBX 12 13 0 -2
BITMAP
0000
3FC0
0180
0300
0600
0F00
0180
00C0
30C0
1980
0F00
0000
0000
ENDCHAR
STARTCHAR 0x2334
ENCODING 9012
SWIDTH 886 0
DWIDTH 12 0
BBX 12 13 0 -2
BITMAP
0000
0700
0D00
0D00
1B00
1B00
3300
3300
7FC0
0300
0300
0000
0000
ENDCHAR
STARTCHAR 0x2335
ENCODING 9013
SWIDTH 886 0
DWIDTH 12 0
BBX 12 13 0 -2
BITMAP
0000
3FC0
3000
3000
3700
3980
00C0
00C0
00C0
3180
1F00
0000
0000
ENDCHAR
STARTCHAR 0x2336
ENCODING 9014
SWIDTH 886 0
DWIDTH 12 0
BBX 12 13 0 -2
BITMAP
0000
0F80
1800
3000
3700
3980
30C0
30C0
30C0
1980
0F00
0000
0000
ENDCHAR
STARTCHAR 0x2337
ENCODING 9015
SWIDTH 886 0
DWIDTH 12 0
BBX 12 13 0 -2
BITMAP
0000
3FC0
00C0
0180
0180
0300
0300
0600
0600
0C00
0C00
0000
0000
ENDCHAR
STARTCHAR 0x2338
ENCODING 9016
SWIDTH 886 0
DWIDTH 12 0
BBX 12 13 0 -2
BITMAP
0000
0F00
1980
30C0
1980
0F00
1980
30C0
30C0
1980
0F00
0000
0000
ENDCHAR
STARTCHAR 0x2339
ENCODING 9017
SWIDTH 886 0
DWIDTH 12 0
BBX 12 13 0 -2
BITMAP
0000
0F00
1980
30C0
30C0
30C0
19C0
0F40
00C0
0180
1F00
0000
0000
ENDCHAR
STARTCHAR 0x2341
ENCODING 9025
SWIDTH 886 0
DWIDTH 12 0
BBX 12 13 0 -2
BITMAP
0000
0600
0600
0D00
0D00
1980
1980
3FC0
30C0
6060
6060
0000
0000
ENDCHAR
STARTCHAR 0x2342
ENCODING 9026
SWIDTH 886 0
DWIDTH 12 0
BBX 12 13 0 -2
BITMAP
0000
3F80
30C0
30C0
30C0
3F80
30C0
3060
3060
30C0
3F80
0000
0000
ENDCHAR
STARTCHAR 0x2343
ENCODING 9027
SWIDTH 886 0
DWIDTH 12 0
BBX 12 13 0 -2
BITMAP
0000
0FC0
1860
3000
3000
3000
3000
3000
3000
1860
0FC0
0000
0000
ENDCHAR
STARTCHAR 0x2344
ENCODING 9028
SWIDTH 886 0
DWIDTH 12 0
BBX 12 13 0 -2
BITMAP
0000
3F00
31C0
30C0
3060
3060
3060
3060
30C0
31C0
3F00
0000
0000
ENDCHAR
STARTCHAR 0x2345
ENCODING 9029
SWIDTH 886 0
DWIDTH 12 0
BBX 12 13 0 -2
BITMAP
0000
3FC0
3000
3000
3000
3F80
3000
3000
3000
3000
3FC0
0000
0000
ENDCHAR
STARTCHAR 0x2346
ENCODING 9030
SWIDTH 886 0
DWIDTH 12 0
BBX 12 13 0 -2
BITMAP
0000
3FC0
3000
3000
3000
3F80
3000
3000
3000
3000
3000
0000
0000
ENDCHAR
STARTCHAR 0x2347
ENCODING 9031
SWIDTH 886 0
DWIDTH 12 0
BBX 12 13 0 -2
BITMAP
0000
0FC0
1860
3000
3000
33E0
3060
3060
3060
18E0
0FA0
0000
0000
ENDCHAR
STARTCHAR 0x2348
ENCODING 9032
SWIDTH 886 0
DWIDTH 12 0
BBX 12 13 0 -2
BITMAP
0000
3060
3060
3060
3060
3FE0
3060
3060
3060
3060
3060
0000
0000
ENDCHAR
STARTCHAR 0x2349
ENCODING 9033
SWIDTH 886 0
DWIDTH 12 0
BBX 12 13 0 -2
BITMAP
0000
0600
0600
0600
0600
0600
0600
0600
0600
0600
0600
0000
0000
ENDCHAR
STARTCHAR 0x234A
ENCODING 9034
SWIDTH 886 0
DWIDTH 12 0
BBX 12 13 0 -2
BITMAP
0000
0180
0180
0180
0180
0180
6180
6180
6180
3300
1E00
0000
0000
ENDCHAR
STARTCHAR 0x234B
ENCODING 9035
SWIDTH 886 0
DWIDTH 12 0
BBX 12 13 0 -2
BITMAP
0000
30C0
3180
3300
3600
3400
3A00
3300
3180
30C0
3060
0000
0000
ENDCHAR
STARTCHAR 0x234C
ENCODING 9036
SWIDTH 886 0
DWIDTH 12 0
BBX 12 13 0 -2
BITMAP
0000
3000
3000
3000
3000
3000
3000
3000
3000
3000
3FC0
0000
0000
ENDCHAR
STARTCHAR 0x234D
ENCODING 9037
SWIDTH 886 0
DWIDTH 12 0
BBX 12 13 0 -2
BITMAP
0000
6060
70E0
69A0
6D60
6660
6060
6060
6060
6060
6060
0000
0000
ENDCHAR
STARTCHAR 0x234E
ENCODING 9038
SWIDTH 886 0
DWIDTH 12 0
BBX 12 13 0 -2
BITMAP
0000
30C0
38C0
34C0
36C0
3340
31C0
30C0
30C0
30C0
30C0
0000
0000
ENDCHAR
STARTCHAR 0x234F
ENCODING 9039
SWIDTH 886 0
DWIDTH 12 0
BBX 12 13 0 -2
BITMAP
0000
0F80
18C0
3060
3060
3060
3060
3060
3060
18C0
0F80
0000
0000
ENDCHAR
STARTCHAR 0x2350
ENCODING 9040
SWIDTH 886 0
DWIDTH 12 0
BBX 12 13 0 -2
BITMAP
0000
3F00
3180
30C0
30C0
3180
3F00
3000
3000
3000
3000
0000
0000
ENDCHAR
STARTCHAR 0x2351
ENCODING 9041
SWIDTH 886 0
DWIDTH 12 0
BBX 12 13 0 -2
BITMAP
0000
0F80
18C0
3060
3060
3060
3060
3060
3060
18C0
0F80
0300
01E0
ENDCHAR
STARTCHAR 0x2352
ENCODING 9042
SWIDTH 886 0
DWIDTH 12 0
BBX 12 13 0 -2
BITMAP
0000
3F00
3180
30C0
30C0
3180
3F00
3180
3180
30C0
30C0
0000
0000
ENDCHAR
STARTCHAR 0x2353
ENCODING 9043
SWIDTH 886 0
DWIDTH 12 0
BBX 12 13 0 -2
BITMAP
0000
0F80
18C0
3060
1800
0F80
00C0
0060
3060
18C0
0F80
0000
0000
ENDCHAR
STARTCHAR 0x2354
ENCODING 9044
SWIDTH 886 0
DWIDTH 12 0
BBX 12 13 0 -2
BITMAP
0000
7FE0
0600
0600
0600
0600
0600
0600
0600
0600
0600
0000
0000
ENDCHAR
STARTCHAR 0x2355
ENCODING 9045
SWIDTH 886 0
DWIDTH 12 0
BBX 12 13 0 -2
BITMAP
0000
30C0
30C0
30C0
30C0
30C0
30C0
30C0
30C0
1980
0F00
0000
0000
ENDCHAR
STARTCHAR 0x2356
ENCODING 9046
SWIDTH 886 0
DWIDTH 12 0
BBX 12 13 0 -2
BITMAP
0000
30C0
30C0
30C0
1980
1980
1980
0D00
0D00
0600
0600
0000
0000
ENDCHAR
STARTCHAR 0x2357
ENCODING 9047
SWIDTH 886 0
DWIDTH 12 0
BBX 12 13 0 -2
BITMAP
0000
6660
6660
6660
6660
3540
3540
3540
1980
1980
1980
0000
0000
ENDCHAR
STARTCHAR 0x2358
ENCODING 9048
SWIDTH 886 0
DWIDTH 12 0
BBX 12 13 0 -2
BITMAP
0000
30C0
30C0
1980
0D00
0600
0600
0D00
1980
30C0
30C0
0000
0000
ENDCHAR
STARTCHAR 0x2359
ENCODING 9049
SWIDTH 886 0
DWIDTH 12 0
BBX 12 13 0 -2
BITMAP
0000
30C0
30C0
1980
1980
0D00
0D00
0600
0600
0600
0600
0000
0000
ENDCHAR
STARTCHAR 0x235A
ENCODING 9050
SWIDTH 886 0
DWIDTH 12 0
BBX 12 13 0 -2
BITMAP
0000
3FC0
00C0
0180
0300
0600
0C00
1800
3000
3000
3FC0
0000
0000
ENDCHAR
STARTCHAR 0x2361
ENCODING 9057
SWIDTH 886 0
DWIDTH 12 0
BBX 12 13 0 -2
BITMAP
0000
0000
0000
0000
0F80
00C0
07C0
1CC0
18C0
19C0
0F40
0000
0000
ENDCHAR
STARTCHAR 0x2362
ENCODING 9058
SWIDTH 886 0
DWIDTH 12 0
BBX 12 13 0 -2
BITMAP
0000
1800
1800
1800
1B00
1D80
18C0
18C0
18C0
1D80
1B00
0000
0000
ENDCHAR
STARTCHAR 0x2363
ENCODING 9059
SWIDTH 886 0
DWIDTH 12 0
BBX 12 13 0 -2
BITMAP
0000
0000
0000
0000
0780
0CC0
1800
1800
1800
0CC0
0780
0000
0000
ENDCHAR
STARTCHAR 0x2364
ENCODING 9060
SWIDTH 886 0
DWIDTH 12 0
BBX 12 13 0 -2
BITMAP
0000
00C0
00C0
00C0
0740
0DC0
18C0
18C0
18C0
0DC0
0740
0000
0000
ENDCHAR
STARTCHAR 0x2365
ENCODING 9061
SWIDTH 886 0
DWIDTH 12 0
BBX 12 13 0 -2
BITMAP
0000
0000
0000
0000
0700
0D80
18C0
1FC0
1800
0CC0
0780
0000
0000
ENDCHAR
STARTCHAR 0x2366
ENCODING 9062
SWIDTH 886 0
DWIDTH 12 0
BBX 12 13 0 -2
BITMAP
0000
03C0
0600
0600
0600
1FC0
0600
0600
0600
0600
0600
0000
0000
ENDCHAR
STARTCHAR 0x2367
ENCODING 9063
SWIDTH 886 0
DWIDTH 12 0
BBX 12 13 0 -2
BITMAP
0000
0000
0000
0000
0740
0DC0
18C0
18C0
0DC0
0740
00C0
0180
0F00
ENDCHAR
STARTCHAR 0x2368
ENCODING 9064
SWIDTH 886 0
DWIDTH 12 0
BBX 12 13 0 -2
BITMAP
0000
1800
1800
1800
1B00
1D80
18C0
18C0
18C0
18C0
18C0
0000
0000
ENDCHAR
STARTCHAR 0x2369
ENCODING 9065
SWIDTH 886 0
DWIDTH 12 0
BBX 12 13 0 -2
BITMAP
0000
0600
0600
0000
0000
0600
0600
0600
0600
0600
0600
0000
0000
ENDCHAR
STARTCHAR 0x236A
ENCODING 9066
SWIDTH 886 0
DWIDTH 12 0
BBX 12 13 0 -2
BITMAP
0000
0300
0300
0000
0000
0300
0300
0300
0300
0300
0300
0600
3C00
ENDCHAR
STARTCHAR 0x236B
ENCODING 9067
SWIDTH 886 0
DWIDTH 12 0
BBX 12 13 0 -2
BITMAP
0000
1800
1800
1800
18C0
1980
1B00
1A00
1B00
1980
18C0
0000
0000
ENDCHAR
STARTCHAR 0x236C
ENCODING 9068
SWIDTH 886 0
DWIDTH 12 0
BBX 12 13 0 -2
BITMAP
0000
0600
0600
0600
0600
0600
0600
0600
0600
0600
0600
0000
0000
ENDCHAR
STARTCHAR 0x236D
ENCODING 9069
SWIDTH 886 0
DWIDTH 12 0
BBX 12 13 0 -2
BITMAP
0000
0000
0000
0000
6DC0
7760
6660
6660
6660
6660
6660
0000
0000
ENDCHAR
STARTCHAR 0x236E
ENCODING 9070
SWIDTH 886 0
DWIDTH 12 0
BBX 12 13 0 -2
BITMAP
0000
0000
0000
0000
1B80
1CC0
18C0
18C0
18C0
18C0
18C0
0000
0000
ENDCHAR
STARTCHAR 0x236F
ENCODING 9071
SWIDTH 886 0
DWIDTH 12 0
BBX 12 13 0 -2
BITMAP
0000
0000
0000
0000
0F00
1980
30C0
30C0
30C0
1980
0F00
0000
0000
ENDCHAR
STARTCHAR 0x2370
ENCODING 9072
SWIDTH 886 0
DWIDTH 12 0
BBX 12 13 0 -2
BITMAP
0000
0000
0000
0000
1B00
1D80
18C0
18C0
18C0
1D80
1B00
1800
1800
ENDCHAR
STARTCHAR 0x2371
ENCODING 9073
SWIDTH 886 0
DWIDTH 12 0
BBX 12 13 0 -2
BITMAP
0000
0000
0000
0000
0740
0DC0
18C0
18C0
18C0
0DC0
0740
00C0
00C0
ENDCHAR
STARTCHAR 0x2372
ENCODING 9074
SWIDTH 886 0
DWIDTH 12 0
BBX 12 13 0 -2
BITMAP
0000
0000
0000
0000
1B00
1D80
1800
1800
1800
1800
1800
0000
0000
ENDCHAR
STARTCHAR 0x2373
ENCODING 9075
SWIDTH 886 0
DWIDTH 12 0
BBX 12 13 0 -2
BITMAP
0000
0000
0000
0000
0F80
18C0
1800
0F80
00C0
18C0
0F80
0000
0000
ENDCHAR
STARTCHAR 0x2374
ENCODING 9076
SWIDTH 886 0
DWIDTH 12 0
BBX 12 13 0 -2
BITMAP
0000
0C00
0C00
0C00
3F80
0C00
0C00
0C00
0C00
0CC0
0780
0000
0000
ENDCHAR
STARTCHAR 0x2375
ENCODING 9077
SWIDTH 886 0
DWIDTH 12 0
BBX 12 13 0 -2
BITMAP
0000
0000
0000
0000
18C0
18C0
18C0
18C0
18C0
19C0
0F40
0000
0000
ENDCHAR
STARTCHAR 0x2376
ENCODING 9078
SWIDTH 886 0
DWIDTH 12 0
BBX 12 13 0 -2
BITMAP
0000
0000
0000
0000
30C0
30C0
1980
1980
0D00
0D00
0600
0000
0000
ENDCHAR
STARTCHAR 0x2377
ENCODING 9079
SWIDTH 886 0
DWIDTH 12 0
BBX 12 13 0 -2
BITMAP
0000
0000
0000
0000
6660
6660
6660
3540
3540
1980
1980
0000
0000
ENDCHAR
STARTCHAR 0x2378
ENCODING 9080
SWIDTH 886 0
DWIDTH 12 0
BBX 12 13 0 -2
BITMAP
0000
0000
0000
0000
30C0
1980
0D00
0600
0D00
1980
30C0
0000
0000
ENDCHAR
STARTCHAR 0x2379
ENCODING 9081
SWIDTH 886 0
DWIDTH 12 0
BBX 12 13 0 -2
BITMAP
0000
0000
0000
0000
18C0
18C0
0CC0
0D80
0680
0300
0300
0600
1C00
ENDCHAR
STARTCHAR 0x237A
ENCODING 9082
SWIDTH 886 0
DWIDTH 12 0
BBX 12 13 0 -2
BITMAP
0000
0000
0000
0000
1FC0
0180
0300
0600
0C00
1800
1FC0
0000
0000
ENDCHAR
STARTCHAR 0x2421
ENCODING 9249
SWIDTH 886 0
DWIDTH 12 0
BBX 12 13 0 -2
BITMAP
0000
0000
0000
0000
0600
3FC0
0C00
0F80
1D40
3540
36C0
1D80
0000
ENDCHAR
STARTCHAR 0x2422
ENCODING 9250
SWIDTH 886 0
DWIDTH 12 0
BBX 12 13 0 -2
BITMAP
0000
0600
06E0
7F80
0C00
0FC0
1DA0
35B0
6D30
6E30
3A60
01C0
0000
ENDCHAR
STARTCHAR 0x2423
ENCODING 9251
SWIDTH 886 0
DWIDTH 12 0
BBX 12 13 0 -2
BITMAP
0000
0000
0000
0000
0000
3180
3180
30C0
30C0
36C0
1C00
0000
0000
ENDCHAR
STARTCHAR 0x2424
ENCODING 9252
SWIDTH 886 0
DWIDTH 12 0
BBX 12 13 0 -2
BITMAP
0000
0000
0000
3000
30C0
6060
6060
6030
6330
3600
1C00
0000
0000
ENDCHAR
STARTCHAR 0x2425
ENCODING 9253
SWIDTH 886 0
DWIDTH 12 0
BBX 12 13 0 -2
BITMAP
0000
0000
0000
0000
0E00
0380
0000
0780
1CC0
00C0
0180
0700
0000
ENDCHAR
STARTCHAR 0x2426
ENCODING 9254
SWIDTH 886 0
DWIDTH 12 0
BBX 12 13 0 -2
BITMAP
0000
1E00
0380
0000
0F00
3980
00C0
00C0
00C0
0180
0700
1C00
0000
ENDCHAR
STARTCHAR 0x2427
ENCODING 9255
SWIDTH 886 0
DWIDTH 12 0
BBX 12 13 0 -2
BITMAP
0000
0000
0000
0000
0E00
0380
0000
1F80
0300
0600
0D00
19C0
0000
ENDCHAR
STARTCHAR 0x2428
ENCODING 9256
SWIDTH 886 0
DWIDTH 12 0
BBX 12 13 0 -2
BITMAP
0000
0E00
0380
0000
3F80
0180
0300
0600
0E00
1B00
3300
61E0
0000
ENDCHAR
STARTCHAR 0x2429
ENCODING 9257
SWIDTH 886 0
DWIDTH 12 0
BBX 12 13 0 -2
BITMAP
0000
0000
0000
0000
0C00
0CC0
3F60
0C00
1F80
34C0
34C0
3B80
0000
ENDCHAR
STARTCHAR 0x242A
ENCODING 9258
SWIDTH 886 0
DWIDTH 12 0
BBX 12 13 0 -2
BITMAP
0000
0C00
0CE0
7F30
0C00
0C00
0FC0
1C60
3430
6C30
6C60
39C0
0000
ENDCHAR
STARTCHAR 0x242B
ENCODING 9259
SWIDTH 886 0
DWIDTH 12 0
BBX 12 13 0 -2
BITMAP
0000
1800
18C0
18C0
7E60
1B60
1B30
3330
3300
6300
6300
1E00
0000
ENDCHAR
STARTCHAR 0x242C
ENCODING 9260
SWIDTH 886 0
DWIDTH 12 0
BBX 12 13 0 -2
BITMAP
0000
1860
19B0
18C0
7E00
1B60
1B60
3330
3330
6300
6300
1E00
0000
ENDCHAR
STARTCHAR 0x242D
ENCODING 9261
SWIDTH 886 0
DWIDTH 12 0
BBX 12 13 0 -2
BITMAP
0000
0600
06C0
7F00
03E0
7F00
0180
1F40
31C0
3000
1800
0F80
0000
ENDCHAR
STARTCHAR 0x242E
ENCODING 9262
SWIDTH 886 0
DWIDTH 12 0
BBX 12 13 0 -2
BITMAP
0060
06B0
06C0
7F00
03E0
7F00
0180
1F40
31C0
3000
1800
0F80
0000
ENDCHAR
STARTCHAR 0x242F
ENCODING 9263
SWIDTH 886 0
DWIDTH 12 0
BBX 12 13 0 -2
BITMAP
0000
0000
0180
0300
0600
0C00
1800
1800
0E00
0300
0180
00C0
0000
ENDCHAR
STARTCHAR 0x2430
ENCODING 9264
SWIDTH 886 0
DWIDTH 12 0
BBX 12 13 0 -2
BITMAP
0000
0000
0300
0660
0DB0
18C0
3000
3000
1C00
0600
0300
0180
0000
ENDCHAR
STARTCHAR 0x2431
ENCODING 9265
SWIDTH 886 0
DWIDTH 12 0
BBX 12 13 0 -2
BITMAP
0000
00C0
30C0
30C0
6FF0
60C0
60C0
60C0
60C0
60C0
3180
3700
0000
ENDCHAR
STARTCHAR 0x2432
ENCODING 9266
SWIDTH 886 0
DWIDTH 12 0
BBX 12 13 0 -2
BITMAP
0000
01A0
61B0
61C0
DFA0
C180
C180
C180
C180
C180
6300
6E00
0000
ENDCHAR
STARTCHAR 0x2433
ENCODING 9267
SWIDTH 886 0
DWIDTH 12 0
BBX 12 13 0 -2
BITMAP
0000
0000
1FC0
0000
0000
0000
0000
1800
3000
3060
1FC0
0000
0000
ENDCHAR
STARTCHAR 0x2434
ENCODING 9268
SWIDTH 886 0
DWIDTH 12 0
BBX 12 13 0 -2
BITMAP
0000
0000
3FA0
0030
00C0
0060
0000
3000
6000
60C0
3F80
0000
0000
ENDCHAR
STARTCHAR 0x2435
ENCODING 9269
SWIDTH 886 0
DWIDTH 12 0
BBX 12 13 0 -2
BITMAP
0000
0300
0300
0360
7F80
0180
0180
1F40
31C0
3000
1800
0F80
0000
ENDCHAR
STARTCHAR 0x2436
ENCODING 9270
SWIDTH 886 0
DWIDTH 12 0
BBX 12 13 0 -2
BITMAP
0000
0C60
0DB0
0F40
FC00
0600
0300
3E80
6380
6000
3000
1F00
0000
ENDCHAR
STARTCHAR 0x2437
ENCODING 9271
SWIDTH 886 0
DWIDTH 12 0
BBX 12 13 0 -2
BITMAP
0000
0000
0C00
0C00
0C00
1800
1800
1800
1860
1860
0CC0
0780
0000
ENDCHAR
STARTCHAR 0x2438
ENCODING 9272
SWIDTH 886 0
DWIDTH 12 0
BBX 12 13 0 -2
BITMAP
0000
0000
18C0
1B60
1980
3000
3000
3000
30C0
30C0
1980
0F00
0000
ENDCHAR
STARTCHAR 0x2439
ENCODING 9273
SWIDTH 886 0
DWIDTH 12 0
BBX 12 13 0 -2
BITMAP
0000
0300
0300
FFF0
0300
0F00
1B00
1B00
0F00
0300
0600
1C00
0000
ENDCHAR
STARTCHAR 0x243A
ENCODING 9274
SWIDTH 886 0
DWIDTH 12 0
BBX 12 13 0 -2
BITMAP
0000
0300
0300
FFF0
0300
0F60
1B30
1B40
0F60
0300
0600
1C00
0000
ENDCHAR
STARTCHAR 0x243B
ENCODING 9275
SWIDTH 886 0
DWIDTH 12 0
BBX 12 13 0 -2
BITMAP
0000
00C0
18C0
18C0
1BF0
7EC0
18C0
18C0
1BC0
1800
1800
0FE0
0000
ENDCHAR
STARTCHAR 0x243C
ENCODING 9276
SWIDTH 886 0
DWIDTH 12 0
BBX 12 13 0 -2
BITMAP
0000
0180
31A0
31B0
37C0
FDA0
3180
3180
3780
3000
3000
1FC0
0000
ENDCHAR
STARTCHAR 0x243D
ENCODING 9277
SWIDTH 886 0
DWIDTH 12 0
BBX 12 13 0 -2
BITMAP
0000
0000
1FC0
0180
0300
0600
7FF0
0600
0C00
0C00
0C00
07C0
0000
ENDCHAR
STARTCHAR 0x243E
ENCODING 9278
SWIDTH 886 0
DWIDTH 12 0
BBX 12 13 0 -2
BITMAP
0000
0000
3F60
03B0
06C0
0C00
FFE0
0C00
1800
1800
1800
0F80
0000
ENDCHAR
STARTCHAR 0x243F
ENCODING 9279
SWIDTH 886 0
DWIDTH 12 0
BBX 12 13 0 -2
BITMAP
0000
1800
1800
7FC0
1800
1BE0
1800
3300
3600
3600
63F0
6000
0000
ENDCHAR
STARTCHAR 0x2440
ENCODING 9280
SWIDTH 886 0
DWIDTH 12 0
BBX 12 13 0 -2
BITMAP
0060
19B0
18C0
7F80
1800
1BE0
1800
3300
3600
3600
63F0
6000
0000
ENDCHAR
STARTCHAR 0x2441
ENCODING 9281
SWIDTH 886 0
DWIDTH 12 0
BBX 12 13 0 -2
BITMAP
0000
0600
0600
7FF0
0C00
0C00
1B80
1CC0
0060
0060
00C0
0F80
0000
ENDCHAR
STARTCHAR 0x2442
ENCODING 9282
SWIDTH 886 0
DWIDTH 12 0
BBX 12 13 0 -2
BITMAP
0060
0DB0
0CC0
FF80
1800
1800
3700
3980
00C0
00C0
0180
1F00
0000
ENDCHAR
STARTCHAR 0x2443
ENCODING 9283
SWIDTH 886 0
DWIDTH 12 0
BBX 12 13 0 -2
BITMAP
0000
0000
0000
0000
0000
0000
0F00
3980
00C0
00C0
0180
0F00
0000
ENDCHAR
STARTCHAR 0x2444
ENCODING 9284
SWIDTH 886 0
DWIDTH 12 0
BBX 12 13 0 -2
BITMAP
0000
0000
0000
0F80
78C0
0060
0060
0060
00C0
0380
1E00
0000
0000
ENDCHAR
STARTCHAR 0x2445
ENCODING 9285
SWIDTH 886 0
DWIDTH 12 0
BBX 12 13 0 -2
BITMAP
0060
01B0
00C0
0F80
78C0
0060
0060
0060
00C0
0380
1E00
0000
0000
ENDCHAR
STARTCHAR 0x2446
ENCODING 9286
SWIDTH 886 0
DWIDTH 12 0
BBX 12 13 0 -2
BITMAP
0000
0000
0000
0FE0
FB00
0600
0C00
0C00
0C00
0C00
0600
03C0
0000
ENDCHAR
STARTCHAR 0x2447
ENCODING 9287
SWIDTH 886 0
DWIDTH 12 0
BBX 12 13 0 -2
BITMAP
0000
0000
0000
0FE0
FB00
0660
0DB0
0CC0
0C00
0C00
0600
03C0
0000
ENDCHAR
STARTCHAR 0x2448
ENCODING 9288
SWIDTH 886 0
DWIDTH 12 0
BBX 12 13 0 -2
BITMAP
0000
0C00
0C00
0C00
0600
07C0
0E00
1800
3000
3000
1800
0FC0
0000
ENDCHAR
STARTCHAR 0x2449
ENCODING 9289
SWIDTH 886 0
DWIDTH 12 0
BBX 12 13 0 -2
BITMAP
00C0
1B60
1980
1800
0C00
0F80
1C00
3000
6000
6000
3000
1F80
0000
ENDCHAR
STARTCHAR 0x244A
ENCODING 9290
SWIDTH 886 0
DWIDTH 12 0
BBX 12 13 0 -2
BITMAP
0000
0C00
0CE0
FF30
1800
18C0
30C0
30C0
67C0
6CE0
0CD0
0780
0000
ENDCHAR
STARTCHAR 0x244B
ENCODING 9291
SWIDTH 886 0
DWIDTH 12 0
BBX 12 13 0 -2
BITMAP
0000
0000
3000
33E0
6000
6000
6000
6300
6600
6600
33F0
3000
0000
ENDCHAR
STARTCHAR 0x244C
ENCODING 9292
SWIDTH 886 0
DWIDTH 12 0
BBX 12 13 0 -2
BITMAP
0000
0300
0300
3300
37C0
3B60
3330
6A30
6AD0
6D70
3B60
01D0
0000
ENDCHAR
STARTCHAR 0x244D
ENCODING 9293
SWIDTH 886 0
DWIDTH 12 0
BBX 12 13 0 -2
BITMAP
0000
1800
1800
1800
7BC0
1A60
1C30
1830
39D0
6B70
1B60
19D0
0000
ENDCHAR
STARTCHAR 0x244E
ENCODING 9294
SWIDTH 886 0
DWIDTH 12 0
BBX 12 13 0 -2
BITMAP
0000
0000
0000
0FC0
1A60
3630
6630
6C30
6C30
3860
01C0
0000
0000
ENDCHAR
STARTCHAR 0x244F
ENCODING 9295
SWIDTH 886 0
DWIDTH 12 0
BBX 12 13 0 -2
BITMAP
0000
00C0
30C0
30C0
6FF0
60C0
60C0
60C0
67C0
6CE0
34D0
3780
0000
ENDCHAR
STARTCHAR 0x2450
ENCODING 9296
SWIDTH 886 0
DWIDTH 12 0
BBX 12 13 0 -2
BITMAP
0000
01A0
61B0
61C0
DFA0
C180
C180
C180
CF80
D9C0
69A0
6F00
0000
ENDCHAR
STARTCHAR 0x2451
ENCODING 9297
SWIDTH 886 0
DWIDTH 12 0
BBX 12 13 0 -2
BITMAP
0000
00E0
61B0
61B0
DFE0
C180
C180
C180
CF80
D9C0
69A0
6F00
0000
ENDCHAR
STARTCHAR 0x2452
ENCODING 9298
SWIDTH 886 0
DWIDTH 12 0
BBX 12 13 0 -2
BITMAP
0000
0000
7D80
0D80
18C0
30E0
30D0
60C0
6180
6180
3300
1E00
0000
ENDCHAR
STARTCHAR 0x2453
ENCODING 9299
SWIDTH 886 0
DWIDTH 12 0
BBX 12 13 0 -2
BITMAP
0000
0060
7DB0
0CC0
1800
30C0
30E0
60D0
6180
6180
3300
1E00
0000
ENDCHAR
STARTCHAR 0x2454
ENCODING 9300
SWIDTH 886 0
DWIDTH 12 0
BBX 12 13 0 -2
BITMAP
0000
00E0
7DB0
0DB0
18E0
30D0
30C0
60C0
6180
6180
3300
1E00
0000
ENDCHAR
STARTCHAR 0x2455n
ENCODING 9301
SWIDTH 886 0
DWIDTH 12 0
BBX 12 13 0 -2
BITMAP
0000
0000
1F80
0180
0300
0600
3660
3660
3330
6330
6330
0E00
0000
ENDCHAR
STARTCHAR 0x2456
ENCODING 9302
SWIDTH 886 0
DWIDTH 12 0
BBX 12 13 0 -2
BITMAP
0000
0060
1FB0
01C0
0360
0600
3600
3660
3360
6330
6330
0E00
0000
ENDCHAR
STARTCHAR 0x2457
ENCODING 9303
SWIDTH 886 0
DWIDTH 12 0
BBX 12 13 0 -2
BITMAP
0000
00E0
1FB0
01B0
0360
0600
3600
3660
3360
6330
6330
0E00
0000
ENDCHAR
STARTCHAR 0x2458
ENCODING 9304
SWIDTH 886 0
DWIDTH 12 0
BBX 12 13 0 -2
BITMAP
0000
0000
0000
0000
0000
3C00
6600
C300
01C0
0070
0000
0000
0000
ENDCHAR
STARTCHAR 0x2459
ENCODING 9305
SWIDTH 886 0
DWIDTH 12 0
BBX 12 13 0 -2
BITMAP
0000
0000
00C0
0360
0180
3C00
6600
C300
01C0
0070
0000
0000
0000
ENDCHAR
STARTCHAR 0x245A
ENCODING 9306
SWIDTH 886 0
DWIDTH 12 0
BBX 12 13 0 -2
BITMAP
0000
0000
01C0
0360
0360
3DC0
6600
C300
01C0
0070
0000
0000
0000
ENDCHAR
STARTCHAR 0x245B
ENCODING 9307
SWIDTH 886 0
DWIDTH 12 0
BBX 12 13 0 -2
BITMAP
0000
0000
37F0
30C0
60C0
6FF0
60C0
60C0
67C0
6CE0
34D0
3780
0000
ENDCHAR
STARTCHAR 0x245C
ENCODING 9308
SWIDTH 886 0
DWIDTH 12 0
BBX 12 13 0 -2
BITMAP
0000
0060
6FB0
61C0
C180
DFE0
C180
C180
CF80
D9C0
69A0
6F00
0000
ENDCHAR
STARTCHAR 0x245D
ENCODING 9309
SWIDTH 886 0
DWIDTH 12 0
BBX 12 13 0 -2
BITMAP
0000
00E0
6FB0
61B0
C1E0
DF80
C180
C180
CF80
D9C0
69A0
6F00
0000
ENDCHAR
STARTCHAR 0x245E
ENCODING 9310
SWIDTH 886 0
DWIDTH 12 0
BBX 12 13 0 -2
BITMAP
0000
0300
0300
7FE0
0300
3FE0
0300
0300
1F00
33C0
3360
1E00
0000
ENDCHAR
STARTCHAR 0x245F
ENCODING 9311
SWIDTH 886 0
DWIDTH 12 0
BBX 12 13 0 -2
BITMAP
0000
0000
7E00
06C0
06C0
06C0
3FC0
6CE0
CCD0
D8C0
7180
0700
0000
ENDCHAR
STARTCHAR 0x2460
ENCODING 9312
SWIDTH 886 0
DWIDTH 12 0
BBX 12 13 0 -2
BITMAP
0000
0C00
0C00
7F60
0C30
0C00
3C00
6C00
6C60
3C60
0C60
07C0
0000
ENDCHAR
STARTCHAR 0x2461
ENCODING 9313
SWIDTH 886 0
DWIDTH 12 0
BBX 12 13 0 -2
BITMAP
0000
0300
0300
3300
37C0
1B60
3B30
6A30
6E30
6C30
3860
01C0
0000
ENDCHAR
STARTCHAR 0x2462
ENCODING 9314
SWIDTH 886 0
DWIDTH 12 0
BBX 12 13 0 -2
BITMAP
0000
0C00
0C00
7FC0
0C00
0C00
7FC0
1800
1860
1860
0CC0
0780
0000
ENDCHAR
STARTCHAR 0x2463
ENCODING 9315
SWIDTH 886 0
DWIDTH 12 0
BBX 12 13 0 -2
BITMAP
0000
0000
0000
0000
0300
1B00
1B80
3D40
0CC0
0D80
0600
0600
0000
ENDCHAR
STARTCHAR 0x2464
ENCODING 9316
SWIDTH 886 0
DWIDTH 12 0
BBX 12 13 0 -2
BITMAP
0000
0180
1980
19E0
1BB0
1DB0
7430
06E0
0600
0600
0300
0300
0000
ENDCHAR
STARTCHAR 0x2465
ENCODING 9317
SWIDTH 886 0
DWIDTH 12 0
BBX 12 13 0 -2
BITMAP
0000
0000
0000
0000
0300
3300
37C0
35A0
39A0
1BC0
1980
0300
0000
ENDCHAR
STARTCHAR 0x2466
ENCODING 9318
SWIDTH 886 0
DWIDTH 12 0
BBX 12 13 0 -2
BITMAP
0000
0180
0180
67E0
6DB0
69B0
69B0
31B0
37E0
3180
0180
0700
0000
ENDCHAR
STARTCHAR 0x2467
ENCODING 9319
SWIDTH 886 0
DWIDTH 12 0
BBX 12 13 0 -2
BITMAP
0000
0000
0000
0000
0300
0300
03C0
0300
0F00
1B80
1B40
0E00
0000
ENDCHAR
STARTCHAR 0x2468
ENCODING 9320
SWIDTH 886 0
DWIDTH 12 0
BBX 12 13 0 -2
BITMAP
0000
0600
0600
0600
07C0
0600
0600
0600
3E00
6780
66C0
3C00
0000
ENDCHAR
STARTCHAR 0x2469
ENCODING 9321
SWIDTH 886 0
DWIDTH 12 0
BBX 12 13 0 -2
BITMAP
0000
0E00
0380
0000
3000
3000
3780
3CC0
0060
0060
01C0
0F00
0000
ENDCHAR
STARTCHAR 0x246A
ENCODING 9322
SWIDTH 886 0
DWIDTH 12 0
BBX 12 13 0 -2
BITMAP
0000
0000
18C0
18C0
18C0
18C0
18C0
1AC0
0CC0
00C0
0180
0700
0000
ENDCHAR
STARTCHAR 0x246B
ENCODING 9323
SWIDTH 886 0
DWIDTH 12 0
BBX 12 13 0 -2
BITMAP
0000
0000
1FC0
0180
0300
0780
1CC0
3060
0E60
1B60
1B40
0F80
0000
ENDCHAR
STARTCHAR 0x246C
ENCODING 9324
SWIDTH 886 0
DWIDTH 12 0
BBX 12 13 0 -2
BITMAP
0000
1800
1800
1800
7BC0
1A60
1C60
1860
38C0
68C0
18C0
1870
0000
ENDCHAR
STARTCHAR 0x246D
ENCODING 9325
SWIDTH 886 0
DWIDTH 12 0
BBX 12 13 0 -2
BITMAP
0000
0000
1FC0
0180
0300
0780
1CC0
3060
0060
0060
01C0
0F00
0000
ENDCHAR
STARTCHAR 0x246E
ENCODING 9326
SWIDTH 886 0
DWIDTH 12 0
BBX 12 13 0 -2
BITMAP
0000
0000
0000
0000
0C00
0C00
3D80
0EC0
0CC0
1CC0
34C0
0D80
0000
ENDCHAR
STARTCHAR 0x246F
ENCODING 9327
SWIDTH 886 0
DWIDTH 12 0
BBX 12 13 0 -2
BITMAP
0000
1800
1800
1800
7BC0
1A60
1C30
1830
3830
6830
1860
19C0
0000
ENDCHAR
STARTCHAR 0x2470
ENCODING 9328
SWIDTH 886 0
DWIDTH 12 0
BBX 12 13 0 -2
BITMAP
0000
0000
3F00
0300
03C0
1E60
3630
6630
6CF0
6DB0
39B0
00E0
0000
ENDCHAR
STARTCHAR 0x2471
ENCODING 9329
SWIDTH 886 0
DWIDTH 12 0
BBX 12 13 0 -2
BITMAP
0000
3FE0
0180
0300
0FC0
3860
0F60
19C0
1F80
0C00
3DE0
6730
0000
ENDCHAR
STARTCHAR 0x2472
ENCODING 9330
SWIDTH 886 0
DWIDTH 12 0
BBX 12 13 0 -2
BITMAP
0000
0C00
0C00
7FC0
1800
1E00
3360
6780
6D00
1B00
1800
0FC0
0000
ENDCHAR
STARTCHAR 0x2473
ENCODING 9331
SWIDTH 886 0
DWIDTH 12 0
BBX 12 13 0 -2
BITMAP
0000
0000
0600
0600
0C00
0C00
1B00
1D80
3180
31B0
61B0
60E0
0000
ENDCHAR
STARTCHAR 0x2474
ENCODING 9332
SWIDTH 886 0
DWIDTH 12 0
BBX 12 13 0 -2
BITMAP
00C0
3860
0E80
00C0
1E00
7300
0180
0180
0180
0300
0E00
3800
0000
ENDCHAR
STARTCHAR 0x2521
ENCODING 9505
SWIDTH 886 0
DWIDTH 12 0
BBX 12 13 0 -2
BITMAP
0000
0000
0000
0000
0000
3FC0
00C0
06C0
0680
0600
0C00
1800
0000
ENDCHAR
STARTCHAR 0x2522
ENCODING 9506
SWIDTH 886 0
DWIDTH 12 0
BBX 12 13 0 -2
BITMAP
0000
0000
7FF0
0030
0060
06C0
0600
0600
0600
0600
0C00
3800
0000
ENDCHAR
STARTCHAR 0x2523
ENCODING 9507
SWIDTH 886 0
DWIDTH 12 0
BBX 12 13 0 -2
BITMAP
0000
0000
0000
0000
0000
00C0
0180
0700
1D00
0300
0300
0300
0000
ENDCHAR
STARTCHAR 0x2524
ENCODING 9508
SWIDTH 886 0
DWIDTH 12 0
BBX 12 13 0 -2
BITMAP
0000
0000
0060
00C0
0180
0700
1D00
7300
0300
0300
0300
0300
0000
ENDCHAR
STARTCHAR 0x2525
ENCODING 9509
SWIDTH 886 0
DWIDTH 12 0
BBX 12 13 0 -2
BITMAP
0000
0000
0000
0000
0600
0600
3FC0
30C0
30C0
00C0
0180
0F00
0000
ENDCHAR
STARTCHAR 0x2526
ENCODING 9510
SWIDTH 886 0
DWIDTH 12 0
BBX 12 13 0 -2
BITMAP
0000
0600
0600
7FE0
6060
6060
6060
00C0
00C0
0180
0700
1C00
0000
ENDCHAR
STARTCHAR 0x2527
ENCODING 9511
SWIDTH 886 0
DWIDTH 12 0
BBX 12 13 0 -2
BITMAP
0000
0000
0000
0000
0000
3FC0
0600
0600
0600
0600
3FC0
0000
0000
ENDCHAR
STARTCHAR 0x2528
ENCODING 9512
SWIDTH 886 0
DWIDTH 12 0
BBX 12 13 0 -2
BITMAP
0000
0000
0000
7FE0
0600
0600
0600
0600
0600
0600
FFF0
0000
0000
ENDCHAR
STARTCHAR 0x2529
ENCODING 9513
SWIDTH 886 0
DWIDTH 12 0
BBX 12 13 0 -2
BITMAP
0000
0000
0000
0000
0300
0300
3FC0
0300
0700
0D00
3B00
0700
0000
ENDCHAR
STARTCHAR 0x252A
ENCODING 9514
SWIDTH 886 0
DWIDTH 12 0
BBX 12 13 0 -2
BITMAP
0000
0180
0180
0180
7FF0
0180
0380
0680
1D80
7180
0180
0780
0000
ENDCHAR
STARTCHAR 0x252B
ENCODING 9515
SWIDTH 886 0
DWIDTH 12 0
BBX 12 13 0 -2
BITMAP
0000
0600
0600
0600
7FF0
0630
0630
0630
0C30
0C30
1830
71E0
0000
ENDCHAR
STARTCHAR 0x252C
ENCODING 9516
SWIDTH 886 0
DWIDTH 12 0
BBX 12 13 0 -2
BITMAP
0060
0DB0
0CC0
0C00
FFE0
0C60
0C60
0C60
1860
1860
3060
E3C0
0000
ENDCHAR
STARTCHAR 0x252D
ENCODING 9517
SWIDTH 886 0
DWIDTH 12 0
BBX 12 13 0 -2
BITMAP
0000
0600
0600
0600
7FE0
0600
0600
0600
7FF0
0300
0300
0300
0000
ENDCHAR
STARTCHAR 0x252E
ENCODING 9518
SWIDTH 886 0
DWIDTH 12 0
BBX 12 13 0 -2
BITMAP
0000
0C60
0DB0
0CC0
FF80
0C00
0C00
0C00
FFE0
0600
0600
0600
0000
ENDCHAR
STARTCHAR 0x252F
ENCODING 9519
SWIDTH 886 0
DWIDTH 12 0
BBX 12 13 0 -2
BITMAP
0000
0600
0600
07E0
0C60
1860
3060
00C0
00C0
0180
0700
3C00
0000
ENDCHAR
STARTCHAR 0x2530
ENCODING 9520
SWIDTH 886 0
DWIDTH 12 0
BBX 12 13 0 -2
BITMAP
0060
0DB0
0CC0
0FC0
18C0
30C0
60C0
0180
0180
0300
0E00
7800
0000
ENDCHAR
STARTCHAR 0x2531
ENCODING 9521
SWIDTH 886 0
DWIDTH 12 0
BBX 12 13 0 -2
BITMAP
0000
1800
1800
1800
1FF0
3180
6180
0180
0300
0300
0E00
3800
0000
ENDCHAR
STARTCHAR 0x2532
ENCODING 9522
SWIDTH 886 0
DWIDTH 12 0
BBX 12 13 0 -2
BITMAP
0060
31B0
30C0
3000
3FE0
6300
C300
0300
0600
0600
1C00
7000
0000
ENDCHAR
STARTCHAR 0x2533
ENCODING 9523
SWIDTH 886 0
DWIDTH 12 0
BBX 12 13 0 -2
BITMAP
0000
0000
0000
7FE0
0060
0060
0060
0060
0060
0060
7FE0
0060
0000
ENDCHAR
STARTCHAR 0x2534
ENCODING 9524
SWIDTH 886 0
DWIDTH 12 0
BBX 12 13 0 -2
BITMAP
0060
0330
0180
7FE0
0060
0060
0060
0060
0060
0060
7FE0
0060
0000
ENDCHAR
STARTCHAR 0x2535
ENCODING 9525
SWIDTH 886 0
DWIDTH 12 0
BBX 12 13 0 -2
BITMAP
0000
18C0
18C0
18C0
7FF0
18C0
18C0
18C0
0180
0180
0700
1C00
0000
ENDCHAR
STARTCHAR 0x2536
ENCODING 9526
SWIDTH 886 0
DWIDTH 12 0
BBX 12 13 0 -2
BITMAP
0000
31A0
31B0
31C0
FFA0
3180
3180
3180
0300
0300
0E00
3800
0000
ENDCHAR
STARTCHAR 0x2537
ENCODING 9527
SWIDTH 886 0
DWIDTH 12 0
BBX 12 13 0 -2
BITMAP
0000
0000
3800
0E00
0030
7030
1C60
0060
00C0
0180
0700
3C00
0000
ENDCHAR
STARTCHAR 0x2538
ENCODING 9528
SWIDTH 886 0
DWIDTH 12 0
BBX 12 13 0 -2
BITMAP
0060
01B0
38C0
0E00
0030
7030
1C60
0060
00C0
0180
0700
3C00
0000
ENDCHAR
STARTCHAR 0x2539
ENCODING 9529
SWIDTH 886 0
DWIDTH 12 0
BBX 12 13 0 -2
BITMAP
0000
0000
3FC0
00C0
00C0
00C0
0180
0180
0380
06C0
1C60
7030
0000
ENDCHAR
STARTCHAR 0x253A
ENCODING 9530
SWIDTH 886 0
DWIDTH 12 0
BBX 12 13 0 -2
BITMAP
0360
01B0
7F80
0180
0180
0180
0300
0300
0700
0D80
38C0
E060
0000
ENDCHAR
STARTCHAR 0x253B
ENCODING 9531
SWIDTH 886 0
DWIDTH 12 0
BBX 12 13 0 -2
BITMAP
0000
0C00
0C00
0CF0
0DB0
1E60
F460
0CC0
0C00
0C00
0C00
07F0
0000
ENDCHAR
STARTCHAR 0x253C
ENCODING 9532
SWIDTH 886 0
DWIDTH 12 0
BBX 12 13 0 -2
BITMAP
0060
0DB0
0CC0
0CF0
0DB0
1E60
F460
0CC0
0C00
0C00
0C00
07F0
0000
ENDCHAR
STARTCHAR 0x253D
ENCODING 9533
SWIDTH 886 0
DWIDTH 12 0
BBX 12 13 0 -2
BITMAP
0000
0000
6060
6060
3060
3060
0060
00C0
00C0
0180
0700
1C00
0000
ENDCHAR
STARTCHAR 0x253E
ENCODING 9534
SWIDTH 886 0
DWIDTH 12 0
BBX 12 13 0 -2
BITMAP
0060
01B0
C0C0
C000
60C0
60C0
00C0
0180
0180
0300
0E00
3800
0000
ENDCHAR
STARTCHAR 0x253F
ENCODING 9535
SWIDTH 886 0
DWIDTH 12 0
BBX 12 13 0 -2
BITMAP
0000
0600
0600
07E0
0C60
1860
3760
01C0
00C0
0180
0700
3C00
0000
ENDCHAR
STARTCHAR 0x2540
ENCODING 9536
SWIDTH 886 0
DWIDTH 12 0
BBX 12 13 0 -2
BITMAP
0060
0DB0
0CC0
0FC0
18C0
30C0
6EC0
0380
0180
0300
0E00
7800
0000
ENDCHAR
STARTCHAR 0x2541
ENCODING 9537
SWIDTH 886 0
DWIDTH 12 0
BBX 12 13 0 -2
BITMAP
0000
0000
03E0
7E00
0600
0600
FFF0
0600
0600
0600
0C00
3800
0000
ENDCHAR
STARTCHAR 0x2542
ENCODING 9538
SWIDTH 886 0
DWIDTH 12 0
BBX 12 13 0 -2
BITMAP
0000
0060
03B0
7EC0
0600
0600
FFF0
0600
0600
0600
0C00
3800
0000
ENDCHAR
STARTCHAR 0x2543
ENCODING 9539
SWIDTH 886 0
DWIDTH 12 0
BBX 12 13 0 -2
BITMAP
0000
0000
0000
0000
0000
36C0
36C0
36C0
0180
0180
0700
1C00
0000
ENDCHAR
STARTCHAR 0x2544
ENCODING 9540
SWIDTH 886 0
DWIDTH 12 0
BBX 12 13 0 -2
BITMAP
0000
0000
6C60
6C60
3660
3660
0060
00C0
00C0
0180
0700
1C00
0000
ENDCHAR
STARTCHAR 0x2545
ENCODING 9541
SWIDTH 886 0
DWIDTH 12 0
BBX 12 13 0 -2
BITMAP
0060
01B0
D8C0
D800
6CC0
6CC0
00C0
0180
0180
0300
0E00
3800
0000
ENDCHAR
STARTCHAR 0x2546
ENCODING 9542
SWIDTH 886 0
DWIDTH 12 0
BBX 12 13 0 -2
BITMAP
0000
0000
3FE0
0000
0000
7FF0
0300
0300
0300
0300
0600
1C00
0000
ENDCHAR
STARTCHAR 0x2547
ENCODING 9543
SWIDTH 886 0
DWIDTH 12 0
BBX 12 13 0 -2
BITMAP
0060
01B0
7F40
0000
0000
FFE0
0600
0600
0600
0600
0C00
3800
0000
ENDCHAR
STARTCHAR 0x2548
ENCODING 9544
SWIDTH 886 0
DWIDTH 12 0
BBX 12 13 0 -2
BITMAP
0000
1800
1800
1800
1800
1E00
1B80
18E0
1800
1800
1800
1800
0000
ENDCHAR
STARTCHAR 0x2549
ENCODING 9545
SWIDTH 886 0
DWIDTH 12 0
BBX 12 13 0 -2
BITMAP
0000
30C0
3360
3180
3000
3C00
3700
31C0
3000
3000
3000
3000
0000
ENDCHAR
STARTCHAR 0x254A
ENCODING 9546
SWIDTH 886 0
DWIDTH 12 0
BBX 12 13 0 -2
BITMAP
0000
0300
0300
0300
7FF0
0300
0300
0300
0600
0600
0C00
3800
0000
ENDCHAR
STARTCHAR 0x254B
ENCODING 9547
SWIDTH 886 0
DWIDTH 12 0
BBX 12 13 0 -2
BITMAP
0000
0000
0000
3FE0
0000
0000
0000
0000
0000
0000
7FF0
0000
0000
ENDCHAR
STARTCHAR 0x254C
ENCODING 9548
SWIDTH 886 0
DWIDTH 12 0
BBX 12 13 0 -2
BITMAP
0000
0000
3FE0
0060
0060
0CC0
06C0
0380
0180
0340
0E60
7800
0000
ENDCHAR
STARTCHAR 0x254D
ENCODING 9549
SWIDTH 886 0
DWIDTH 12 0
BBX 12 13 0 -2
BITMAP
0000
0600
0600
7FC0
00C0
0180
0300
0700
1EC0
F670
0600
0600
0000
ENDCHAR
STARTCHAR 0x254E
ENCODING 9550
SWIDTH 886 0
DWIDTH 12 0
BBX 12 13 0 -2
BITMAP
0000
0000
00C0
00C0
00C0
00C0
00C0
0180
0180
0300
0E00
3800
0000
ENDCHAR
STARTCHAR 0x254F
ENCODING 9551
SWIDTH 886 0
DWIDTH 12 0
BBX 12 13 0 -2
BITMAP
0000
0000
1800
18C0
18C0
1860
3060
3060
3030
6030
6030
6030
0000
ENDCHAR
STARTCHAR 0x2550
ENCODING 9552
SWIDTH 886 0
DWIDTH 12 0
BBX 12 13 0 -2
BITMAP
0000
0060
01B0
18C0
1800
1800
18C0
30C0
3060
3060
6030
6030
0000
ENDCHAR
STARTCHAR 0x2551
ENCODING 9553
SWIDTH 886 0
DWIDTH 12 0
BBX 12 13 0 -2
BITMAP
0000
00E0
01B0
19B0
18E0
1800
18C0
30C0
3060
3060
6030
6030
0000
ENDCHAR
STARTCHAR 0x2552
ENCODING 9554
SWIDTH 886 0
DWIDTH 12 0
BBX 12 13 0 -2
BITMAP
0000
3000
3000
3000
31E0
3F00
3000
3000
3000
3000
3000
1FE0
0000
ENDCHAR
STARTCHAR 0x2553
ENCODING 9555
SWIDTH 886 0
DWIDTH 12 0
BBX 12 13 0 -2
BITMAP
0000
0060
31B0
30C0
3000
31E0
3F00
3000
3000
3000
3000
1FE0
0000
ENDCHAR
STARTCHAR 0x2554
ENCODING 9556
SWIDTH 886 0
DWIDTH 12 0
BBX 12 13 0 -2
BITMAP
0000
00E0
61B0
61B0
60E0
6700
7C00
6000
6000
6000
6000
3FC0
0000
ENDCHAR
STARTCHAR 0x2555
ENCODING 9557
SWIDTH 886 0
DWIDTH 12 0
BBX 12 13 0 -2
BITMAP
0000
0000
7FE0
0060
0060
0060
0060
00C0
00C0
0180
0700
3C00
0000
ENDCHAR
STARTCHAR 0x2556
ENCODING 9558
SWIDTH 886 0
DWIDTH 12 0
BBX 12 13 0 -2
BITMAP
0060
0330
0180
FFC0
00C0
00C0
00C0
0180
0180
0300
0E00
3800
0000
ENDCHAR
STARTCHAR 0x2557
ENCODING 9559
SWIDTH 886 0
DWIDTH 12 0
BBX 12 13 0 -2
BITMAP
00E0
01B0
FFB0
00E0
00C0
00C0
00C0
0180
0180
0300
0E00
3800
0000
ENDCHAR
STARTCHAR 0x2558
ENCODING 9560
SWIDTH 886 0
DWIDTH 12 0
BBX 12 13 0 -2
BITMAP
0000
0000
0000
0000
1E00
3300
6180
C0C0
0060
0030
0000
0000
0000
ENDCHAR
STARTCHAR 0x2559
ENCODING 9561
SWIDTH 886 0
DWIDTH 12 0
BBX 12 13 0 -2
BITMAP
0000
0060
01B0
00C0
0000
1E00
3300
6180
C0C0
0060
0030
0000
0000
ENDCHAR
STARTCHAR 0x255A
ENCODING 9562
SWIDTH 886 0
DWIDTH 12 0
BBX 12 13 0 -2
BITMAP
0000
00E0
01B0
01B0
00E0
1E00
3300
6180
C0C0
0060
0030
0000
0000
ENDCHAR
STARTCHAR 0x255B
ENCODING 9563
SWIDTH 886 0
DWIDTH 12 0
BBX 12 13 0 -2
BITMAP
0000
0600
0600
0600
FFF0
0600
0600
36C0
6660
C630
0600
0E00
0000
ENDCHAR
STARTCHAR 0x255C
ENCODING 9564
SWIDTH 886 0
DWIDTH 12 0
BBX 12 13 0 -2
BITMAP
0060
06B0
06C0
0600
FFF0
0600
0600
36C0
6660
C630
0600
0E00
0000
ENDCHAR
STARTCHAR 0x255D
ENCODING 9565
SWIDTH 886 0
DWIDTH 12 0
BBX 12 13 0 -2
BITMAP
0000
06E0
06B0
06B0
FFE0
0600
0600
36C0
6660
C630
0600
0E00
0000
ENDCHAR
STARTCHAR 0x255E
ENCODING 9566
SWIDTH 886 0
DWIDTH 12 0
BBX 12 13 0 -2
BITMAP
0000
0000
0000
7FF0
0030
0060
00C0
1980
0D00
0600
0300
0180
0000
ENDCHAR
STARTCHAR 0x255F
ENCODING 9567
SWIDTH 886 0
DWIDTH 12 0
BBX 12 13 0 -2
BITMAP
0000
0000
1E00
03C0
0000
0000
1E00
0380
0000
0000
3E00
03C0
0000
ENDCHAR
STARTCHAR 0x2560
ENCODING 9568
SWIDTH 886 0
DWIDTH 12 0
BBX 12 13 0 -2
BITMAP
0000
0C00
0C00
0C00
0C00
1800
18C0
18C0
30C0
37A0
FC60
0060
0000
ENDCHAR
STARTCHAR 0x2561
ENCODING 9569
SWIDTH 886 0
DWIDTH 12 0
BBX 12 13 0 -2
BITMAP
0000
0180
0180
0180
0180
3980
0F00
03C0
0370
0600
1C00
7000
0000
ENDCHAR
STARTCHAR 0x2562
ENCODING 9570
SWIDTH 886 0
DWIDTH 12 0
BBX 12 13 0 -2
BITMAP
0000
0000
7FC0
0C00
0C00
0C00
FFF0
0C00
0C00
0C00
0C00
07C0
0000
ENDCHAR
STARTCHAR 0x2563
ENCODING 9571
SWIDTH 886 0
DWIDTH 12 0
BBX 12 13 0 -2
BITMAP
0000
0000
0000
0000
0C00
0C00
0DC0
3EC0
0D80
0680
0600
0600
0000
ENDCHAR
STARTCHAR 0x2564
ENCODING 9572
SWIDTH 886 0
DWIDTH 12 0
BBX 12 13 0 -2
BITMAP
0000
1800
1800
19E0
1F60
F460
0CC0
0CC0
0C00
0600
0600
0600
0000
ENDCHAR
STARTCHAR 0x2565
ENCODING 9573
SWIDTH 886 0
DWIDTH 12 0
BBX 12 13 0 -2
BITMAP
0000
0000
0000
0000
0000
3F00
0300
0300
0300
0300
7FC0
0000
0000
ENDCHAR
STARTCHAR 0x2566
ENCODING 9574
SWIDTH 886 0
DWIDTH 12 0
BBX 12 13 0 -2
BITMAP
0000
0000
0000
3F80
0180
0180
0180
0180
0180
0180
FFF0
0000
0000
ENDCHAR
STARTCHAR 0x2567
ENCODING 9575
SWIDTH 886 0
DWIDTH 12 0
BBX 12 13 0 -2
BITMAP
0000
0000
0000
0000
0000
1FC0
00C0
00C0
1FC0
00C0
00C0
1FC0
0000
ENDCHAR
STARTCHAR 0x2568
ENCODING 9576
SWIDTH 886 0
DWIDTH 12 0
BBX 12 13 0 -2
BITMAP
0000
0000
3FE0
0060
0060
0060
3FE0
0060
0060
0060
3FE0
0060
0000
ENDCHAR
STARTCHAR 0x2569
ENCODING 9577
SWIDTH 886 0
DWIDTH 12 0
BBX 12 13 0 -2
BITMAP
0000
0000
3FC0
0000
0000
7FE0
0060
0060
00C0
0180
0700
1C00
0000
ENDCHAR
STARTCHAR 0x256A
ENCODING 9578
SWIDTH 886 0
DWIDTH 12 0
BBX 12 13 0 -2
BITMAP
0000
30C0
30C0
30C0
30C0
30C0
30C0
00C0
0180
0180
0300
0E00
0000
ENDCHAR
STARTCHAR 0x256B
ENCODING 9579
SWIDTH 886 0
DWIDTH 12 0
BBX 12 13 0 -2
BITMAP
0000
0300
1B00
1B00
1B00
1B00
1B30
1B30
3360
3360
6340
6380
0000
ENDCHAR
STARTCHAR 0x256C
ENCODING 9580
SWIDTH 886 0
DWIDTH 12 0
BBX 12 13 0 -2
BITMAP
0000
0000
3000
3000
3000
3000
3000
3060
30C0
3180
3700
3C00
0000
ENDCHAR
STARTCHAR 0x256D
ENCODING 9581
SWIDTH 886 0
DWIDTH 12 0
BBX 12 13 0 -2
BITMAP
0000
0000
0000
7FE0
6060
6060
6060
6060
6060
6060
7FE0
6060
0000
ENDCHAR
STARTCHAR 0x256E
ENCODING 9582
SWIDTH 886 0
DWIDTH 12 0
BBX 12 13 0 -2
BITMAP
0000
0000
0000
0000
0000
3FC0
30C0
30C0
00C0
00C0
0180
0F00
0000
ENDCHAR
STARTCHAR 0x256F
ENCODING 9583
SWIDTH 886 0
DWIDTH 12 0
BBX 12 13 0 -2
BITMAP
0000
0000
7FE0
6060
6060
6060
0060
00C0
00C0
0180
0700
1C00
0000
ENDCHAR
STARTCHAR 0x2570
ENCODING 9584
SWIDTH 886 0
DWIDTH 12 0
BBX 12 13 0 -2
BITMAP
0000
0180
0180
0180
3FE0
1980
1980
1980
7FF0
0180
0180
0180
0000
ENDCHAR
STARTCHAR 0x2571
ENCODING 9585
SWIDTH 886 0
DWIDTH 12 0
BBX 12 13 0 -2
BITMAP
0000
0000
0000
3FE0
00C0
0180
0700
0600
0600
0600
7FF0
0000
0000
ENDCHAR
STARTCHAR 0x2572
ENCODING 9586
SWIDTH 886 0
DWIDTH 12 0
BBX 12 13 0 -2
BITMAP
0000
0000
3FE0
0060
0060
3FE0
0060
00C0
00C0
0180
0700
1C00
0000
ENDCHAR
STARTCHAR 0x2573
ENCODING 9587
SWIDTH 886 0
DWIDTH 12 0
BBX 12 13 0 -2
BITMAP
0000
0000
3800
0E00
0030
0030
0060
0060
00C0
0180
0700
3C00
0000
ENDCHAR
STARTCHAR 0x2574
ENCODING 9588
SWIDTH 886 0
DWIDTH 12 0
BBX 12 13 0 -2
BITMAP
0060
06B0
06C0
7FE0
6060
6060
6060
00C0
00C0
0180
0700
1C00
0000
ENDCHAR
STARTCHAR 0x2575
ENCODING 9589
SWIDTH 886 0
DWIDTH 12 0
BBX 12 13 0 -2
BITMAP
0000
0000
0000
0000
0C00
0C00
3FC0
0CC0
0CC0
0CC0
18C0
1B80
0000
ENDCHAR
STARTCHAR 0x2576
ENCODING 9590
SWIDTH 886 0
DWIDTH 12 0
BBX 12 13 0 -2
BITMAP
0000
0000
0000
0000
1800
1800
1FC0
3300
3300
0300
0600
1C00
0000
ENDCHAR
STARTCHAR 0x2621
ENCODING 9761
SWIDTH 886 0
DWIDTH 12 0
BBX 12 13 0 -2
BITMAP
0000
1E00
0600
0D00
0D00
1980
1980
1F80
30C0
30C0
F9F0
0000
0000
ENDCHAR
STARTCHAR 0x2622
ENCODING 9762
SWIDTH 886 0
DWIDTH 12 0
BBX 12 13 0 -2
BITMAP
0000
7F80
18C0
18C0
18C0
1F80
18C0
1860
1860
18C0
7F80
0000
0000
ENDCHAR
STARTCHAR 0x2623
ENCODING 9763
SWIDTH 886 0
DWIDTH 12 0
BBX 12 13 0 -2
BITMAP
0000
3FE0
0C60
0C60
0C00
0C00
0C00
0C00
0C00
0C00
3F00
0000
0000
ENDCHAR
STARTCHAR 0x2624
ENCODING 9764
SWIDTH 886 0
DWIDTH 12 0
BBX 12 13 0 -2
BITMAP
0000
0600
0600
0D00
0D00
1980
1980
30C0
30C0
6060
7FE0
0000
0000
ENDCHAR
STARTCHAR 0x2625
ENCODING 9765
SWIDTH 886 0
DWIDTH 12 0
BBX 12 13 0 -2
BITMAP
0000
3FE0
0C60
0C00
0D80
0F80
0D80
0C00
0C60
0C60
3FE0
0000
0000
ENDCHAR
STARTCHAR 0x2626
ENCODING 9766
SWIDTH 886 0
DWIDTH 12 0
BBX 12 13 0 -2
BITMAP
0000
3FC0
30C0
3180
0300
0600
0C00
1800
30C0
30C0
3FC0
0000
0000
ENDCHAR
STARTCHAR 0x2627
ENCODING 9767
SWIDTH 886 0
DWIDTH 12 0
BBX 12 13 0 -2
BITMAP
0000
7DF0
18C0
18C0
18C0
1FC0
18C0
18C0
18C0
18C0
7DF0
0000
0000
ENDCHAR
STARTCHAR 0x2628
ENCODING 9768
SWIDTH 886 0
DWIDTH 12 0
BBX 12 13 0 -2
BITMAP
0000
1FC0
3060
6030
68D0
6FD0
68D0
6030
6030
3060
1FC0
0000
0000
ENDCHAR
STARTCHAR 0x2629
ENCODING 9769
SWIDTH 886 0
DWIDTH 12 0
BBX 12 13 0 -2
BITMAP
0000
1F80
0600
0600
0600
0600
0600
0600
0600
0600
1F80
0000
0000
ENDCHAR
STARTCHAR 0x262A
ENCODING 9770
SWIDTH 886 0
DWIDTH 12 0
BBX 12 13 0 -2
BITMAP
0000
7DF0
18C0
1980
1B00
1A00
1E00
1B00
1980
18C0
7DF0
0000
0000
ENDCHAR
STARTCHAR 0x262B
ENCODING 9771
SWIDTH 886 0
DWIDTH 12 0
BBX 12 13 0 -2
BITMAP
0000
1E00
0600
0D00
0D00
1980
1980
1980
30C0
30C0
F9F0
0000
0000
ENDCHAR
STARTCHAR 0x262C
ENCODING 9772
SWIDTH 886 0
DWIDTH 12 0
BBX 12 13 0 -2
BITMAP
0000
F9F0
39C0
39C0
3540
3540
3540
36C0
36C0
36C0
F9F0
0000
0000
ENDCHAR
STARTCHAR 0x262D
ENCODING 9773
SWIDTH 886 0
DWIDTH 12 0
BBX 12 13 0 -2
BITMAP
0000
7DF0
1CC0
1AC0
1AC0
1B40
1B40
19C0
19C0
18C0
7CC0
0000
0000
ENDCHAR
STARTCHAR 0x262E
ENCODING 9774
SWIDTH 886 0
DWIDTH 12 0
BBX 12 13 0 -2
BITMAP
0000
1FF0
3060
0000
18C0
1F80
3180
0000
60C0
C180
FF80
0000
0000
ENDCHAR
STARTCHAR 0x262F
ENCODING 9775
SWIDTH 886 0
DWIDTH 12 0
BBX 12 13 0 -2
BITMAP
0000
1F80
30C0
6060
6060
6060
6060
6060
6060
30C0
1F80
0000
0000
ENDCHAR
STARTCHAR 0x2630
ENCODING 9776
SWIDTH 886 0
DWIDTH 12 0
BBX 12 13 0 -2
BITMAP
0000
3FE0
18C0
18C0
18C0
18C0
18C0
18C0
18C0
18C0
7DF0
0000
0000
ENDCHAR
STARTCHAR 0x2631
ENCODING 9777
SWIDTH 886 0
DWIDTH 12 0
BBX 12 13 0 -2
BITMAP
0000
7F80
18C0
1860
1860
18C0
1F80
1800
1800
1800
7C00
0000
0000
ENDCHAR
STARTCHAR 0x2632
ENCODING 9778
SWIDTH 886 0
DWIDTH 12 0
BBX 12 13 0 -2
BITMAP
00C0
3FC0
18C0
0CC0
0600
0300
0600
0C00
18C0
30C0
3FC0
00C0
0000
ENDCHAR
STARTCHAR 0x2633
ENCODING 9779
SWIDTH 886 0
DWIDTH 12 0
BBX 12 13 0 -2
BITMAP
0000
7FE0
6660
6660
0600
0600
0600
0600
0600
0600
1F80
0000
0000
ENDCHAR
STARTCHAR 0x2634
ENCODING 9780
SWIDTH 886 0
DWIDTH 12 0
BBX 12 13 0 -2
BITMAP
0000
39C0
6D60
C630
0600
0600
0600
0600
0600
0600
1F80
0000
0000
ENDCHAR
STARTCHAR 0x2635
ENCODING 9781
SWIDTH 886 0
DWIDTH 12 0
BBX 12 13 0 -2
BITMAP
0000
1F80
0600
1F80
36C0
6660
6660
36C0
1F80
0600
1F80
0000
0000
ENDCHAR
STARTCHAR 0x2636
ENCODING 9782
SWIDTH 886 0
DWIDTH 12 0
BBX 12 13 0 -2
BITMAP
0000
7DE0
1980
1980
0D00
0600
0600
0D00
1980
1980
7DE0
0000
0000
ENDCHAR
STARTCHAR 0x2637
ENCODING 9783
SWIDTH 886 0
DWIDTH 12 0
BBX 12 13 0 -2
BITMAP
0000
1F80
0600
6660
D6D0
36C0
36C0
1F80
0600
0600
1F80
0000
0000
ENDCHAR
STARTCHAR 0x2638
ENCODING 9784
SWIDTH 886 0
DWIDTH 12 0
BBX 12 13 0 -2
BITMAP
0000
0F80
18C0
3060
3060
3060
3060
18C0
0D80
35A0
3DE0
0000
0000
ENDCHAR
STARTCHAR 0x2641
ENCODING 9793
SWIDTH 886 0
DWIDTH 12 0
BBX 12 13 0 -2
BITMAP
0000
0000
0000
0000
0E60
3B40
3180
6180
6300
6700
3DC0
0000
0000
ENDCHAR
STARTCHAR 0x2642
ENCODING 9794
SWIDTH 886 0
DWIDTH 12 0
BBX 12 13 0 -2
BITMAP
0000
0380
06C0
0CC0
0D40
1980
18C0
18C0
34C0
3780
3000
3000
0000
ENDCHAR
STARTCHAR 0x2643
ENCODING 9795
SWIDTH 886 0
DWIDTH 12 0
BBX 12 13 0 -2
BITMAP
0000
0000
0000
0000
39C0
0D60
0600
0600
0C00
0C00
1800
1800
0000
ENDCHAR
STARTCHAR 0x2644
ENCODING 9796
SWIDTH 886 0
DWIDTH 12 0
BBX 12 13 0 -2
BITMAP
0000
0700
0DC0
0C00
0600
0D00
1980
3180
3180
3300
1E00
0000
0000
ENDCHAR
STARTCHAR 0x2645
ENCODING 9797
SWIDTH 886 0
DWIDTH 12 0
BBX 12 13 0 -2
BITMAP
0000
0000
0000
07C0
0C60
0C00
0780
0E00
1800
18C0
0F80
0000
0000
ENDCHAR
STARTCHAR 0x2646
ENCODING 9798
SWIDTH 886 0
DWIDTH 12 0
BBX 12 13 0 -2
BITMAP
0000
0C00
19C0
1B00
0C00
1800
3000
3000
1C00
0700
0180
0F00
0000
ENDCHAR
STARTCHAR 0x2647
ENCODING 9799
SWIDTH 886 0
DWIDTH 12 0
BBX 12 13 0 -2
BITMAP
0000
0000
0000
3B80
0EC0
0CC0
18C0
1980
3180
3300
0300
0000
0000
ENDCHAR
STARTCHAR 0x2648
ENCODING 9800
SWIDTH 886 0
DWIDTH 12 0
BBX 12 13 0 -2
BITMAP
0000
0380
06C0
0CC0
0CC0
18C0
1FC0
18C0
1980
1980
1B00
0E00
0000
ENDCHAR
STARTCHAR 0x2649
ENCODING 9801
SWIDTH 886 0
DWIDTH 12 0
BBX 12 13 0 -2
BITMAP
0000
0000
0000
0C00
0C00
0C00
1800
18C0
30C0
3180
1F00
0000
0000
ENDCHAR
STARTCHAR 0x264A
ENCODING 9802
SWIDTH 886 0
DWIDTH 12 0
BBX 12 13 0 -2
BITMAP
0000
0000
0000
18E0
0D80
0D00
0E00
1A00
1B00
3340
3180
0000
0000
ENDCHAR
STARTCHAR 0x264B
ENCODING 9803
SWIDTH 886 0
DWIDTH 12 0
BBX 12 13 0 -2
BITMAP
0000
1E00
0300
0300
0300
0F00
1B00
3300
3180
6180
60E0
0000
0000
ENDCHAR
STARTCHAR 0x264C
ENCODING 9804
SWIDTH 886 0
DWIDTH 12 0
BBX 12 13 0 -2
BITMAP
0000
0000
0000
0060
0C60
0CC0
0CC0
1980
1B80
1E80
30E0
3000
0000
ENDCHAR
STARTCHAR 0x264D
ENCODING 9805
SWIDTH 886 0
DWIDTH 12 0
BBX 12 13 0 -2
BITMAP
0000
0000
0000
0060
3860
0CC0
0CC0
0D80
1980
1B00
1E00
0000
0000
ENDCHAR
STARTCHAR 0x264E
ENCODING 9806
SWIDTH 886 0
DWIDTH 12 0
BBX 12 13 0 -2
BITMAP
0000
07C0
0C00
0FC0
1800
1FC0
3000
3000
1F00
0180
0180
0F00
0000
ENDCHAR
STARTCHAR 0x264F
ENCODING 9807
SWIDTH 886 0
DWIDTH 12 0
BBX 12 13 0 -2
BITMAP
0000
0000
0000
0780
1CC0
18C0
30C0
30C0
3180
3380
1E00
0000
0000
ENDCHAR
STARTCHAR 0x2650
ENCODING 9808
SWIDTH 886 0
DWIDTH 12 0
BBX 12 13 0 -2
BITMAP
0000
0000
0000
0060
3FC0
0D80
0D80
1B00
1B60
3660
63C0
0000
0000
ENDCHAR
STARTCHAR 0x2651
ENCODING 9809
SWIDTH 886 0
DWIDTH 12 0
BBX 12 13 0 -2
BITMAP
0000
0000
0000
03C0
0E60
0C60
1860
18C0
39C0
3700
3000
3000
0000
ENDCHAR
STARTCHAR 0x2652
ENCODING 9810
SWIDTH 886 0
DWIDTH 12 0
BBX 12 13 0 -2
BITMAP
0000
0000
0030
0FE0
3980
3180
6180
6180
6300
6700
3C00
0000
0000
ENDCHAR
STARTCHAR 0x2653
ENCODING 9811
SWIDTH 886 0
DWIDTH 12 0
BBX 12 13 0 -2
BITMAP
0000
0000
0000
0060
3FC0
0600
0600
0C00
0C60
0CC0
0780
0000
0000
ENDCHAR
STARTCHAR 0x2654
ENCODING 9812
SWIDTH 886 0
DWIDTH 12 0
BBX 12 13 0 -2
BITMAP
0000
0000
0000
0CC0
0C60
0C60
18C0
18C0
3180
3300
1E00
0000
0000
ENDCHAR
STARTCHAR 0x2655
ENCODING 9813
SWIDTH 886 0
DWIDTH 12 0
BBX 12 13 0 -2
BITMAP
0000
0300
0300
0F80
1AC0
36C0
36C0
36C0
3680
1F00
0C00
0C00
0000
ENDCHAR
STARTCHAR 0x2656
ENCODING 9814
SWIDTH 886 0
DWIDTH 12 0
BBX 12 13 0 -2
BITMAP
0000
0000
0000
0E60
1B40
0380
0300
0300
0700
0D30
1B60
31C0
0000
ENDCHAR
STARTCHAR 0x2657
ENCODING 9815
SWIDTH 886 0
DWIDTH 12 0
BBX 12 13 0 -2
BITMAP
0000
0180
0180
0300
7330
1B60
1A60
36C0
36C0
1F80
0C00
0C00
0000
ENDCHAR
STARTCHAR 0x2658
ENCODING 9816
SWIDTH 886 0
DWIDTH 12 0
BBX 12 13 0 -2
BITMAP
0000
0000
0000
0000
0000
1860
3060
3660
3660
36C0
1D80
0000
0000
ENDCHAR
STARTCHAR 0x2721
ENCODING 10017
SWIDTH 886 0
DWIDTH 12 0
BBX 12 13 0 -2
BITMAP
0000
1E00
0600
0D00
0D00
1980
1980
1F80
30C0
30C0
F9F0
0000
0000
ENDCHAR
STARTCHAR 0x2722
ENCODING 10018
SWIDTH 886 0
DWIDTH 12 0
BBX 12 13 0 -2
BITMAP
0000
7F80
18C0
1860
1800
1F80
18C0
1860
1860
18C0
7F80
0000
0000
ENDCHAR
STARTCHAR 0x2723
ENCODING 10019
SWIDTH 886 0
DWIDTH 12 0
BBX 12 13 0 -2
BITMAP
0000
7F80
18C0
18C0
18C0
1F80
18C0
1860
1860
18C0
7F80
0000
0000
ENDCHAR
STARTCHAR 0x2724
ENCODING 10020
SWIDTH 886 0
DWIDTH 12 0
BBX 12 13 0 -2
BITMAP
0000
3FE0
0C60
0C60
0C00
0C00
0C00
0C00
0C00
0C00
3E00
0000
0000
ENDCHAR
STARTCHAR 0x2725
ENCODING 10021
SWIDTH 886 0
DWIDTH 12 0
BBX 12 13 0 -2
BITMAP
0000
3FE0
0CC0
0CC0
0CC0
0CC0
0CC0
18C0
18C0
3FC0
3060
6030
0000
ENDCHAR
STARTCHAR 0x2726
ENCODING 10022
SWIDTH 886 0
DWIDTH 12 0
BBX 12 13 0 -2
BITMAP
0000
7F80
1980
18C0
1B00
1F00
1B00
1800
1860
18C0
7FC0
0000
0000
ENDCHAR
STARTCHAR 0x2727
ENCODING 10023
SWIDTH 886 0
DWIDTH 12 0
BBX 12 13 0 -2
BITMAP
39C0
0000
7FC0
18C0
1860
1B00
1F00
1B00
1830
1860
7FE0
0000
0000
ENDCHAR
STARTCHAR 0x2728
ENCODING 10024
SWIDTH 886 0
DWIDTH 12 0
BBX 12 13 0 -2
BITMAP
0000
1F80
6660
D6D0
36C0
1F80
1A80
36C0
36C0
6660
EFB0
0000
0000
ENDCHAR
STARTCHAR 0x2729
ENCODING 10025
SWIDTH 886 0
DWIDTH 12 0
BBX 12 13 0 -2
BITMAP
0000
3780
38C0
3060
00C0
0380
00C0
0060
3060
38C0
3780
0000
0000
ENDCHAR
STARTCHAR 0x272A
ENCODING 10026
SWIDTH 886 0
DWIDTH 12 0
BBX 12 13 0 -2
BITMAP
0000
7DF0
19C0
1B40
1B40
1AC0
1AC0
1CC0
1CC0
18C0
79F0
0000
0000
ENDCHAR
STARTCHAR 0x272B
ENCODING 10027
SWIDTH 886 0
DWIDTH 12 0
BBX 12 13 0 -2
BITMAP
0D80
0700
78F0
19C0
19C0
1B40
1B40
1AC0
1AC0
1CC0
7DF0
0000
0000
ENDCHAR
STARTCHAR 0x272C
ENCODING 10028
SWIDTH 886 0
DWIDTH 12 0
BBX 12 13 0 -2
BITMAP
0000
7CE0
19B0
1980
1B00
1A00
1E00
1B00
1980
18C0
7DF0
0000
0000
ENDCHAR
STARTCHAR 0x272D
ENCODING 10029
SWIDTH 886 0
DWIDTH 12 0
BBX 12 13 0 -2
BITMAP
0000
1FF0
06C0
06C0
06C0
06C0
06C0
66C0
66C0
6CC0
39F0
0000
0000
ENDCHAR
STARTCHAR 0x272E
ENCODING 10030
SWIDTH 886 0
DWIDTH 12 0
BBX 12 13 0 -2
BITMAP
0000
79E0
1980
1980
3540
3540
3540
36C0
36C0
36C0
F9F0
0000
0000
ENDCHAR
STARTCHAR 0x272F
ENCODING 10031
SWIDTH 886 0
DWIDTH 12 0
BBX 12 13 0 -2
BITMAP
0000
7DF0
18C0
18C0
18C0
1FC0
18C0
18C0
18C0
18C0
7DF0
0000
0000
ENDCHAR
STARTCHAR 0x2730
ENCODING 10032
SWIDTH 886 0
DWIDTH 12 0
BBX 12 13 0 -2
BITMAP
0000
1F80
30C0
6060
6060
6060
6060
6060
6060
30C0
1F80
0000
0000
ENDCHAR
STARTCHAR 0x2731
ENCODING 10033
SWIDTH 886 0
DWIDTH 12 0
BBX 12 13 0 -2
BITMAP
0000
3FE0
18C0
18C0
18C0
18C0
18C0
18C0
18C0
18C0
7DF0
0000
0000
ENDCHAR
STARTCHAR 0x2732
ENCODING 10034
SWIDTH 886 0
DWIDTH 12 0
BBX 12 13 0 -2
BITMAP
0000
7F80
18C0
1860
1860
18C0
1F80
1800
1800
1800
7C00
0000
0000
ENDCHAR
STARTCHAR 0x2733
ENCODING 10035
SWIDTH 886 0
DWIDTH 12 0
BBX 12 13 0 -2
BITMAP
0000
0FA0
18E0
3060
3000
3000
3000
3000
3060
18E0
0F80
0000
0000
ENDCHAR
STARTCHAR 0x2734
ENCODING 10036
SWIDTH 886 0
DWIDTH 12 0
BBX 12 13 0 -2
BITMAP
0000
7FE0
6660
6660
C630
0600
0600
0600
0600
0600
1F80
0000
0000
ENDCHAR
STARTCHAR 0x2735
ENCODING 10037
SWIDTH 886 0
DWIDTH 12 0
BBX 12 13 0 -2
BITMAP
0000
7DF0
18C0
18C0
0D80
0D80
0D00
0D00
0600
6600
6C00
3800
0000
ENDCHAR
STARTCHAR 0x2736
ENCODING 10038
SWIDTH 886 0
DWIDTH 12 0
BBX 12 13 0 -2
BITMAP
0000
1F80
0600
1F80
36C0
6660
6660
36C0
1F80
0600
1F80
0000
0000
ENDCHAR
STARTCHAR 0x2737
ENCODING 10039
SWIDTH 886 0
DWIDTH 12 0
BBX 12 13 0 -2
BITMAP
0000
7DE0
1980
1980
0D00
0600
0600
0D00
1980
1980
7DE0
0000
0000
ENDCHAR
STARTCHAR 0x2738
ENCODING 10040
SWIDTH 886 0
DWIDTH 12 0
BBX 12 13 0 -2
BITMAP
0000
7DE0
1980
1980
1980
1980
1980
1980
1980
1980
7FE0
0030
0000
ENDCHAR
STARTCHAR 0x2739
ENCODING 10041
SWIDTH 886 0
DWIDTH 12 0
BBX 12 13 0 -2
BITMAP
0000
7DF0
18C0
18C0
18C0
18C0
19C0
0F40
00C0
00C0
01F0
0000
0000
ENDCHAR
STARTCHAR 0x273A
ENCODING 10042
SWIDTH 886 0
DWIDTH 12 0
BBX 12 13 0 -2
BITMAP
0000
F770
36C0
36C0
36C0
36C0
36C0
36C0
36C0
36C0
FFF0
0000
0000
ENDCHAR
STARTCHAR 0x273B
ENCODING 10043
SWIDTH 886 0
DWIDTH 12 0
BBX 12 13 0 -2
BITMAP
0000
F770
36C0
36C0
36C0
36C0
36C0
36C0
36C0
36C0
FFF0
0010
0000
ENDCHAR
STARTCHAR 0x273C
ENCODING 10044
SWIDTH 886 0
DWIDTH 12 0
BBX 12 13 0 -2
BITMAP
0000
7F00
6C00
6C00
0C00
0FC0
0C60
0C30
0C30
0C60
3FC0
0000
0000
ENDCHAR
STARTCHAR 0x273D
ENCODING 10045
SWIDTH 886 0
DWIDTH 12 0
BBX 12 13 0 -2
BITMAP
0000
FDF0
30C0
30C0
30C0
3EC0
3340
3340
3340
3340
FEF0
0000
0000
ENDCHAR
STARTCHAR 0x273E
ENCODING 10046
SWIDTH 886 0
DWIDTH 12 0
BBX 12 13 0 -2
BITMAP
0000
7E00
1800
1800
1800
1F80
18C0
1860
1860
18C0
7F80
0000
0000
ENDCHAR
STARTCHAR 0x273F
ENCODING 10047
SWIDTH 886 0
DWIDTH 12 0
BBX 12 13 0 -2
BITMAP
0000
3780
38C0
3060
0060
0760
0DE0
0060
3060
38C0
3780
0000
0000
ENDCHAR
STARTCHAR 0x2740
ENCODING 10048
SWIDTH 886 0
DWIDTH 12 0
BBX 12 13 0 -2
BITMAP
0000
F9C0
3360
3630
3630
3E30
3630
3630
3630
3360
F9C0
0000
0000
ENDCHAR
STARTCHAR 0x2741
ENCODING 10049
SWIDTH 886 0
DWIDTH 12 0
BBX 12 13 0 -2
BITMAP
0000
0FF0
18C0
30C0
30C0
18C0
0FC0
06C0
0CC0
18C0
71F0
0000
0000
ENDCHAR
STARTCHAR 0x2751
ENCODING 10065
SWIDTH 886 0
DWIDTH 12 0
BBX 12 13 0 -2
BITMAP
0000
0000
0000
0F80
18C0
00C0
07C0
1CC0
18C0
19C0
0F60
0000
0000
ENDCHAR
STARTCHAR 0x2752
ENCODING 10066
SWIDTH 886 0
DWIDTH 12 0
BBX 12 13 0 -2
BITMAP
0180
0700
0C00
1800
1B00
1D80
18C0
18C0
18C0
0D80
0700
0000
0000
ENDCHAR
STARTCHAR 0x2753
ENCODING 10067
SWIDTH 886 0
DWIDTH 12 0
BBX 12 13 0 -2
BITMAP
0000
0000
0000
3F00
1980
1980
1F00
1980
18C0
1980
3F00
0000
0000
ENDCHAR
STARTCHAR 0x2754
ENCODING 10068
SWIDTH 886 0
DWIDTH 12 0
BBX 12 13 0 -2
BITMAP
0000
0000
0000
1F80
0CC0
0C60
0C00
0C00
0C00
0C00
1F00
0000
0000
ENDCHAR
STARTCHAR 0x2755
ENCODING 10069
SWIDTH 886 0
DWIDTH 12 0
BBX 12 13 0 -2
BITMAP
0000
0000
0000
3FC0
0D80
0D80
0D80
0D80
1980
1FC0
3060
6060
0000
ENDCHAR
STARTCHAR 0x2756
ENCODING 10070
SWIDTH 886 0
DWIDTH 12 0
BBX 12 13 0 -2
BITMAP
0000
0000
0000
0F00
1980
30C0
3FC0
3000
3000
18C0
0F80
0000
0000
ENDCHAR
STARTCHAR 0x2757
ENCODING 10071
SWIDTH 886 0
DWIDTH 12 0
BBX 12 13 0 -2
BITMAP
39C0
0000
0000
0F00
1980
30C0
3FC0
3000
3000
18C0
0F80
0000
0000
ENDCHAR
STARTCHAR 0x2758
ENCODING 10072
SWIDTH 886 0
DWIDTH 12 0
BBX 12 13 0 -2
BITMAP
0000
0000
0000
6F60
6660
3AC0
1F80
36C0
36C0
36C0
7760
0000
0000
ENDCHAR
STARTCHAR 0x2759
ENCODING 10073
SWIDTH 886 0
DWIDTH 12 0
BBX 12 13 0 -2
BITMAP
0000
0000
0000
1F80
30C0
00C0
0780
00C0
30C0
38C0
0F80
0000
0000
ENDCHAR
STARTCHAR 0x275A
ENCODING 10074
SWIDTH 886 0
DWIDTH 12 0
BBX 12 13 0 -2
BITMAP
0000
0000
0000
3DE0
19C0
1B40
1B40
1AC0
1AC0
1CC0
3DE0
0000
0000
ENDCHAR
STARTCHAR 0x275B
ENCODING 10075
SWIDTH 886 0
DWIDTH 12 0
BBX 12 13 0 -2
BITMAP
0D80
0700
0000
3DE0
19C0
1B40
1B40
1AC0
1AC0
1CC0
3DE0
0000
0000
ENDCHAR
STARTCHAR 0x275C
ENCODING 10076
SWIDTH 886 0
DWIDTH 12 0
BBX 12 13 0 -2
BITMAP
0000
0000
0000
3DC0
1B60
1B00
1A00
1D00
1980
18C0
3DE0
0000
0000
ENDCHAR
STARTCHAR 0x275D
ENCODING 10077
SWIDTH 886 0
DWIDTH 12 0
BBX 12 13 0 -2
BITMAP
0000
0000
0000
1FE0
06C0
06C0
06C0
06C0
36C0
36C0
1DE0
0000
0000
ENDCHAR
STARTCHAR 0x275E
ENCODING 10078
SWIDTH 886 0
DWIDTH 12 0
BBX 12 13 0 -2
BITMAP
0000
0000
0000
79E0
39C0
3540
3540
3540
36C0
36C0
79E0
0000
0000
ENDCHAR
STARTCHAR 0x275F
ENCODING 10079
SWIDTH 886 0
DWIDTH 12 0
BBX 12 13 0 -2
BITMAP
0000
0000
0000
3DE0
18C0
18C0
1FC0
18C0
18C0
18C0
3DE0
0000
0000
ENDCHAR
STARTCHAR 0x2760
ENCODING 10080
SWIDTH 886 0
DWIDTH 12 0
BBX 12 13 0 -2
BITMAP
0000
0000
0000
0F80
18C0
3060
3060
3060
3060
18C0
0F80
0000
0000
ENDCHAR
STARTCHAR 0x2761
ENCODING 10081
SWIDTH 886 0
DWIDTH 12 0
BBX 12 13 0 -2
BITMAP
0000
0000
0000
3FE0
18C0
18C0
18C0
18C0
18C0
18C0
3DE0
0000
0000
ENDCHAR
STARTCHAR 0x2762
ENCODING 10082
SWIDTH 886 0
DWIDTH 12 0
BBX 12 13 0 -2
BITMAP
0000
0000
0000
3B80
1CC0
1860
1860
1860
1CC0
1B80
1800
3C00
0000
ENDCHAR
STARTCHAR 0x2763
ENCODING 10083
SWIDTH 886 0
DWIDTH 12 0
BBX 12 13 0 -2
BITMAP
0000
0000
0000
0F80
18C0
30C0
3000
3000
3000
18C0
0F80
0000
0000
ENDCHAR
STARTCHAR 0x2764
ENCODING 10084
SWIDTH 886 0
DWIDTH 12 0
BBX 12 13 0 -2
BITMAP
0000
0000
0000
3FC0
36C0
6660
0600
0600
0600
0600
0F00
0000
0000
ENDCHAR
STARTCHAR 0x2765
ENCODING 10085
SWIDTH 886 0
DWIDTH 12 0
BBX 12 13 0 -2
BITMAP
0000
0000
0000
1EE0
0CC0
0CC0
0680
0680
0300
1B00
1B00
0E00
0000
ENDCHAR
STARTCHAR 0x2766
ENCODING 10086
SWIDTH 886 0
DWIDTH 12 0
BBX 12 13 0 -2
BITMAP
0000
0E00
0600
3AC0
6F60
6660
6660
6F60
3AC0
0600
0F00
0000
0000
ENDCHAR
STARTCHAR 0x2767
ENCODING 10087
SWIDTH 886 0
DWIDTH 12 0
BBX 12 13 0 -2
BITMAP
0000
0000
0000
3DC0
1980
0D00
0600
0600
0D00
1980
3DC0
0000
0000
ENDCHAR
STARTCHAR 0x2768
ENCODING 10088
SWIDTH 886 0
DWIDTH 12 0
BBX 12 13 0 -2
BITMAP
0000
0000
0000
3DC0
1980
1980
1980
1980
1980
1980
3FC0
0060
0000
ENDCHAR
STARTCHAR 0x2769
ENCODING 10089
SWIDTH 886 0
DWIDTH 12 0
BBX 12 13 0 -2
BITMAP
0000
0000
0000
3DC0
1980
1980
1980
1B80
0E80
0180
03C0
0000
0000
ENDCHAR
STARTCHAR 0x276A
ENCODING 10090
SWIDTH 886 0
DWIDTH 12 0
BBX 12 13 0 -2
BITMAP
0000
0000
0000
7760
36C0
36C0
36C0
36C0
36C0
36C0
7FE0
0000
0000
ENDCHAR
STARTCHAR 0x276B
ENCODING 10091
SWIDTH 886 0
DWIDTH 12 0
BBX 12 13 0 -2
BITMAP
0000
0000
0000
7760
36C0
36C0
36C0
36C0
36C0
36C0
7FE0
0030
0000
ENDCHAR
STARTCHAR 0x276C
ENCODING 10092
SWIDTH 886 0
DWIDTH 12 0
BBX 12 13 0 -2
BITMAP
0000
0000
0000
1F00
3600
3600
07C0
0660
0660
0660
1FC0
0000
0000
ENDCHAR
STARTCHAR 0x276D
ENCODING 10093
SWIDTH 886 0
DWIDTH 12 0
BBX 12 13 0 -2
BITMAP
0000
0000
0000
79E0
30C0
30C0
3EC0
3340
3340
3340
7EE0
0000
0000
ENDCHAR
STARTCHAR 0x276E
ENCODING 10094
SWIDTH 886 0
DWIDTH 12 0
BBX 12 13 0 -2
BITMAP
0000
0000
0000
1E00
0C00
0C00
0F80
0CC0
0CC0
0CC0
1F80
0000
0000
ENDCHAR
STARTCHAR 0x276F
ENCODING 10095
SWIDTH 886 0
DWIDTH 12 0
BBX 12 13 0 -2
BITMAP
0000
0000
0000
1F00
3180
00C0
0EC0
1BC0
00C0
3180
1F00
0000
0000
ENDCHAR
STARTCHAR 0x2770
ENCODING 10096
SWIDTH 886 0
DWIDTH 12 0
BBX 12 13 0 -2
BITMAP
0000
0000
0000
3DC0
1A60
1A60
1E60
1A60
1A60
1A60
3DC0
0000
0000
ENDCHAR
STARTCHAR 0x2771
ENCODING 10097
SWIDTH 886 0
DWIDTH 12 0
BBX 12 13 0 -2
BITMAP
0000
0000
0000
1FC0
3180
3180
1F80
0680
0D80
0D80
3BC0
0000
0000
ENDCHAR
STARTCHAR 0x2821
ENCODING 10273
SWIDTH 886 0
DWIDTH 12 0
BBX 12 13 0 -2
BITMAP
0000
0000
0000
0000
0000
0000
FFF0
0000
0000
0000
0000
0000
0000
ENDCHAR
STARTCHAR 0x2822
ENCODING 10274
SWIDTH 886 0
DWIDTH 12 0
BBX 12 13 0 -2
BITMAP
0600
0600
0600
0600
0600
0600
0600
0600
0600
0600
0600
0600
0600
ENDCHAR
STARTCHAR 0x2823
ENCODING 10275
SWIDTH 886 0
DWIDTH 12 0
BBX 12 13 0 -2
BITMAP
0000
0000
0000
0000
0000
0000
07F0
0600
0600
0600
0600
0600
0600
ENDCHAR
STARTCHAR 0x2824
ENCODING 10276
SWIDTH 886 0
DWIDTH 12 0
BBX 12 13 0 -2
BITMAP
0000
0000
0000
0000
0000
0000
FE00
0600
0600
0600
0600
0600
0600
ENDCHAR
STARTCHAR 0x2825
ENCODING 10277
SWIDTH 886 0
DWIDTH 12 0
BBX 12 13 0 -2
BITMAP
0600
0600
0600
0600
0600
0600
FE00
0000
0000
0000
0000
0000
0000
ENDCHAR
STARTCHAR 0x2826
ENCODING 10278
SWIDTH 886 0
DWIDTH 12 0
BBX 12 13 0 -2
BITMAP
0600
0600
0600
0600
0600
0600
07F0
0000
0000
0000
0000
0000
0000
ENDCHAR
STARTCHAR 0x2827
ENCODING 10279
SWIDTH 886 0
DWIDTH 12 0
BBX 12 13 0 -2
BITMAP
0600
0600
0600
0600
0600
0600
07F0
0600
0600
0600
0600
0600
0600
ENDCHAR
STARTCHAR 0x2828
ENCODING 10280
SWIDTH 886 0
DWIDTH 12 0
BBX 12 13 0 -2
BITMAP
0000
0000
0000
0000
0000
0000
FFF0
0600
0600
0600
0600
0600
0600
ENDCHAR
STARTCHAR 0x2829
ENCODING 10281
SWIDTH 886 0
DWIDTH 12 0
BBX 12 13 0 -2
BITMAP
0600
0600
0600
0600
0600
0600
FE00
0600
0600
0600
0600
0600
0600
ENDCHAR
STARTCHAR 0x282A
ENCODING 10282
SWIDTH 886 0
DWIDTH 12 0
BBX 12 13 0 -2
BITMAP
0600
0600
0600
0600
0600
0600
FFF0
0000
0000
0000
0000
0000
0000
ENDCHAR
STARTCHAR 0x282B
ENCODING 10283
SWIDTH 886 0
DWIDTH 12 0
BBX 12 13 0 -2
BITMAP
0600
0600
0600
0600
0600
0600
FFF0
0600
0600
0600
0600
0600
0600
ENDCHAR
STARTCHAR 0x282C
ENCODING 10284
SWIDTH 886 0
DWIDTH 12 0
BBX 12 13 0 -2
BITMAP
0000
0000
0000
0000
0000
FFF0
FFF0
0000
0000
0000
0000
0000
0000
ENDCHAR
STARTCHAR 0x282D
ENCODING 10285
SWIDTH 886 0
DWIDTH 12 0
BBX 12 13 0 -2
BITMAP
0700
0700
0700
0700
0700
0700
0700
0700
0700
0700
0700
0700
0700
ENDCHAR
STARTCHAR 0x282E
ENCODING 10286
SWIDTH 886 0
DWIDTH 12 0
BBX 12 13 0 -2
BITMAP
0000
0000
0000
0000
0000
07F0
07F0
0700
0700
0700
0700
0700
0700
ENDCHAR
STARTCHAR 0x282F
ENCODING 10287
SWIDTH 886 0
DWIDTH 12 0
BBX 12 13 0 -2
BITMAP
0000
0000
0000
0000
0000
FF00
FF00
0700
0700
0700
0700
0700
0700
ENDCHAR
STARTCHAR 0x2830
ENCODING 10288
SWIDTH 886 0
DWIDTH 12 0
BBX 12 13 0 -2
BITMAP
0700
0700
0700
0700
0700
FF00
FF00
0000
0000
0000
0000
0000
0000
ENDCHAR
STARTCHAR 0x2831
ENCODING 10289
SWIDTH 886 0
DWIDTH 12 0
BBX 12 13 0 -2
BITMAP
0700
0700
0700
0700
0700
07F0
07F0
0000
0000
0000
0000
0000
0000
ENDCHAR
STARTCHAR 0x2832
ENCODING 10290
SWIDTH 886 0
DWIDTH 12 0
BBX 12 13 0 -2
BITMAP
0700
0700
0700
0700
0700
07F0
07F0
0700
0700
0700
0700
0700
0700
ENDCHAR
STARTCHAR 0x2833
ENCODING 10291
SWIDTH 886 0
DWIDTH 12 0
BBX 12 13 0 -2
BITMAP
0000
0000
0000
0000
0000
FFF0
FFF0
0700
0700
0700
0700
0700
0700
ENDCHAR
STARTCHAR 0x2834
ENCODING 10292
SWIDTH 886 0
DWIDTH 12 0
BBX 12 13 0 -2
BITMAP
0700
0700
0700
0700
0700
FF00
FF00
0700
0700
0700
0700
0700
0700
ENDCHAR
STARTCHAR 0x2835
ENCODING 10293
SWIDTH 886 0
DWIDTH 12 0
BBX 12 13 0 -2
BITMAP
0700
0700
0700
0700
0700
FFF0
FFF0
0000
0000
0000
0000
0000
0000
ENDCHAR
STARTCHAR 0x2836
ENCODING 10294
SWIDTH 886 0
DWIDTH 12 0
BBX 12 13 0 -2
BITMAP
0700
0700
0700
0700
0700
FFF0
FFF0
0700
0700
0700
0700
0700
0700
ENDCHAR
STARTCHAR 0x2837
ENCODING 10295
SWIDTH 886 0
DWIDTH 12 0
BBX 12 13 0 -2
BITMAP
0700
0700
0700
0700
0700
0700
07F0
0700
0700
0700
0700
0700
0700
ENDCHAR
STARTCHAR 0x2838
ENCODING 10296
SWIDTH 886 0
DWIDTH 12 0
BBX 12 13 0 -2
BITMAP
0000
0000
0000
0000
0000
FFF0
FFF0
0600
0600
0600
0600
0600
0600
ENDCHAR
STARTCHAR 0x2839
ENCODING 10297
SWIDTH 886 0
DWIDTH 12 0
BBX 12 13 0 -2
BITMAP
0700
0700
0700
0700
0700
0700
FF00
0700
0700
0700
0700
0700
0700
ENDCHAR
STARTCHAR 0x283A
ENCODING 10298
SWIDTH 886 0
DWIDTH 12 0
BBX 12 13 0 -2
BITMAP
0600
0600
0600
0600
0600
FFF0
FFF0
0000
0000
0000
0000
0000
0000
ENDCHAR
STARTCHAR 0x283B
ENCODING 10299
SWIDTH 886 0
DWIDTH 12 0
BBX 12 13 0 -2
BITMAP
0600
0600
0600
0600
0600
FFF0
FFF0
0600
0600
0600
0600
0600
0600
ENDCHAR
STARTCHAR 0x283C
ENCODING 10300
SWIDTH 886 0
DWIDTH 12 0
BBX 12 13 0 -2
BITMAP
0600
0600
0600
0600
0600
07F0
07F0
0600
0600
0600
0600
0600
0600
ENDCHAR
STARTCHAR 0x283D
ENCODING 10301
SWIDTH 886 0
DWIDTH 12 0
BBX 12 13 0 -2
BITMAP
0000
0000
0000
0000
0000
0000
FFF0
0700
0700
0700
0700
0700
0700
ENDCHAR
STARTCHAR 0x283E
ENCODING 10302
SWIDTH 886 0
DWIDTH 12 0
BBX 12 13 0 -2
BITMAP
0600
0600
0600
0600
0600
FE00
FE00
0600
0600
0600
0600
0600
0600
ENDCHAR
STARTCHAR 0x283F
ENCODING 10303
SWIDTH 886 0
DWIDTH 12 0
BBX 12 13 0 -2
BITMAP
0700
0700
0700
0700
0700
0700
FFF0
0000
0000
0000
0000
0000
0000
ENDCHAR
STARTCHAR 0x2840
ENCODING 10304
SWIDTH 886 0
DWIDTH 12 0
BBX 12 13 0 -2
BITMAP
0700
0700
0700
0700
0700
0700
FFF0
0700
0700
0700
0700
0700
0700
ENDCHAR
STARTCHAR 0x2D21
ENCODING 11553
SWIDTH 886 0
DWIDTH 12 0
BBX 12 13 0 -2
BITMAP
0000
0F00
39C0
6660
6E60
DA30
C630
C630
6660
6660
39C0
0F00
0000
ENDCHAR
STARTCHAR 0x2D22
ENCODING 11554
SWIDTH 886 0
DWIDTH 12 0
BBX 12 13 0 -2
BITMAP
0000
0F00
39C0
6F60
69A0
C1B0
C730
CC30
6860
6FA0
39C0
0F00
0000
ENDCHAR
STARTCHAR 0x2D23
ENCODING 11555
SWIDTH 886 0
DWIDTH 12 0
BBX 12 13 0 -2
BITMAP
0000
0F00
39C0
6F60
69A0
C1B0
C730
C1B0
69A0
6F60
39C0
0F00
0000
ENDCHAR
STARTCHAR 0x2D24
ENCODING 11556
SWIDTH 886 0
DWIDTH 12 0
BBX 12 13 0 -2
BITMAP
0000
0F00
39C0
6760
6760
CD30
CD30
DB30
6FA0
6360
39C0
0F00
0000
ENDCHAR
STARTCHAR 0x2D25
ENCODING 11557
SWIDTH 886 0
DWIDTH 12 0
BBX 12 13 0 -2
BITMAP
0000
0F00
39C0
6FA0
6860
DF30
C1B0
C1B0
69A0
6F60
39C0
0F00
0000
ENDCHAR
STARTCHAR 0x2D26
ENCODING 11558
SWIDTH 886 0
DWIDTH 12 0
BBX 12 13 0 -2
BITMAP
0000
0F00
39C0
6F60
6860
DF30
D9B0
D9B0
69A0
6F60
39C0
0F00
0000
ENDCHAR
STARTCHAR 0x2D27
ENCODING 11559
SWIDTH 886 0
DWIDTH 12 0
BBX 12 13 0 -2
BITMAP
0000
0F00
39C0
6FA0
61A0
C330
C630
C630
6C60
6C60
39C0
0F00
0000
ENDCHAR
STARTCHAR 0x2D28
ENCODING 11560
SWIDTH 886 0
DWIDTH 12 0
BBX 12 13 0 -2
BITMAP
0000
0F00
39C0
6F60
69A0
D9B0
CF30
D9B0
69A0
6F60
39C0
0F00
0000
ENDCHAR
STARTCHAR 0x2D29
ENCODING 11561
SWIDTH 886 0
DWIDTH 12 0
BBX 12 13 0 -2
BITMAP
0000
0F00
39C0
6F60
69A0
D9B0
D9B0
CFB0
61A0
6F60
39C0
0F00
0000
ENDCHAR
STARTCHAR 0x2D2A
ENCODING 11562
SWIDTH 886 0
DWIDTH 12 0
BBX 12 13 0 -2
BITMAP
0000
0F00
39C0
6BA0
7AE0
DAD0
DAD0
DAD0
6AE0
6BA0
39C0
0F00
0000
ENDCHAR
STARTCHAR 0x2D2B
ENCODING 11563
SWIDTH 886 0
DWIDTH 12 0
BBX 12 13 0 -2
BITMAP
0000
0F00
39C0
69A0
7BA0
D9B0
D9B0
D9B0
69A0
69A0
39C0
0F00
0000
ENDCHAR
STARTCHAR 0x2D2C
ENCODING 11564
SWIDTH 886 0
DWIDTH 12 0
BBX 12 13 0 -2
BITMAP
0000
0F00
39C0
6BA0
7AE0
D8D0
D9B0
DB30
6A60
6BE0
39C0
0F00
0000
ENDCHAR
STARTCHAR 0x2D2D
ENCODING 11565
SWIDTH 886 0
DWIDTH 12 0
BBX 12 13 0 -2
BITMAP
0000
0F00
39C0
6BA0
7AE0
D8D0
DBB0
D8D0
6AE0
6BA0
39C0
0F00
0000
ENDCHAR
STARTCHAR 0x2D2E
ENCODING 11566
SWIDTH 886 0
DWIDTH 12 0
BBX 12 13 0 -2
BITMAP
0000
0F00
39C0
6BA0
7BA0
DAB0
DAB0
DAB0
6BE0
69A0
39C0
0F00
0000
ENDCHAR
STARTCHAR 0x2D2F
ENCODING 11567
SWIDTH 886 0
DWIDTH 12 0
BBX 12 13 0 -2
BITMAP
0000
0F00
39C0
6BE0
7A60
DBB0
D8D0
D8D0
6AE0
6BA0
39C0
0F00
0000
ENDCHAR
STARTCHAR 0x2D30
ENCODING 11568
SWIDTH 886 0
DWIDTH 12 0
BBX 12 13 0 -2
BITMAP
0000
0F00
39C0
6BA0
7A60
DBB0
DAD0
DAD0
6AE0
6BA0
39C0
0F00
0000
ENDCHAR
STARTCHAR 0x2D31
ENCODING 11569
SWIDTH 886 0
DWIDTH 12 0
BBX 12 13 0 -2
BITMAP
0000
0F00
39C0
6BE0
78E0
D9B0
D9B0
DB30
6B60
6B60
39C0
0F00
0000
ENDCHAR
STARTCHAR 0x2D32
ENCODING 11570
SWIDTH 886 0
DWIDTH 12 0
BBX 12 13 0 -2
BITMAP
0000
0F00
39C0
6BA0
7AE0
DAD0
DBB0
DAD0
6AE0
6BA0
39C0
0F00
0000
ENDCHAR
STARTCHAR 0x2D33
ENCODING 11571
SWIDTH 886 0
DWIDTH 12 0
BBX 12 13 0 -2
BITMAP
0000
0F00
39C0
6BA0
7AE0
DAD0
DAD0
DBD0
68E0
6BA0
39C0
0F00
0000
ENDCHAR
STARTCHAR 0x2D34
ENCODING 11572
SWIDTH 886 0
DWIDTH 12 0
BBX 12 13 0 -2
BITMAP
0000
0F00
39C0
6EA0
6B60
C750
CD50
DB50
6B60
6EA0
39C0
0F00
0000
ENDCHAR
STARTCHAR 0x2D35
ENCODING 11573
SWIDTH 886 0
DWIDTH 12 0
BBX 12 13 0 -2
BITMAP
0000
1F80
0600
0600
0600
0600
0600
0600
0600
0600
1F80
0000
0000
ENDCHAR
STARTCHAR 0x2D36
ENCODING 11574
SWIDTH 886 0
DWIDTH 12 0
BBX 12 13 0 -2
BITMAP
0000
1FC0
0D80
0D80
0D80
0D80
0D80
0D80
0D80
0D80
1FC0
0000
0000
ENDCHAR
STARTCHAR 0x2D37
ENCODING 11575
SWIDTH 886 0
DWIDTH 12 0
BBX 12 13 0 -2
BITMAP
0000
7FE0
36C0
36C0
36C0
36C0
36C0
36C0
36C0
36C0
7FE0
0000
0000
ENDCHAR
STARTCHAR 0x2D38
ENCODING 11576
SWIDTH 886 0
DWIDTH 12 0
BBX 12 13 0 -2
BITMAP
0000
7EE0
34C0
34C0
34C0
3680
3680
3680
3300
3300
7B00
0000
0000
ENDCHAR
STARTCHAR 0x2D39
ENCODING 11577
SWIDTH 886 0
DWIDTH 12 0
BBX 12 13 0 -2
BITMAP
0000
79E0
30C0
30C0
1980
1980
1980
0D00
0D00
0600
0600
0000
0000
ENDCHAR
STARTCHAR 0x2D3A
ENCODING 11578
SWIDTH 886 0
DWIDTH 12 0
BBX 12 13 0 -2
BITMAP
0000
7BE0
3340
3340
3340
1AC0
1AC0
1AC0
0CC0
0CC0
0DE0
0000
0000
ENDCHAR
STARTCHAR 0x2D3B
ENCODING 11579
SWIDTH 886 0
DWIDTH 12 0
BBX 12 13 0 -2
BITMAP
0000
F7F0
66A0
66A0
66A0
35A0
35A0
35A0
19A0
19A0
1BF0
0000
0000
ENDCHAR
STARTCHAR 0x2D3C
ENCODING 11580
SWIDTH 886 0
DWIDTH 12 0
BBX 12 13 0 -2
BITMAP
0000
EFF0
6AA0
6AA0
6AA0
6AA0
6AA0
36A0
36A0
36A0
37F0
0000
0000
ENDCHAR
STARTCHAR 0x2D3D
ENCODING 11581
SWIDTH 886 0
DWIDTH 12 0
BBX 12 13 0 -2
BITMAP
0000
7EE0
34C0
3680
3680
3300
3300
3680
3680
34C0
7EE0
0000
0000
ENDCHAR
STARTCHAR 0x2D3E
ENCODING 11582
SWIDTH 886 0
DWIDTH 12 0
BBX 12 13 0 -2
BITMAP
0000
79E0
30C0
1980
0D00
0600
0600
0D00
1980
30C0
79E0
0000
0000
ENDCHAR
STARTCHAR 0x2D40
ENCODING 11584
SWIDTH 886 0
DWIDTH 12 0
BBX 12 13 0 -2
BITMAP
0000
F000
1C00
F000
1C00
F000
1D30
0330
0330
0330
0060
01C0
0000
ENDCHAR
STARTCHAR 0x2D41
ENCODING 11585
SWIDTH 886 0
DWIDTH 12 0
BBX 12 13 0 -2
BITMAP
0000
3000
FC00
3000
3000
FE00
1800
1BF0
0330
0330
0330
03F0
0000
ENDCHAR
STARTCHAR 0x2D42
ENCODING 11586
SWIDTH 886 0
DWIDTH 12 0
BBX 12 13 0 -2
BITMAP
0000
6300
FDB0
6C30
6060
3DC0
0000
7C00
1800
FE00
1800
7000
0000
ENDCHAR
STARTCHAR 0x2D43
ENCODING 11587
SWIDTH 886 0
DWIDTH 12 0
BBX 12 13 0 -2
BITMAP
0000
0C00
6C00
3BF0
1C00
F600
0000
6340
6340
7D40
6350
66E0
0000
ENDCHAR
STARTCHAR 0x2D44
ENCODING 11588
SWIDTH 886 0
DWIDTH 12 0
BBX 12 13 0 -2
BITMAP
0000
6AE0
7C00
CDF0
0C30
1830
F1E0
3000
3000
6C00
6600
FE00
0000
ENDCHAR
STARTCHAR 0x2D45
ENCODING 11589
SWIDTH 886 0
DWIDTH 12 0
BBX 12 13 0 -2
BITMAP
0000
6000
6000
6000
7C00
6000
6000
6730
01B0
0030
0060
07C0
0000
ENDCHAR
STARTCHAR 0x2D46
ENCODING 11590
SWIDTH 886 0
DWIDTH 12 0
BBX 12 13 0 -2
BITMAP
0000
FE00
0600
3400
33F0
3000
6000
1800
6800
6B00
6B00
DE00
0000
ENDCHAR
STARTCHAR 0x2D47
ENCODING 11591
SWIDTH 886 0
DWIDTH 12 0
BBX 12 13 0 -2
BITMAP
0000
0180
71F0
DBB0
CC30
0660
61C0
7860
D9A0
69A0
37A0
E1B0
0000
ENDCHAR
STARTCHAR 0x2D48
ENCODING 11592
SWIDTH 886 0
DWIDTH 12 0
BBX 12 13 0 -2
BITMAP
0000
D800
DB50
DB50
1830
71E0
0000
C6C0
C6C0
FAC0
C6D0
C6E0
0000
ENDCHAR
STARTCHAR 0x2D49
ENCODING 11593
SWIDTH 886 0
DWIDTH 12 0
BBX 12 13 0 -2
BITMAP
0000
FC00
CD50
CD50
0C30
79E0
0000
6000
6000
7C00
6000
6000
0000
ENDCHAR
STARTCHAR 0x2D4A
ENCODING 11594
SWIDTH 886 0
DWIDTH 12 0
BBX 12 13 0 -2
BITMAP
0000
6000
FDF0
6D30
6D30
DDF0
0000
6C00
6C00
6DF0
0C00
3800
0000
ENDCHAR
STARTCHAR 0x2D4B
ENCODING 11595
SWIDTH 886 0
DWIDTH 12 0
BBX 12 13 0 -2
BITMAP
0000
6A00
6A00
6000
7C00
6000
6340
6340
0340
0350
0350
06E0
0000
ENDCHAR
STARTCHAR 0x2D4C
ENCODING 11596
SWIDTH 886 0
DWIDTH 12 0
BBX 12 13 0 -2
BITMAP
0000
6300
FDB0
6C30
6060
3DC0
0000
6000
6000
7C00
6000
6000
0000
ENDCHAR
STARTCHAR 0x2D4D
ENCODING 11597
SWIDTH 886 0
DWIDTH 12 0
BBX 12 13 0 -2
BITMAP
0000
6B00
6A80
6B00
6DF0
CC00
0000
6DA0
FAA0
69B0
61A0
7B60
0000
ENDCHAR
STARTCHAR 0x2D4E
ENCODING 11598
SWIDTH 886 0
DWIDTH 12 0
BBX 12 13 0 -2
BITMAP
0000
FB60
0360
FB60
0060
F9C0
0000
D5A0
C1A0
D7A0
D9A0
D9B0
0000
ENDCHAR
STARTCHAR 0x2D4F
ENCODING 11599
SWIDTH 886 0
DWIDTH 12 0
BBX 12 13 0 -2
BITMAP
0000
0600
7500
DA00
CDF0
0600
0000
E340
0D40
EC00
1800
F000
0000
ENDCHAR
STARTCHAR 0x2D50
ENCODING 11600
SWIDTH 886 0
DWIDTH 12 0
BBX 12 13 0 -2
BITMAP
0000
0000
0000
0000
0000
FBE0
D550
D550
D550
D550
D550
0000
0000
ENDCHAR
STARTCHAR 0x2D51
ENCODING 11601
SWIDTH 886 0
DWIDTH 12 0
BBX 12 13 0 -2
BITMAP
0000
0000
0000
0000
0000
7BE0
CD50
C350
C350
CD50
7B50
0000
0000
ENDCHAR
STARTCHAR 0x2D52
ENCODING 11602
SWIDTH 886 0
DWIDTH 12 0
BBX 12 13 0 -2
BITMAP
0000
0000
C000
C000
C000
DBE0
D350
E350
D350
DB50
CD50
0000
0000
ENDCHAR
STARTCHAR 0x2D53
ENCODING 11603
SWIDTH 886 0
DWIDTH 12 0
BBX 12 13 0 -2
BITMAP
0000
0000
0000
0000
0070
F9C0
D560
D5C0
D500
D5E0
D530
01E0
0000
ENDCHAR
STARTCHAR 0x2D54
ENCODING 11604
SWIDTH 886 0
DWIDTH 12 0
BBX 12 13 0 -2
BITMAP
0000
0000
C000
C000
C070
D9C0
D360
E1C0
D300
D9E0
CD30
01E0
0000
ENDCHAR
STARTCHAR 0x2D55
ENCODING 11605
SWIDTH 886 0
DWIDTH 12 0
BBX 12 13 0 -2
BITMAP
0000
0000
0000
0000
0000
79E0
CD30
C300
C300
CD30
79E0
0000
0000
ENDCHAR
STARTCHAR 0x2D56
ENCODING 11606
SWIDTH 886 0
DWIDTH 12 0
BBX 12 13 0 -2
BITMAP
0000
00E0
01B0
0060
00C0
FEF0
DB00
DB00
DB00
DB00
DB00
0000
0000
ENDCHAR
STARTCHAR 0x2D5F
ENCODING 11615
SWIDTH 886 0
DWIDTH 12 0
BBX 12 13 0 -2
BITMAP
0000
00D0
FDF0
3340
D550
D550
D5A0
33A0
FEA0
36A0
35D0
34D0
0000
ENDCHAR
STARTCHAR 0x2D60
ENCODING 11616
SWIDTH 886 0
DWIDTH 12 0
BBX 12 13 0 -2
BITMAP
01A0
01A0
0340
0340
0000
0000
0000
0000
0000
0000
0000
0000
0000
ENDCHAR
STARTCHAR 0x2D61
ENCODING 11617
SWIDTH 886 0
DWIDTH 12 0
BBX 12 13 0 -2
BITMAP
0000
0000
0000
0000
0000
0000
0000
3400
3400
6800
6800
0000
0000
ENDCHAR
STARTCHAR 0x2D62
ENCODING 11618
SWIDTH 886 0
DWIDTH 12 0
BBX 12 13 0 -2
BITMAP
0000
0000
CC00
EC00
EC00
D5C0
D560
DD60
DD60
CD60
CDD0
0000
0000
ENDCHAR
STARTCHAR 0x2D63
ENCODING 11619
SWIDTH 886 0
DWIDTH 12 0
BBX 12 13 0 -2
BITMAP
0000
0000
6D60
6D60
6B40
6B40
7380
6B40
6B40
6D60
6D60
0000
0000
ENDCHAR
STARTCHAR 0x2D64
ENCODING 11620
SWIDTH 886 0
DWIDTH 12 0
BBX 12 13 0 -2
BITMAP
0000
0000
FCC0
30C0
3740
34C0
34C0
3740
34C0
34C0
3770
0000
0000
ENDCHAR
STARTCHAR 0x2D65
ENCODING 11621
SWIDTH 886 0
DWIDTH 12 0
BBX 12 13 0 -2
BITMAP
0000
0F00
39C0
6660
6660
C7B0
C630
C630
7FE0
6060
39C0
0F00
0000
ENDCHAR
STARTCHAR 0x2D66
ENCODING 11622
SWIDTH 886 0
DWIDTH 12 0
BBX 12 13 0 -2
BITMAP
0000
0F00
39C0
6660
7FE0
D6D0
D6D0
DFD0
6660
6660
39C0
0F00
0000
ENDCHAR
STARTCHAR 0x2D67
ENCODING 11623
SWIDTH 886 0
DWIDTH 12 0
BBX 12 13 0 -2
BITMAP
0000
0F00
39C0
6060
7FE0
C630
C730
C6B0
6660
6660
39C0
0F00
0000
ENDCHAR
STARTCHAR 0x2D68
ENCODING 11624
SWIDTH 886 0
DWIDTH 12 0
BBX 12 13 0 -2
BITMAP
0000
0F00
39C0
6C60
7FE0
CC30
CFB0
DB30
7360
6FE0
39C0
0F00
0000
ENDCHAR
STARTCHAR 0x2D69
ENCODING 11625
SWIDTH 886 0
DWIDTH 12 0
BBX 12 13 0 -2
BITMAP
0000
0F00
39C0
6C60
7FE0
CC30
DFB0
D5B0
6DA0
6FA0
39C0
0F00
0000
ENDCHAR
STARTCHAR 0x2D6A
ENCODING 11626
SWIDTH 886 0
DWIDTH 12 0
BBX 12 13 0 -2
BITMAP
0000
30C0
6AA0
DAB0
FFF0
DAB0
DBF0
EDB0
DBD0
DAB0
69A0
30C0
0000
ENDCHAR
STARTCHAR 0x2D6B
ENCODING 11627
SWIDTH 886 0
DWIDTH 12 0
BBX 12 13 0 -2
BITMAP
0000
30C0
6C60
DFD0
CC30
CFB0
DDB0
D7B0
CDB0
CFB0
6DA0
30C0
0000
ENDCHAR
STARTCHAR 0x2D6C
ENCODING 11628
SWIDTH 886 0
DWIDTH 12 0
BBX 12 13 0 -2
BITMAP
0000
30C0
6D60
CD50
DB30
DFD0
DB30
EB30
DB30
DB30
69A0
30C0
0000
ENDCHAR
STARTCHAR 0x2D6D
ENCODING 11629
SWIDTH 886 0
DWIDTH 12 0
BBX 12 13 0 -2
BITMAP
0000
3CC0
F6C0
D540
DDB0
F6B0
D5F0
DC00
F5F0
35B0
36B0
6DF0
0000
ENDCHAR
STARTCHAR 0x2D6E
ENCODING 11630
SWIDTH 886 0
DWIDTH 12 0
BBX 12 13 0 -2
BITMAP
0000
3000
37F0
30C0
FCC0
3340
3370
6B40
6B40
6B40
CD40
CFF0
0000
ENDCHAR
STARTCHAR 0x2D6F
ENCODING 11631
SWIDTH 886 0
DWIDTH 12 0
BBX 12 13 0 -2
BITMAP
0000
7B80
3500
F570
D7D0
DD50
F350
DF50
D5D0
D550
F550
3D70
0000
ENDCHAR
STARTCHAR 0x2D70
ENCODING 11632
SWIDTH 886 0
DWIDTH 12 0
BBX 12 13 0 -2
BITMAP
0000
1800
3C00
1800
0000
7FE0
0000
7FE0
0000
0180
03C0
0180
0000
ENDCHAR
STARTCHAR 0x2D71
ENCODING 11633
SWIDTH 886 0
DWIDTH 12 0
BBX 12 13 0 -2
BITMAP
0000
0000
0000
7FE0
0000
0000
7FE0
0000
0000
7FE0
0000
0000
0000
ENDCHAR
STARTCHAR 0x2D72
ENCODING 11634
SWIDTH 886 0
DWIDTH 12 0
BBX 12 13 0 -2
BITMAP
0600
0D00
0C00
0C00
0C00
0600
0600
0300
0300
0300
0D00
0600
0000
ENDCHAR
STARTCHAR 0x2D73
ENCODING 11635
SWIDTH 886 0
DWIDTH 12 0
BBX 12 13 0 -2
BITMAP
0600
0D00
0C00
0F00
1A80
1A80
1A80
1A80
0F00
0300
0D00
0600
0000
ENDCHAR
STARTCHAR 0x2D74
ENCODING 11636
SWIDTH 886 0
DWIDTH 12 0
BBX 12 13 0 -2
BITMAP
0000
0000
7FE0
3000
1800
0C00
0600
0C00
1800
3000
7FE0
0000
0000
ENDCHAR
STARTCHAR 0x2D75
ENCODING 11637
SWIDTH 886 0
DWIDTH 12 0
BBX 12 13 0 -2
BITMAP
03F0
0300
0300
0600
0600
6600
6C00
D400
D400
1800
1800
0000
0000
ENDCHAR
STARTCHAR 0x2D76
ENCODING 11638
SWIDTH 886 0
DWIDTH 12 0
BBX 12 13 0 -2
BITMAP
0000
0000
0600
0600
0600
0600
0600
0600
0600
7FE0
0000
0000
0000
ENDCHAR
STARTCHAR 0x2D77
ENCODING 11639
SWIDTH 886 0
DWIDTH 12 0
BBX 12 13 0 -2
BITMAP
0000
0000
00C0
0180
0300
0600
0C00
1800
3000
7FE0
0000
0000
0000
ENDCHAR
STARTCHAR 0x2D78
ENCODING 11640
SWIDTH 886 0
DWIDTH 12 0
BBX 12 13 0 -2
BITMAP
0000
0000
3000
3000
3000
3000
3000
3000
3000
3FE0
0000
0000
0000
ENDCHAR
STARTCHAR 0x2D79
ENCODING 11641
SWIDTH 886 0
DWIDTH 12 0
BBX 12 13 0 -2
BITMAP
0000
0000
00C0
01C0
0340
06C0
0CC0
18C0
30C0
7FC0
0000
0000
0000
ENDCHAR
STARTCHAR 0x2D7A
ENCODING 11642
SWIDTH 886 0
DWIDTH 12 0
BBX 12 13 0 -2
BITMAP
0000
0000
30C0
79E0
30C0
0000
0000
0600
0F00
0600
0000
0000
0000
ENDCHAR
STARTCHAR 0x2D7B
ENCODING 11643
SWIDTH 886 0
DWIDTH 12 0
BBX 12 13 0 -2
BITMAP
0000
0000
0F00
1980
30C0
30C0
30C0
30C0
30C0
30C0
30C0
0000
0000
ENDCHAR
STARTCHAR 0x2D7C
ENCODING 11644
SWIDTH 886 0
DWIDTH 12 0
BBX 12 13 0 -2
BITMAP
0000
0000
30C0
30C0
30C0
30C0
30C0
30C0
30C0
1980
0F00
0000
0000
ENDCHAR
STARTCHAR 0x3021
ENCODING 12321
SWIDTH 886 0
DWIDTH 12 0
BBX 12 13 0 -2
BITMAP
0000
FFF0
0D00
0D00
7FE0
6D60
6D60
6D60
7FE0
0D00
0D00
FFF0
0000
ENDCHAR
STARTCHAR 0x3022
ENCODING 12322
SWIDTH 886 0
DWIDTH 12 0
BBX 12 13 0 -2
BITMAP
0000
1FF0
F340
D340
D7F0
D550
D550
D550
D7F0
D340
F340
1FF0
0000
ENDCHAR
STARTCHAR 0x3023
ENCODING 12323
SWIDTH 886 0
DWIDTH 12 0
BBX 12 13 0 -2
BITMAP
0180
6180
67F0
F980
6980
6FF0
6980
D980
F7F0
3980
6180
6FF0
0000
ENDCHAR
STARTCHAR 0x3024
ENCODING 12324
SWIDTH 886 0
DWIDTH 12 0
BBX 12 13 0 -2
BITMAP
0000
F7F0
D060
D060
EF60
D560
D560
D560
D760
E060
C060
C1E0
0000
ENDCHAR
STARTCHAR 0x3025
ENCODING 12325
SWIDTH 886 0
DWIDTH 12 0
BBX 12 13 0 -2
BITMAP
0600
0600
FFF0
0000
3FC0
30C0
30C0
3FC0
1A30
F360
31C0
7E70
0000
ENDCHAR
STARTCHAR 0x3026
ENCODING 12326
SWIDTH 886 0
DWIDTH 12 0
BBX 12 13 0 -2
BITMAP
0000
7FA0
6C60
36C0
FFF0
DB30
69A0
CFD0
38C0
0D80
0F00
F9F0
0000
ENDCHAR
STARTCHAR 0x3027
ENCODING 12327
SWIDTH 886 0
DWIDTH 12 0
BBX 12 13 0 -2
BITMAP
0300
6360
6660
FFF0
6C00
6FF0
6D80
7980
EFF0
6340
6660
EC30
0000
ENDCHAR
STARTCHAR 0x3028
ENCODING 12328
SWIDTH 886 0
DWIDTH 12 0
BBX 12 13 0 -2
BITMAP
0000
63E0
6630
FC00
6800
6BF0
6800
D800
F7F0
3A30
6630
67F0
0000
ENDCHAR
STARTCHAR 0x3029
ENCODING 12329
SWIDTH 886 0
DWIDTH 12 0
BBX 12 13 0 -2
BITMAP
0000
07E0
DC60
66C0
07B0
1D80
F7E0
3180
37F0
3180
6800
CFF0
0000
ENDCHAR
STARTCHAR 0x302A
ENCODING 12330
SWIDTH 886 0
DWIDTH 12 0
BBX 12 13 0 -2
BITMAP
1980
1980
FFF0
1980
FEB0
6D60
39C0
EFB0
0600
7FE0
1980
F0F0
0000
ENDCHAR
STARTCHAR 0x302B
ENCODING 12331
SWIDTH 886 0
DWIDTH 12 0
BBX 12 13 0 -2
BITMAP
1980
1980
FFF0
1980
FFF0
1B00
7FE0
6D60
6B60
71E0
6060
7FE0
0000
ENDCHAR
STARTCHAR 0x302C
ENCODING 12332
SWIDTH 886 0
DWIDTH 12 0
BBX 12 13 0 -2
BITMAP
0000
1DE0
F6C0
37F0
36B0
FBF0
36B0
77F0
75B0
D7F0
D580
31F0
0000
ENDCHAR
STARTCHAR 0x302D
ENCODING 12333
SWIDTH 886 0
DWIDTH 12 0
BBX 12 13 0 -2
BITMAP
0000
FFF0
0D00
7FE0
6D60
7FE0
0D00
FFF0
0600
1B60
6830
CFC0
0000
ENDCHAR
STARTCHAR 0x302E
ENCODING 12334
SWIDTH 886 0
DWIDTH 12 0
BBX 12 13 0 -2
BITMAP
0000
6FF0
6C30
F7F0
6C00
6FF0
6D60
75F0
ECC0
6BF0
68C0
E7F0
0000
ENDCHAR
STARTCHAR 0x302F
ENCODING 12335
SWIDTH 886 0
DWIDTH 12 0
BBX 12 13 0 -2
BITMAP
0000
0FF0
CC30
6FF0
0C00
CFF0
6D60
0DF0
6CC0
6BF0
D8C0
C7F0
0000
ENDCHAR
STARTCHAR 0x3030
ENCODING 12336
SWIDTH 886 0
DWIDTH 12 0
BBX 12 13 0 -2
BITMAP
0000
67E0
6660
6660
FBE0
6A60
6A60
6A60
6BE0
6800
D830
CFF0
0000
ENDCHAR
STARTCHAR 0x3031
ENCODING 12337
SWIDTH 886 0
DWIDTH 12 0
BBX 12 13 0 -2
BITMAP
1980
1980
FFF0
0600
3FC0
0CC0
FFF0
1980
3FE0
3600
FFF0
0600
0000
ENDCHAR
STARTCHAR 0x3032
ENCODING 12338
SWIDTH 886 0
DWIDTH 12 0
BBX 12 13 0 -2
BITMAP
1980
1980
FFF0
1980
7FE0
0000
3FE0
3060
3FE0
3000
6000
6000
0000
ENDCHAR
STARTCHAR 0x3033
ENCODING 12339
SWIDTH 886 0
DWIDTH 12 0
BBX 12 13 0 -2
BITMAP
0300
7B60
DA60
37F0
FD80
D7F0
FDA0
D530
FEE0
0380
D470
D5C0
0000
ENDCHAR
STARTCHAR 0x3034
ENCODING 12340
SWIDTH 886 0
DWIDTH 12 0
BBX 12 13 0 -2
BITMAP
0180
3180
37F0
FA60
3660
36C0
77F0
7180
D980
D7F0
3180
3180
0000
ENDCHAR
STARTCHAR 0x3035
ENCODING 12341
SWIDTH 886 0
DWIDTH 12 0
BBX 12 13 0 -2
BITMAP
0000
7FF0
6000
6180
6180
6180
6FF0
6180
6180
C180
C180
1FF0
0000
ENDCHAR
STARTCHAR 0x3036
ENCODING 12342
SWIDTH 886 0
DWIDTH 12 0
BBX 12 13 0 -2
BITMAP
3000
31C0
FD60
3630
FDA0
CCE0
FD60
CDA0
FC70
30E0
FDA0
3060
0000
ENDCHAR
STARTCHAR 0x3037
ENCODING 12343
SWIDTH 886 0
DWIDTH 12 0
BBX 12 13 0 -2
BITMAP
0000
6FE0
6660
F6C0
6680
66E0
6C60
7560
E9A0
68C0
63A0
EE30
0000
ENDCHAR
STARTCHAR 0x3038
ENCODING 12344
SWIDTH 886 0
DWIDTH 12 0
BBX 12 13 0 -2
BITMAP
0600
0600
FFF0
C030
6030
7DE0
6D60
7560
DD60
0D00
3B30
E1F0
0000
ENDCHAR
STARTCHAR 0x3039
ENCODING 12345
SWIDTH 886 0
DWIDTH 12 0
BBX 12 13 0 -2
BITMAP
0000
67F0
6630
FA30
6BF0
6A30
6A30
DBF0
F630
3A30
6630
6FF0
0000
ENDCHAR
STARTCHAR 0x303A
ENCODING 12346
SWIDTH 886 0
DWIDTH 12 0
BBX 12 13 0 -2
BITMAP
0180
3180
3180
FFF0
D500
D500
D500
FD00
3300
3500
3500
FDF0
0000
ENDCHAR
STARTCHAR 0x303B
ENCODING 12347
SWIDTH 886 0
DWIDTH 12 0
BBX 12 13 0 -2
BITMAP
0000
7980
CD80
3330
FD30
CDF0
FC00
CC00
FDF0
DB30
CD30
FBF0
0000
ENDCHAR
STARTCHAR 0x303C
ENCODING 12348
SWIDTH 886 0
DWIDTH 12 0
BBX 12 13 0 -2
BITMAP
0600
3600
67F0
CC30
F430
37D0
66D0
FBD0
36D0
DBD0
D030
30E0
0000
ENDCHAR
STARTCHAR 0x303D
ENCODING 12349
SWIDTH 886 0
DWIDTH 12 0
BBX 12 13 0 -2
BITMAP
0180
3180
6FF0
C180
F7F0
3340
6E70
FBE0
3660
D360
D3C0
3670
0000
ENDCHAR
STARTCHAR 0x303E
ENCODING 12350
SWIDTH 886 0
DWIDTH 12 0
BBX 12 13 0 -2
BITMAP
0180
7980
D980
31F0
FD80
D580
FD80
D5F0
FD30
0330
D530
D5F0
0000
ENDCHAR
STARTCHAR 0x303F
ENCODING 12351
SWIDTH 886 0
DWIDTH 12 0
BBX 12 13 0 -2
BITMAP
0180
01B0
FFF0
0180
7D80
6DB0
6CD0
7CD0
0060
1CE0
F3B0
0E30
0000
ENDCHAR
STARTCHAR 0x3040
ENCODING 12352
SWIDTH 886 0
DWIDTH 12 0
BBX 12 13 0 -2
BITMAP
0000
FFF0
0D00
7FE0
6D60
6D60
7FE0
36C0
FFF0
0E80
3AC0
E670
0000
ENDCHAR
STARTCHAR 0x3041
ENCODING 12353
SWIDTH 886 0
DWIDTH 12 0
BBX 12 13 0 -2
BITMAP
0000
33E0
3630
FC00
1800
1BF0
3000
7000
DBF0
3630
3630
37F0
0000
ENDCHAR
STARTCHAR 0x3042
ENCODING 12354
SWIDTH 886 0
DWIDTH 12 0
BBX 12 13 0 -2
BITMAP
0600
0600
FFF0
C030
CC30
0C00
FFF0
18C0
18C0
3980
0F80
78E0
0000
ENDCHAR
STARTCHAR 0x3043
ENCODING 12355
SWIDTH 886 0
DWIDTH 12 0
BBX 12 13 0 -2
BITMAP
0300
0300
7FF0
6600
7FF0
6D40
6B60
7FF0
6B60
6FE0
DB30
C3F0
0000
ENDCHAR
STARTCHAR 0x3044
ENCODING 12356
SWIDTH 886 0
DWIDTH 12 0
BBX 12 13 0 -2
BITMAP
0300
6300
6FF0
F830
6B30
6300
6FF0
7660
E660
6EC0
63C0
EE70
0000
ENDCHAR
STARTCHAR 0x3045
ENCODING 12357
SWIDTH 886 0
DWIDTH 12 0
BBX 12 13 0 -2
BITMAP
0180
0180
FFF0
DB60
DB60
DFF0
F800
DBF0
DA30
DBF0
FA30
07F0
0000
ENDCHAR
STARTCHAR 0x3046
ENCODING 12358
SWIDTH 886 0
DWIDTH 12 0
BBX 12 13 0 -2
BITMAP
0600
0600
FFF0
CC30
FFF0
18C0
1F80
36C0
FFF0
0E80
3AC0
E670
0000
ENDCHAR
STARTCHAR 0x3047
ENCODING 12359
SWIDTH 886 0
DWIDTH 12 0
BBX 12 13 0 -2
BITMAP
0000
FDF0
CD30
FDF0
CD30
FFF0
CD30
DFD0
D9B0
DFB0
D9B0
DFB0
0000
ENDCHAR
STARTCHAR 0x3048
ENCODING 12360
SWIDTH 886 0
DWIDTH 12 0
BBX 12 13 0 -2
BITMAP
0180
6980
FFF0
6A30
7AB0
3180
FFF0
D560
FD60
3340
FDC0
3770
0000
ENDCHAR
STARTCHAR 0x3049
ENCODING 12361
SWIDTH 886 0
DWIDTH 12 0
BBX 12 13 0 -2
BITMAP
0600
0600
FFF0
0600
0E80
3AC0
E660
0630
3FC0
30C0
30C0
3FC0
0000
ENDCHAR
STARTCHAR 0x304A
ENCODING 12362
SWIDTH 886 0
DWIDTH 12 0
BBX 12 13 0 -2
BITMAP
0000
3060
3660
3660
3360
3360
3060
30C0
3CC0
E1A0
0730
1C30
0000
ENDCHAR
STARTCHAR 0x304B
ENCODING 12363
SWIDTH 886 0
DWIDTH 12 0
BBX 12 13 0 -2
BITMAP
0000
37F0
31B0
61B0
6FF0
E1B0
61B0
6FF0
6180
6180
6300
6E00
0000
ENDCHAR
STARTCHAR 0x304C
ENCODING 12364
SWIDTH 886 0
DWIDTH 12 0
BBX 12 13 0 -2
BITMAP
0180
3180
3180
6FF0
6000
E660
6660
6660
6660
66C0
60C0
6FF0
0000
ENDCHAR
STARTCHAR 0x304D
ENCODING 12365
SWIDTH 886 0
DWIDTH 12 0
BBX 12 13 0 -2
BITMAP
0180
3180
3FF0
6300
6300
E6B0
6DB0
6DA0
74C0
6CC0
6DA0
6E30
0000
ENDCHAR
STARTCHAR 0x304E
ENCODING 12366
SWIDTH 886 0
DWIDTH 12 0
BBX 12 13 0 -2
BITMAP
0180
3180
37F0
6330
6FF0
EC60
6FE0
6180
6FF0
6D80
6FF0
6180
0000
ENDCHAR
STARTCHAR 0x304F
ENCODING 12367
SWIDTH 886 0
DWIDTH 12 0
BBX 12 13 0 -2
BITMAP
0000
FFF0
C030
CDB0
DFD0
CDB0
CDB0
DFD0
D9B0
D9B0
C030
FFF0
0000
ENDCHAR
STARTCHAR 0x3050
ENCODING 12368
SWIDTH 886 0
DWIDTH 12 0
BBX 12 13 0 -2
BITMAP
0600
0600
FFF0
0600
7FE0
0660
7FE0
6600
FFF0
0D30
39C0
E070
0000
ENDCHAR
STARTCHAR 0x3051
ENCODING 12369
SWIDTH 886 0
DWIDTH 12 0
BBX 12 13 0 -2
BITMAP
0000
7FE0
0600
FFF0
0E80
3AC0
E670
0C00
FFF0
18C0
1F80
70E0
0000
ENDCHAR
STARTCHAR 0x3052
ENCODING 12370
SWIDTH 886 0
DWIDTH 12 0
BBX 12 13 0 -2
BITMAP
00C0
00D0
7FF0
60C0
7F40
6CD0
7FD0
6B50
6B60
6A60
CED0
DBB0
0000
ENDCHAR
STARTCHAR 0x3053
ENCODING 12371
SWIDTH 886 0
DWIDTH 12 0
BBX 12 13 0 -2
BITMAP
0030
7F30
6330
7FF0
6030
7F30
61B0
7F50
6C30
D530
D530
1C70
0000
ENDCHAR
STARTCHAR 0x3054
ENCODING 12372
SWIDTH 886 0
DWIDTH 12 0
BBX 12 13 0 -2
BITMAP
0300
3360
3360
37F0
D6C0
D7F0
DAC0
D6C0
D7F0
36C0
36C0
37F0
0000
ENDCHAR
STARTCHAR 0x3055
ENCODING 12373
SWIDTH 886 0
DWIDTH 12 0
BBX 12 13 0 -2
BITMAP
0600
0600
FFF0
1980
FFF0
30C0
3FC0
30C0
3FC0
1B60
6830
CFC0
0000
ENDCHAR
STARTCHAR 0x3056
ENCODING 12374
SWIDTH 886 0
DWIDTH 12 0
BBX 12 13 0 -2
BITMAP
0060
FC60
CFF0
FC60
C360
FDA0
3060
D460
D6E0
1800
6860
CFB0
0000
ENDCHAR
STARTCHAR 0x3057
ENCODING 12375
SWIDTH 886 0
DWIDTH 12 0
BBX 12 13 0 -2
BITMAP
0000
3FE0
3060
3FE0
3060
3FE0
1800
3FF0
6DB0
CDB0
1B30
36E0
0000
ENDCHAR
STARTCHAR 0x3058
ENCODING 12376
SWIDTH 886 0
DWIDTH 12 0
BBX 12 13 0 -2
BITMAP
0180
3180
37F0
FB40
3660
3430
77F0
7030
D7B0
D6B0
37B0
3070
0000
ENDCHAR
STARTCHAR 0x3059
ENCODING 12377
SWIDTH 886 0
DWIDTH 12 0
BBX 12 13 0 -2
BITMAP
3300
1B00
0600
7FC0
0CC0
1FE0
3060
7FF0
C030
6AB0
6AB0
00E0
0000
ENDCHAR
STARTCHAR 0x305A
ENCODING 12378
SWIDTH 886 0
DWIDTH 12 0
BBX 12 13 0 -2
BITMAP
0000
7FE0
6660
7FE0
6660
7FE0
0000
FFF0
3660
3360
31C0
FC70
0000
ENDCHAR
STARTCHAR 0x305B
ENCODING 12379
SWIDTH 886 0
DWIDTH 12 0
BBX 12 13 0 -2
BITMAP
0000
7FE0
6660
7FE0
6660
7FE0
1980
FFF0
1980
FFF0
30C0
6060
0000
ENDCHAR
STARTCHAR 0x305C
ENCODING 12380
SWIDTH 886 0
DWIDTH 12 0
BBX 12 13 0 -2
BITMAP
0180
1D80
F3F0
3630
3360
F9C0
3700
73F0
7630
D360
D1C0
3700
0000
ENDCHAR
STARTCHAR 0x305D
ENCODING 12381
SWIDTH 886 0
DWIDTH 12 0
BBX 12 13 0 -2
BITMAP
0300
3360
6360
C7F0
FAC0
37F0
66C0
FAC0
37F0
DAC0
D6C0
37F0
0000
ENDCHAR
STARTCHAR 0x305E
ENCODING 12382
SWIDTH 886 0
DWIDTH 12 0
BBX 12 13 0 -2
BITMAP
00C0
30C0
6FF0
C1B0
F7F0
3630
67F0
F8C0
37F0
DAC0
D7F0
30C0
0000
ENDCHAR
STARTCHAR 0x305F
ENCODING 12383
SWIDTH 886 0
DWIDTH 12 0
BBX 12 13 0 -2
BITMAP
0000
7FF0
6630
7FF0
6630
7FF0
3060
3FE0
3060
3FE0
3060
30E0
0000
ENDCHAR
STARTCHAR 0x3060
ENCODING 12384
SWIDTH 886 0
DWIDTH 12 0
BBX 12 13 0 -2
BITMAP
1980
1980
FFF0
0600
FFF0
1A80
76E0
0C00
FFF0
18C0
1F80
70E0
0000
ENDCHAR
STARTCHAR 0x3061
ENCODING 12385
SWIDTH 886 0
DWIDTH 12 0
BBX 12 13 0 -2
BITMAP
0600
0600
FFF0
0600
0C00
1B30
3360
71C0
D180
30C0
3760
7C30
0000
ENDCHAR
STARTCHAR 0x3062
ENCODING 12386
SWIDTH 886 0
DWIDTH 12 0
BBX 12 13 0 -2
BITMAP
0000
F7F0
0DB0
F7F0
0DB0
F7F0
0660
07E0
F660
D7E0
D660
F6E0
0000
ENDCHAR
STARTCHAR 0x3063
ENCODING 12387
SWIDTH 886 0
DWIDTH 12 0
BBX 12 13 0 -2
BITMAP
0180
0180
6FF0
31B0
0FF0
0660
F7F0
36C0
37F0
30C0
6800
CFF0
0000
ENDCHAR
STARTCHAR 0x3064
ENCODING 12388
SWIDTH 886 0
DWIDTH 12 0
BBX 12 13 0 -2
BITMAP
0180
0180
CFF0
6DB0
1FF0
0660
F7E0
3660
37E0
3430
6800
CFF0
0000
ENDCHAR
STARTCHAR 0x3065
ENCODING 12389
SWIDTH 886 0
DWIDTH 12 0
BBX 12 13 0 -2
BITMAP
0000
FFF0
D800
DFE0
DB00
D300
DFE0
C680
CCC0
D860
C000
FFF0
0000
ENDCHAR
STARTCHAR 0x3066
ENCODING 12390
SWIDTH 886 0
DWIDTH 12 0
BBX 12 13 0 -2
BITMAP
1980
1980
1980
FFF0
1980
1980
1980
FFF0
3180
3180
6180
6180
0000
ENDCHAR
STARTCHAR 0x3067
ENCODING 12391
SWIDTH 886 0
DWIDTH 12 0
BBX 12 13 0 -2
BITMAP
0600
0600
FFF0
18C0
3180
1B00
0E60
78C0
0180
0700
1DC0
F070
0000
ENDCHAR
STARTCHAR 0x3068
ENCODING 12392
SWIDTH 886 0
DWIDTH 12 0
BBX 12 13 0 -2
BITMAP
00C0
60D0
6FF0
60C0
F740
6D50
6D50
6F60
6060
6F50
F1B0
0730
0000
ENDCHAR
STARTCHAR 0x3069
ENCODING 12393
SWIDTH 886 0
DWIDTH 12 0
BBX 12 13 0 -2
BITMAP
0600
0600
FFF0
0D80
18C0
FFE0
30D0
3FC0
30C0
3FC0
30C0
31C0
0000
ENDCHAR
STARTCHAR 0x306A
ENCODING 12394
SWIDTH 886 0
DWIDTH 12 0
BBX 12 13 0 -2
BITMAP
1800
19F0
FFB0
31B0
31A0
7EC0
E6A0
7EB0
66B0
7EB0
66E0
6E80
0000
ENDCHAR
STARTCHAR 0x306B
ENCODING 12395
SWIDTH 886 0
DWIDTH 12 0
BBX 12 13 0 -2
BITMAP
0180
06A0
FDD0
36A0
3550
37F0
7980
EBF0
6AC0
6B50
6CE0
7BB0
0000
ENDCHAR
STARTCHAR 0x306C
ENCODING 12396
SWIDTH 886 0
DWIDTH 12 0
BBX 12 13 0 -2
BITMAP
0000
0000
0000
0000
0000
0030
FFF0
0000
0000
0000
0000
0000
0000
ENDCHAR
STARTCHAR 0x306D
ENCODING 12397
SWIDTH 886 0
DWIDTH 12 0
BBX 12 13 0 -2
BITMAP
0600
0600
FFF0
0600
7FE0
0000
FFF0
D830
D9D0
1F00
1860
1FE0
0000
ENDCHAR
STARTCHAR 0x306E
ENCODING 12398
SWIDTH 886 0
DWIDTH 12 0
BBX 12 13 0 -2
BITMAP
18C0
0CC0
C180
7FF0
0CC0
CCC0
6860
1FF0
6AA0
6AA0
DAA0
DFF0
0000
ENDCHAR
STARTCHAR 0x306F
ENCODING 12399
SWIDTH 886 0
DWIDTH 12 0
BBX 12 13 0 -2
BITMAP
0000
07E0
CCC0
6FF0
0DB0
0DB0
F7F0
3340
36C0
34F0
6800
CFF0
0000
ENDCHAR
STARTCHAR 0x3070
ENCODING 12400
SWIDTH 886 0
DWIDTH 12 0
BBX 12 13 0 -2
BITMAP
0000
1FD0
F330
35A0
3660
F800
35F0
7530
75F0
D530
D530
35F0
0000
ENDCHAR
STARTCHAR 0x3071
ENCODING 12401
SWIDTH 886 0
DWIDTH 12 0
BBX 12 13 0 -2
BITMAP
1980
1980
FFF0
1980
0600
67F0
35B0
19A0
0180
3340
6660
DC30
0000
ENDCHAR
STARTCHAR 0x3072
ENCODING 12402
SWIDTH 886 0
DWIDTH 12 0
BBX 12 13 0 -2
BITMAP
1980
1980
FFF0
1980
0000
7FE0
0600
0600
FFF0
0600
0600
1E00
0000
ENDCHAR
STARTCHAR 0x3073
ENCODING 12403
SWIDTH 886 0
DWIDTH 12 0
BBX 12 13 0 -2
BITMAP
0000
7FF0
DB30
3770
FCC0
D770
FBB0
D550
FB70
0D50
DBB0
D6E0
0000
ENDCHAR
STARTCHAR 0x3074
ENCODING 12404
SWIDTH 886 0
DWIDTH 12 0
BBX 12 13 0 -2
BITMAP
0C00
0C00
18C0
18C0
3060
FFE0
1B30
1B30
1B00
1B00
3330
E3F0
0000
ENDCHAR
STARTCHAR 0x3075
ENCODING 12405
SWIDTH 886 0
DWIDTH 12 0
BBX 12 13 0 -2
BITMAP
0000
1C00
F3F0
C330
C330
FD30
C330
C330
C330
C330
FD70
0300
0000
ENDCHAR
STARTCHAR 0x3076
ENCODING 12406
SWIDTH 886 0
DWIDTH 12 0
BBX 12 13 0 -2
BITMAP
0000
0FF0
F5B0
D5B0
D7F0
D5B0
D5B0
D5B0
D550
D670
F430
0FF0
0000
ENDCHAR
STARTCHAR 0x3077
ENCODING 12407
SWIDTH 886 0
DWIDTH 12 0
BBX 12 13 0 -2
BITMAP
0000
7FE0
6060
7FE0
0000
7FE0
6060
7FE0
6060
7FE0
30C0
E070
0000
ENDCHAR
STARTCHAR 0x3078
ENCODING 12408
SWIDTH 886 0
DWIDTH 12 0
BBX 12 13 0 -2
BITMAP
0000
FFF0
C630
C630
DFD0
C630
C630
CD30
D9B0
D0D0
C030
FFF0
0000
ENDCHAR
STARTCHAR 0x3079
ENCODING 12409
SWIDTH 886 0
DWIDTH 12 0
BBX 12 13 0 -2
BITMAP
0000
6FF0
6DB0
FDB0
6FF0
6DB0
6DB0
CDB0
F550
3E70
6C30
6FF0
0000
ENDCHAR
STARTCHAR 0x307A
ENCODING 12410
SWIDTH 886 0
DWIDTH 12 0
BBX 12 13 0 -2
BITMAP
0000
FC60
0C60
0C60
FC60
C060
C060
FC60
0C60
0C60
1860
7060
0000
ENDCHAR
STARTCHAR 0x307B
ENCODING 12411
SWIDTH 886 0
DWIDTH 12 0
BBX 12 13 0 -2
BITMAP
0300
7B00
CDF0
3350
FD50
CD50
FCC0
CCC0
FDA0
D9A0
CD30
FA30
0000
ENDCHAR
STARTCHAR 0x307C
ENCODING 12412
SWIDTH 886 0
DWIDTH 12 0
BBX 12 13 0 -2
BITMAP
0000
1FD0
C330
6DA0
0660
C000
6FF0
0180
6FF0
6180
C180
DFF0
0000
ENDCHAR
STARTCHAR 0x307D
ENCODING 12413
SWIDTH 886 0
DWIDTH 12 0
BBX 12 13 0 -2
BITMAP
0600
6C60
69A0
6FA0
6660
6DA0
6FA0
69A0
6FA0
69B0
DFB0
D9B0
0000
ENDCHAR
STARTCHAR 0x307E
ENCODING 12414
SWIDTH 886 0
DWIDTH 12 0
BBX 12 13 0 -2
BITMAP
1980
1980
FFF0
1980
FBE0
DA30
D3E0
D0C0
DBF0
DB00
F630
C7F0
0000
ENDCHAR
STARTCHAR 0x3121
ENCODING 12577
SWIDTH 886 0
DWIDTH 12 0
BBX 12 13 0 -2
BITMAP
0180
F180
D7F0
D430
E7F0
D000
D000
D7F0
D340
E340
C6D0
DCF0
0000
ENDCHAR
STARTCHAR 0x3122
ENCODING 12578
SWIDTH 886 0
DWIDTH 12 0
BBX 12 13 0 -2
BITMAP
0000
F3C0
D660
D430
EBE0
D000
D7E0
D0C0
D7F0
E600
CC30
CFF0
0000
ENDCHAR
STARTCHAR 0x3123
ENCODING 12579
SWIDTH 886 0
DWIDTH 12 0
BBX 12 13 0 -2
BITMAP
0000
F7F0
D6B0
D6A0
EFF0
D030
D7F0
D030
D7F0
E680
DA60
D3D0
0000
ENDCHAR
STARTCHAR 0x3124
ENCODING 12580
SWIDTH 886 0
DWIDTH 12 0
BBX 12 13 0 -2
BITMAP
3000
37F0
FA30
6BF0
6800
FFF0
0630
FBF0
DA30
FBF0
DB60
FE30
0000
ENDCHAR
STARTCHAR 0x3125
ENCODING 12581
SWIDTH 886 0
DWIDTH 12 0
BBX 12 13 0 -2
BITMAP
0060
0060
F860
DFF0
D860
D860
DA60
DB60
D860
D860
F860
01E0
0000
ENDCHAR
STARTCHAR 0x3126
ENCODING 12582
SWIDTH 886 0
DWIDTH 12 0
BBX 12 13 0 -2
BITMAP
0600
0600
FFF0
0600
0600
0C00
1FE0
3860
E860
1860
1860
1FE0
0000
ENDCHAR
STARTCHAR 0x3127
ENCODING 12583
SWIDTH 886 0
DWIDTH 12 0
BBX 12 13 0 -2
BITMAP
0600
0600
FFF0
C030
C030
3FC0
0600
0600
FFF0
0600
0600
1E00
0000
ENDCHAR
STARTCHAR 0x3128
ENCODING 12584
SWIDTH 886 0
DWIDTH 12 0
BBX 12 13 0 -2
BITMAP
0600
0C00
3FC0
30C0
3FC0
3000
3FF0
3000
3FF0
0030
6AB0
DAB0
0000
ENDCHAR
STARTCHAR 0x3129
ENCODING 12585
SWIDTH 886 0
DWIDTH 12 0
BBX 12 13 0 -2
BITMAP
0000
FDF0
0C30
0C30
CD30
6DB0
1C70
34D0
6DB0
CD30
0C30
1C70
0000
ENDCHAR
STARTCHAR 0x312A
ENCODING 12586
SWIDTH 886 0
DWIDTH 12 0
BBX 12 13 0 -2
BITMAP
0000
0FF0
60C0
30C0
00C0
0FF0
F0C0
30C0
30C0
31C0
6800
CFF0
0000
ENDCHAR
STARTCHAR 0x312B
ENCODING 12587
SWIDTH 886 0
DWIDTH 12 0
BBX 12 13 0 -2
BITMAP
0000
FFF0
0600
0600
FFF0
C630
D6B0
DAD0
C630
D6B0
DAD0
C670
0000
ENDCHAR
STARTCHAR 0x312C
ENCODING 12588
SWIDTH 886 0
DWIDTH 12 0
BBX 12 13 0 -2
BITMAP
0000
0EF0
79B0
61B0
66B0
66B0
66B0
6EB0
F6B0
06B0
0D80
3980
0000
ENDCHAR
STARTCHAR 0x312D
ENCODING 12589
SWIDTH 886 0
DWIDTH 12 0
BBX 12 13 0 -2
BITMAP
CCC0
6D80
1BE0
FD60
35E0
FD60
D3F0
FD00
35F0
7430
D6B0
35B0
0000
ENDCHAR
STARTCHAR 0x312E
ENCODING 12590
SWIDTH 886 0
DWIDTH 12 0
BBX 12 13 0 -2
BITMAP
0600
0600
FFF0
CD30
7BE0
3660
FFE0
3660
FFE0
3340
6B50
CEF0
0000
ENDCHAR
STARTCHAR 0x312F
ENCODING 12591
SWIDTH 886 0
DWIDTH 12 0
BBX 12 13 0 -2
BITMAP
0000
7FC0
0CC0
0CC0
0CC0
0CC0
FFF0
1980
1980
1980
1980
FFF0
0000
ENDCHAR
STARTCHAR 0x3130
ENCODING 12592
SWIDTH 886 0
DWIDTH 12 0
BBX 12 13 0 -2
BITMAP
0300
0360
FD60
37F0
36C0
37F0
7AC0
EAC0
6BF0
6AC0
6AC0
7BF0
0000
ENDCHAR
STARTCHAR 0x3131
ENCODING 12593
SWIDTH 886 0
DWIDTH 12 0
BBX 12 13 0 -2
BITMAP
0000
0700
1C00
71F0
6030
6030
6030
7DF0
6030
6030
6030
7FF0
0000
ENDCHAR
STARTCHAR 0x3132
ENCODING 12594
SWIDTH 886 0
DWIDTH 12 0
BBX 12 13 0 -2
BITMAP
0000
0FE0
CC60
6DE0
0D60
DFF0
6830
1BD0
6AD0
6AD0
DBD0
D870
0000
ENDCHAR
STARTCHAR 0x3133
ENCODING 12595
SWIDTH 886 0
DWIDTH 12 0
BBX 12 13 0 -2
BITMAP
0300
03E0
F300
DFF0
D630
DFE0
D600
D7F0
DB50
D560
F340
1FF0
0000
ENDCHAR
STARTCHAR 0x3134
ENCODING 12596
SWIDTH 886 0
DWIDTH 12 0
BBX 12 13 0 -2
BITMAP
0000
07F0
FA30
DBF0
DA30
DBF0
DA30
DA30
DBF0
F800
0660
0C30
0000
ENDCHAR
STARTCHAR 0x3135
ENCODING 12597
SWIDTH 886 0
DWIDTH 12 0
BBX 12 13 0 -2
BITMAP
30C0
3540
FAF0
7560
D6D0
FFF0
D9B0
FFF0
C6B0
FED0
CC30
FB70
0000
ENDCHAR
STARTCHAR 0x3136
ENCODING 12598
SWIDTH 886 0
DWIDTH 12 0
BBX 12 13 0 -2
BITMAP
1980
1980
FFF0
1980
FC60
CFF0
FC60
C360
FDA0
3060
D460
D6E0
0000
ENDCHAR
STARTCHAR 0x3137
ENCODING 12599
SWIDTH 886 0
DWIDTH 12 0
BBX 12 13 0 -2
BITMAP
0000
7BE0
DB60
33E0
FD60
D7F0
FD50
D7F0
FD60
0360
D5C0
D770
0000
ENDCHAR
STARTCHAR 0x3138
ENCODING 12600
SWIDTH 886 0
DWIDTH 12 0
BBX 12 13 0 -2
BITMAP
0300
6300
6FF0
FB60
6B40
6FF0
6B00
DAE0
F780
3A00
6630
67F0
0000
ENDCHAR
STARTCHAR 0x3139
ENCODING 12601
SWIDTH 886 0
DWIDTH 12 0
BBX 12 13 0 -2
BITMAP
0000
FFF0
C000
DEF0
D6A0
DEA0
D6A0
DFF0
D060
D4E0
D6A0
DD70
0000
ENDCHAR
STARTCHAR 0x313A
ENCODING 12602
SWIDTH 886 0
DWIDTH 12 0
BBX 12 13 0 -2
BITMAP
0180
01B0
DFF0
6180
0FF0
CDB0
6FF0
0DB0
0FF0
35B0
6DB0
CDB0
0000
ENDCHAR
STARTCHAR 0x313B
ENCODING 12603
SWIDTH 886 0
DWIDTH 12 0
BBX 12 13 0 -2
BITMAP
0000
7FF0
6CC0
6CC0
6CC0
6CC0
6CC0
6C60
6DA0
CDA0
DFB0
C030
0000
ENDCHAR
STARTCHAR 0x313C
ENCODING 12604
SWIDTH 886 0
DWIDTH 12 0
BBX 12 13 0 -2
BITMAP
0000
FDF0
CD30
FDF0
CD30
FDF0
C030
DFD0
C630
DFB0
C630
DFD0
0000
ENDCHAR
STARTCHAR 0x313D
ENCODING 12605
SWIDTH 886 0
DWIDTH 12 0
BBX 12 13 0 -2
BITMAP
0660
06C0
FFF0
D340
D7F0
D550
D6F0
D430
DFF0
D060
F660
0360
0000
ENDCHAR
STARTCHAR 0x313E
ENCODING 12606
SWIDTH 886 0
DWIDTH 12 0
BBX 12 13 0 -2
BITMAP
0000
7FE0
0000
0000
0000
FFF0
1800
18C0
30C0
30C0
63A0
7E60
0000
ENDCHAR
STARTCHAR 0x313F
ENCODING 12607
SWIDTH 886 0
DWIDTH 12 0
BBX 12 13 0 -2
BITMAP
0000
1FF0
D9B0
6FF0
0DB0
0FF0
F5B0
37F0
3180
37F0
6980
CFF0
0000
ENDCHAR
STARTCHAR 0x3140
ENCODING 12608
SWIDTH 886 0
DWIDTH 12 0
BBX 12 13 0 -2
BITMAP
0000
7FE0
0600
FFF0
D6B0
DAD0
0600
7FE0
0000
FFF0
30C0
7FA0
0000
ENDCHAR
STARTCHAR 0x3141
ENCODING 12609
SWIDTH 886 0
DWIDTH 12 0
BBX 12 13 0 -2
BITMAP
1980
1980
FFF0
1980
3000
37F0
6180
E180
6FF0
6180
6180
6FF0
0000
ENDCHAR
STARTCHAR 0x3142
ENCODING 12610
SWIDTH 886 0
DWIDTH 12 0
BBX 12 13 0 -2
BITMAP
0000
7BF0
CD60
3360
FDE0
CD60
FD60
CDE0
FD60
D370
DBE0
F460
0000
ENDCHAR
STARTCHAR 0x3143
ENCODING 12611
SWIDTH 886 0
DWIDTH 12 0
BBX 12 13 0 -2
BITMAP
1800
1EF0
1830
FF30
DB50
6AD0
D550
7ED0
E760
7E60
66D0
7FB0
0000
ENDCHAR
STARTCHAR 0x3144
ENCODING 12612
SWIDTH 886 0
DWIDTH 12 0
BBX 12 13 0 -2
BITMAP
0600
3660
36C0
FFF0
D9B0
D9B0
DFB0
0600
3FC0
30C0
30C0
3FC0
0000
ENDCHAR
STARTCHAR 0x3145
ENCODING 12613
SWIDTH 886 0
DWIDTH 12 0
BBX 12 13 0 -2
BITMAP
0000
FDF0
CD30
FDF0
CD30
FDF0
36C0
6C60
FFF0
18C0
1F80
70E0
0000
ENDCHAR
STARTCHAR 0x3146
ENCODING 12614
SWIDTH 886 0
DWIDTH 12 0
BBX 12 13 0 -2
BITMAP
0000
FE30
C660
FEC0
C600
FE30
1860
FF40
6C00
7C30
DA60
DB40
0000
ENDCHAR
STARTCHAR 0x3147
ENCODING 12615
SWIDTH 886 0
DWIDTH 12 0
BBX 12 13 0 -2
BITMAP
0180
0180
F7F0
D5B0
D5B0
D5B0
F5B0
DFF0
D180
D340
F660
1C30
0000
ENDCHAR
STARTCHAR 0x3148
ENCODING 12616
SWIDTH 886 0
DWIDTH 12 0
BBX 12 13 0 -2
BITMAP
0600
0600
7FE0
6660
7FE0
6660
7FE0
0360
0340
0380
0EB0
F8F0
0000
ENDCHAR
STARTCHAR 0x3149
ENCODING 12617
SWIDTH 886 0
DWIDTH 12 0
BBX 12 13 0 -2
BITMAP
0C60
66C0
3180
FFF0
C630
0600
7FE0
0600
0E80
3AC0
E670
0600
0000
ENDCHAR
STARTCHAR 0x314A
ENCODING 12618
SWIDTH 886 0
DWIDTH 12 0
BBX 12 13 0 -2
BITMAP
1C00
0700
0000
3E60
06C0
FA80
1B00
1A80
36C0
6660
C630
1E00
0000
ENDCHAR
STARTCHAR 0x314B
ENCODING 12619
SWIDTH 886 0
DWIDTH 12 0
BBX 12 13 0 -2
BITMAP
0300
0180
C000
6F80
01B0
DEA0
66C0
0680
6DC0
6DA0
D9B0
DB80
0000
ENDCHAR
STARTCHAR 0x314C
ENCODING 12620
SWIDTH 886 0
DWIDTH 12 0
BBX 12 13 0 -2
BITMAP
0180
0180
DFF0
69B0
1FF0
D9B0
6FF0
01B0
01A0
31C0
6750
DC70
0000
ENDCHAR
STARTCHAR 0x314D
ENCODING 12621
SWIDTH 886 0
DWIDTH 12 0
BBX 12 13 0 -2
BITMAP
0660
0660
F7F0
66A0
6180
F7F0
6DB0
6DB0
6FF0
6340
F660
1C30
0000
ENDCHAR
STARTCHAR 0x314E
ENCODING 12622
SWIDTH 886 0
DWIDTH 12 0
BBX 12 13 0 -2
BITMAP
0000
FFC0
3180
3EF0
66B0
6C30
CEE0
D800
7FE0
6D60
6D60
FFF0
0000
ENDCHAR
STARTCHAR 0x314F
ENCODING 12623
SWIDTH 886 0
DWIDTH 12 0
BBX 12 13 0 -2
BITMAP
0000
CFF0
F980
C7F0
FA30
07F0
FA30
37F0
FE30
37F0
7B60
D630
0000
ENDCHAR
STARTCHAR 0x3150
ENCODING 12624
SWIDTH 886 0
DWIDTH 12 0
BBX 12 13 0 -2
BITMAP
0000
CFF0
F980
C7F0
FA30
07F0
FA30
07F0
FE30
37F0
D360
D630
0000
ENDCHAR
STARTCHAR 0x3151
ENCODING 12625
SWIDTH 886 0
DWIDTH 12 0
BBX 12 13 0 -2
BITMAP
1980
1980
FFF0
1A80
0600
3FC0
36C0
36C0
FFF0
0D00
39C0
E070
0000
ENDCHAR
STARTCHAR 0x3152
ENCODING 12626
SWIDTH 886 0
DWIDTH 12 0
BBX 12 13 0 -2
BITMAP
0600
36F0
6F80
C680
1FF0
35B0
6FB0
E330
6FD0
6B30
7FD0
6370
0000
ENDCHAR
STARTCHAR 0x3153
ENCODING 12627
SWIDTH 886 0
DWIDTH 12 0
BBX 12 13 0 -2
BITMAP
0300
F180
0000
F780
01B0
F1A0
1EC0
0680
F6C0
D5A0
D9B0
F780
0000
ENDCHAR
STARTCHAR 0x3154
ENCODING 12628
SWIDTH 886 0
DWIDTH 12 0
BBX 12 13 0 -2
BITMAP
0660
3B60
6CC0
C7F0
FA30
3630
FBF0
3340
DB40
D340
36D0
FCF0
0000
ENDCHAR
STARTCHAR 0x3155
ENCODING 12629
SWIDTH 886 0
DWIDTH 12 0
BBX 12 13 0 -2
BITMAP
0180
0180
DFF0
6D80
0DE0
DB60
6B60
3AA0
6AA0
68C0
D9C0
DB70
0000
ENDCHAR
STARTCHAR 0x3156
ENCODING 12630
SWIDTH 886 0
DWIDTH 12 0
BBX 12 13 0 -2
BITMAP
0300
0300
7FF0
6000
EFC0
6CD0
6CF0
E000
6FE0
6C60
C7C0
DC70
0000
ENDCHAR
STARTCHAR 0x3157
ENCODING 12631
SWIDTH 886 0
DWIDTH 12 0
BBX 12 13 0 -2
BITMAP
3180
1980
0300
FFF0
1980
30C0
6060
FFF0
6D60
6D60
6D60
FFF0
0000
ENDCHAR
STARTCHAR 0x3158
ENCODING 12632
SWIDTH 886 0
DWIDTH 12 0
BBX 12 13 0 -2
BITMAP
0000
FDF0
D330
FD30
D330
FDF0
D340
FD40
0D60
D560
0E30
3A30
0000
ENDCHAR
STARTCHAR 0x3159
ENCODING 12633
SWIDTH 886 0
DWIDTH 12 0
BBX 12 13 0 -2
BITMAP
0660
3360
30C0
37F0
DA30
D630
D7F0
D340
D340
3340
36D0
3CF0
0000
ENDCHAR
STARTCHAR 0x315A
ENCODING 12634
SWIDTH 886 0
DWIDTH 12 0
BBX 12 13 0 -2
BITMAP
0000
F7E0
0C60
F7E0
0C60
F7E0
0600
0FF0
FC30
D5B0
D7B0
F0E0
0000
ENDCHAR
STARTCHAR 0x315B
ENCODING 12635
SWIDTH 886 0
DWIDTH 12 0
BBX 12 13 0 -2
BITMAP
30C0
30D0
FDF0
3340
3350
FF50
3360
3D60
D350
D7B0
F800
CFF0
0000
ENDCHAR
STARTCHAR 0x315C
ENCODING 12636
SWIDTH 886 0
DWIDTH 12 0
BBX 12 13 0 -2
BITMAP
0000
FDF0
CD30
FDF0
CD30
FDF0
CD30
DFB0
D9B0
DFB0
CD50
DBD0
0000
ENDCHAR
STARTCHAR 0x315D
ENCODING 12637
SWIDTH 886 0
DWIDTH 12 0
BBX 12 13 0 -2
BITMAP
0000
37F0
3180
FBF0
3630
37F0
7630
77F0
D660
D560
31C0
3770
0000
ENDCHAR
STARTCHAR 0x315E
ENCODING 12638
SWIDTH 886 0
DWIDTH 12 0
BBX 12 13 0 -2
BITMAP
0000
FFF0
D6C0
DED0
C3F0
DEC0
D6C0
DEE0
D6A0
DEA0
D730
D630
0000
ENDCHAR
STARTCHAR 0x315F
ENCODING 12639
SWIDTH 886 0
DWIDTH 12 0
BBX 12 13 0 -2
BITMAP
0000
FFF0
C630
C630
C630
C630
FFF0
C030
C030
C030
C030
C0F0
0000
ENDCHAR
STARTCHAR 0x3160
ENCODING 12640
SWIDTH 886 0
DWIDTH 12 0
BBX 12 13 0 -2
BITMAP
0000
FFF0
C630
DFD0
C630
FFF0
D9B0
DFB0
CD50
DDB0
CCD0
FFF0
0000
ENDCHAR
STARTCHAR 0x3161
ENCODING 12641
SWIDTH 886 0
DWIDTH 12 0
BBX 12 13 0 -2
BITMAP
0000
6FF0
6D30
6DF0
F530
6DF0
6D80
6FF0
6DA0
6DE0
F530
0FF0
0000
ENDCHAR
STARTCHAR 0x3162
ENCODING 12642
SWIDTH 886 0
DWIDTH 12 0
BBX 12 13 0 -2
BITMAP
0600
0600
FFF0
1980
36C0
7FF0
D6C0
3FC0
36C0
3FC0
0630
07F0
0000
ENDCHAR
STARTCHAR 0x3163
ENCODING 12643
SWIDTH 886 0
DWIDTH 12 0
BBX 12 13 0 -2
BITMAP
0600
0600
FFF0
D0D0
DFD0
30C0
3FC0
0C00
FFF0
18C0
1F80
70E0
0000
ENDCHAR
STARTCHAR 0x3164
ENCODING 12644
SWIDTH 886 0
DWIDTH 12 0
BBX 12 13 0 -2
BITMAP
0000
00E0
F780
3180
6180
C6F0
F680
3680
D680
6FF0
D800
CFF0
0000
ENDCHAR
STARTCHAR 0x3165
ENCODING 12645
SWIDTH 886 0
DWIDTH 12 0
BBX 12 13 0 -2
BITMAP
0000
7DF0
6D30
7530
DD70
0D00
3B30
E1F0
0600
1B60
6830
CFC0
0000
ENDCHAR
STARTCHAR 0x3166
ENCODING 12646
SWIDTH 886 0
DWIDTH 12 0
BBX 12 13 0 -2
BITMAP
0180
6180
6FF0
F660
6DB0
6FF0
6DB0
77F0
EDB0
6FF0
6180
E1F0
0000
ENDCHAR
STARTCHAR 0x3167
ENCODING 12647
SWIDTH 886 0
DWIDTH 12 0
BBX 12 13 0 -2
BITMAP
0000
6FF0
66B0
F6A0
6FF0
6180
6FF0
7300
E7E0
6D60
61C0
EF70
0000
ENDCHAR
STARTCHAR 0x3168
ENCODING 12648
SWIDTH 886 0
DWIDTH 12 0
BBX 12 13 0 -2
BITMAP
0000
03E0
C060
6660
0630
CC30
6C00
07F0
0630
3630
6630
C7F0
0000
ENDCHAR
STARTCHAR 0x3169
ENCODING 12649
SWIDTH 886 0
DWIDTH 12 0
BBX 12 13 0 -2
BITMAP
0180
0180
DFF0
6830
0FF0
C180
6FF0
0DB0
6FF0
6DB0
CFF0
D830
0000
ENDCHAR
STARTCHAR 0x316A
ENCODING 12650
SWIDTH 886 0
DWIDTH 12 0
BBX 12 13 0 -2
BITMAP
0600
0600
3660
66C0
0D00
39C0
E670
36C0
36C0
0D00
39C0
E070
0000
ENDCHAR
STARTCHAR 0x316B
ENCODING 12651
SWIDTH 886 0
DWIDTH 12 0
BBX 12 13 0 -2
BITMAP
0000
33E0
3660
D4C0
D3F0
D530
3530
35F0
6D30
6D30
CD30
CDF0
0000
ENDCHAR
STARTCHAR 0x316C
ENCODING 12652
SWIDTH 886 0
DWIDTH 12 0
BBX 12 13 0 -2
BITMAP
0000
37F0
3340
D7F0
D550
D550
37F0
3180
6BF0
6980
C180
CFF0
0000
ENDCHAR
STARTCHAR 0x316D
ENCODING 12653
SWIDTH 886 0
DWIDTH 12 0
BBX 12 13 0 -2
BITMAP
1980
1980
FFF0
0D00
3750
F0E0
3740
7550
D770
0000
6B60
CDB0
0000
ENDCHAR
STARTCHAR 0x316E
ENCODING 12654
SWIDTH 886 0
DWIDTH 12 0
BBX 12 13 0 -2
BITMAP
0180
3180
D7F0
6180
6FF0
D660
3660
77E0
D350
3ED0
3660
EFB0
0000
ENDCHAR
STARTCHAR 0x316F
ENCODING 12655
SWIDTH 886 0
DWIDTH 12 0
BBX 12 13 0 -2
BITMAP
0000
37E0
6060
C7E0
F060
37F0
6180
FB50
31E0
D750
DCD0
33C0
0000
ENDCHAR
STARTCHAR 0x3170
ENCODING 12656
SWIDTH 886 0
DWIDTH 12 0
BBX 12 13 0 -2
BITMAP
3600
36E0
FF60
D6C0
FFF0
D6D0
FED0
67F0
7E00
3600
3630
FFF0
0000
ENDCHAR
STARTCHAR 0x3171
ENCODING 12657
SWIDTH 886 0
DWIDTH 12 0
BBX 12 13 0 -2
BITMAP
1980
1980
FFF0
1980
6000
7DE0
6D60
7560
DD60
0D00
3B30
E3F0
0000
ENDCHAR
STARTCHAR 0x3172
ENCODING 12658
SWIDTH 886 0
DWIDTH 12 0
BBX 12 13 0 -2
BITMAP
1980
1980
FFF0
1980
FFF0
C630
DFD0
D9B0
DFB0
D550
CDB0
FFF0
0000
ENDCHAR
STARTCHAR 0x3173
ENCODING 12659
SWIDTH 886 0
DWIDTH 12 0
BBX 12 13 0 -2
BITMAP
0180
0180
CFF0
6180
1FF0
0660
F7E0
31B0
36A0
35B0
6800
CFF0
0000
ENDCHAR
STARTCHAR 0x3174
ENCODING 12660
SWIDTH 886 0
DWIDTH 12 0
BBX 12 13 0 -2
BITMAP
0000
39E0
6C60
C360
FB30
3630
FA00
33F0
D530
D530
3330
FDF0
0000
ENDCHAR
STARTCHAR 0x3175
ENCODING 12661
SWIDTH 886 0
DWIDTH 12 0
BBX 12 13 0 -2
BITMAP
0000
7DF0
6D30
D570
1B00
3FD0
F0F0
3FC0
30C0
3FF0
6030
DAB0
0000
ENDCHAR
STARTCHAR 0x3176
ENCODING 12662
SWIDTH 886 0
DWIDTH 12 0
BBX 12 13 0 -2
BITMAP
0600
6600
67F0
6C00
FBE0
6660
67E0
6000
6FF0
6D50
F550
1FF0
0000
ENDCHAR
STARTCHAR 0x3177
ENCODING 12663
SWIDTH 886 0
DWIDTH 12 0
BBX 12 13 0 -2
BITMAP
3000
31E0
3330
FE00
3000
31C0
3E70
6600
6600
C600
CDC0
3870
0000
ENDCHAR
STARTCHAR 0x3178
ENCODING 12664
SWIDTH 886 0
DWIDTH 12 0
BBX 12 13 0 -2
BITMAP
0000
1FF0
C300
6300
1FF0
C600
6600
07F0
0C30
3430
6060
C1C0
0000
ENDCHAR
STARTCHAR 0x3179
ENCODING 12665
SWIDTH 886 0
DWIDTH 12 0
BBX 12 13 0 -2
BITMAP
0000
37F0
D5B0
FFF0
D5B0
37F0
F980
37F0
3330
3330
FA30
06E0
0000
ENDCHAR
STARTCHAR 0x317A
ENCODING 12666
SWIDTH 886 0
DWIDTH 12 0
BBX 12 13 0 -2
BITMAP
0000
F9F0
D9B0
D9B0
D9B0
D9B0
DFB0
C030
C030
C030
C030
FFF0
0000
ENDCHAR
STARTCHAR 0x317B
ENCODING 12667
SWIDTH 886 0
DWIDTH 12 0
BBX 12 13 0 -2
BITMAP
0600
0600
7FE0
6660
6660
6660
6660
FFF0
0600
0D00
39C0
E070
0000
ENDCHAR
STARTCHAR 0x317C
ENCODING 12668
SWIDTH 886 0
DWIDTH 12 0
BBX 12 13 0 -2
BITMAP
0600
0C00
7FE0
6AA0
6660
7FE0
6660
6AA0
FFF0
0D00
39C0
E070
0000
ENDCHAR
STARTCHAR 0x317D
ENCODING 12669
SWIDTH 886 0
DWIDTH 12 0
BBX 12 13 0 -2
BITMAP
0300
3180
6000
CFF0
0180
3180
6180
EFF0
6180
6180
6180
6FF0
0000
ENDCHAR
STARTCHAR 0x317E
ENCODING 12670
SWIDTH 886 0
DWIDTH 12 0
BBX 12 13 0 -2
BITMAP
0300
0300
7FF0
6000
6300
6180
6000
6660
6630
6A00
D630
C3F0
0000
ENDCHAR
STARTCHAR 0x3221
ENCODING 12833
SWIDTH 886 0
DWIDTH 12 0
BBX 12 13 0 -2
BITMAP
0000
6FF0
6DB0
F5B0
6FF0
6DB0
6DB0
75B0
EFF0
6180
6180
E180
0000
ENDCHAR
STARTCHAR 0x3222
ENCODING 12834
SWIDTH 886 0
DWIDTH 12 0
BBX 12 13 0 -2
BITMAP
0000
0FF0
F980
D980
D980
D980
FBF0
D980
D980
D980
F980
0FF0
0000
ENDCHAR
STARTCHAR 0x3223
ENCODING 12835
SWIDTH 886 0
DWIDTH 12 0
BBX 12 13 0 -2
BITMAP
06C0
36C0
37F0
F6C0
3FF0
35B0
77F0
75B0
D7F0
D000
3660
3430
0000
ENDCHAR
STARTCHAR 0x3224
ENCODING 12836
SWIDTH 886 0
DWIDTH 12 0
BBX 12 13 0 -2
BITMAP
0300
FD00
C3F0
DB50
EB50
D350
D0C0
E8C0
CDA0
C1A0
FB30
0E30
0000
ENDCHAR
STARTCHAR 0x3225
ENCODING 12837
SWIDTH 886 0
DWIDTH 12 0
BBX 12 13 0 -2
BITMAP
0000
FDE0
C360
DB60
EB60
D670
D000
EBF0
DB30
C360
F9C0
0F70
0000
ENDCHAR
STARTCHAR 0x3226
ENCODING 12838
SWIDTH 886 0
DWIDTH 12 0
BBX 12 13 0 -2
BITMAP
0000
FFF0
0600
0600
0600
0600
7FE0
0600
0600
0600
0600
FFF0
0000
ENDCHAR
STARTCHAR 0x3227
ENCODING 12839
SWIDTH 886 0
DWIDTH 12 0
BBX 12 13 0 -2
BITMAP
0000
0F80
30C0
EC70
18C0
7FC0
0000
FDF0
6DB0
34D0
6DB0
DD70
0000
ENDCHAR
STARTCHAR 0x3228
ENCODING 12840
SWIDTH 886 0
DWIDTH 12 0
BBX 12 13 0 -2
BITMAP
0180
6300
6FF0
F6B0
35D0
36B0
6DD0
EEB0
7180
6FF0
6660
6C30
0000
ENDCHAR
STARTCHAR 0x3229
ENCODING 12841
SWIDTH 886 0
DWIDTH 12 0
BBX 12 13 0 -2
BITMAP
0600
36C0
FFF0
CC30
DFD0
30C0
3FC0
30C0
3FF0
0030
6AB0
DAB0
0000
ENDCHAR
STARTCHAR 0x322A
ENCODING 12842
SWIDTH 886 0
DWIDTH 12 0
BBX 12 13 0 -2
BITMAP
0180
FB00
C7E0
DA60
EBE0
D660
D7F0
EA00
DBF0
C030
FAB0
1AB0
0000
ENDCHAR
STARTCHAR 0x322B
ENCODING 12843
SWIDTH 886 0
DWIDTH 12 0
BBX 12 13 0 -2
BITMAP
1980
1980
7FE0
1980
FFF0
0600
3FC0
36C0
3FC0
36C0
3FC0
E070
0000
ENDCHAR
STARTCHAR 0x322C
ENCODING 12844
SWIDTH 886 0
DWIDTH 12 0
BBX 12 13 0 -2
BITMAP
0000
FFF0
C030
D9B0
D9B0
DB30
DFD0
C630
D6D0
D6D0
DFD0
C070
0000
ENDCHAR
STARTCHAR 0x322D
ENCODING 12845
SWIDTH 886 0
DWIDTH 12 0
BBX 12 13 0 -2
BITMAP
0180
0180
C180
6FF0
0DB0
CDB0
6DB0
0FF0
0180
3180
6180
C180
0000
ENDCHAR
STARTCHAR 0x322E
ENCODING 12846
SWIDTH 886 0
DWIDTH 12 0
BBX 12 13 0 -2
BITMAP
1980
1980
FFF0
1800
6980
3180
76B0
DAA0
3980
69C0
DB60
7630
0000
ENDCHAR
STARTCHAR 0x322F
ENCODING 12847
SWIDTH 886 0
DWIDTH 12 0
BBX 12 13 0 -2
BITMAP
0180
3180
3FF0
6660
6FF0
EC30
6FF0
6C30
6FF0
6680
6A60
77D0
0000
ENDCHAR
STARTCHAR 0x3230
ENCODING 12848
SWIDTH 886 0
DWIDTH 12 0
BBX 12 13 0 -2
BITMAP
0000
7FF0
6030
7FF0
6000
7FF0
6CC0
6FE0
6330
DFE0
C300
3FF0
0000
ENDCHAR
STARTCHAR 0x3231
ENCODING 12849
SWIDTH 886 0
DWIDTH 12 0
BBX 12 13 0 -2
BITMAP
0180
3180
37F0
3660
DFF0
D430
D7F0
D430
D7F0
3680
3A60
37D0
0000
ENDCHAR
STARTCHAR 0x3232
ENCODING 12850
SWIDTH 886 0
DWIDTH 12 0
BBX 12 13 0 -2
BITMAP
0180
F180
D7F0
D6C0
F7F0
D430
D7F0
F430
D7F0
D680
DA60
D7D0
0000
ENDCHAR
STARTCHAR 0x3233
ENCODING 12851
SWIDTH 886 0
DWIDTH 12 0
BBX 12 13 0 -2
BITMAP
0000
37E0
30C0
F980
37F0
35B0
77F0
75B0
D7F0
D5B0
35B0
35B0
0000
ENDCHAR
STARTCHAR 0x3234
ENCODING 12852
SWIDTH 886 0
DWIDTH 12 0
BBX 12 13 0 -2
BITMAP
00C0
D0C0
D0C0
FCC0
D7F0
D0C0
30C0
3CC0
F0C0
30C0
30C0
37F0
0000
ENDCHAR
STARTCHAR 0x3235
ENCODING 12853
SWIDTH 886 0
DWIDTH 12 0
BBX 12 13 0 -2
BITMAP
0000
7FC0
00C0
0180
0300
0600
0C00
1800
3060
6060
6060
3FC0
0000
ENDCHAR
STARTCHAR 0x3236
ENCODING 12854
SWIDTH 886 0
DWIDTH 12 0
BBX 12 13 0 -2
BITMAP
0180
3180
3FF0
6660
6DB0
EFF0
75B0
6FF0
6DB0
6FF0
6180
61F0
0000
ENDCHAR
STARTCHAR 0x3237
ENCODING 12855
SWIDTH 886 0
DWIDTH 12 0
BBX 12 13 0 -2
BITMAP
6000
6000
7EF0
D9B0
D9B0
FEB0
19B0
1EB0
D9B0
D9B0
DEB0
F180
0000
ENDCHAR
STARTCHAR 0x3238
ENCODING 12856
SWIDTH 886 0
DWIDTH 12 0
BBX 12 13 0 -2
BITMAP
0000
7FE0
6660
6FA0
6660
6D60
69A0
7FE0
0600
1B60
6830
CFC0
0000
ENDCHAR
STARTCHAR 0x3239
ENCODING 12857
SWIDTH 886 0
DWIDTH 12 0
BBX 12 13 0 -2
BITMAP
0000
0FE0
CC60
6FE0
0C60
CFE0
6000
0FF0
0D50
3550
6D50
DFF0
0000
ENDCHAR
STARTCHAR 0x323A
ENCODING 12858
SWIDTH 886 0
DWIDTH 12 0
BBX 12 13 0 -2
BITMAP
0000
1FF0
F6B0
36A0
37F0
F830
37F0
7030
77F0
D680
DA60
37D0
0000
ENDCHAR
STARTCHAR 0x323B
ENCODING 12859
SWIDTH 886 0
DWIDTH 12 0
BBX 12 13 0 -2
BITMAP
0600
0600
7FE0
1980
1980
FFF0
0000
3FC0
30C0
3FC0
30C0
3FC0
0000
ENDCHAR
STARTCHAR 0x323C
ENCODING 12860
SWIDTH 886 0
DWIDTH 12 0
BBX 12 13 0 -2
BITMAP
0000
FFF0
0600
0600
0600
0780
06E0
0600
0600
0600
0600
0600
0000
ENDCHAR
STARTCHAR 0x323D
ENCODING 12861
SWIDTH 886 0
DWIDTH 12 0
BBX 12 13 0 -2
BITMAP
0300
1B00
1B00
3330
3360
7340
D380
3300
3300
3330
3330
33F0
0000
ENDCHAR
STARTCHAR 0x323E
ENCODING 12862
SWIDTH 886 0
DWIDTH 12 0
BBX 12 13 0 -2
BITMAP
0000
37F0
3400
6C00
6FE0
EC60
6D60
6DA0
68C0
68C0
63A0
6E30
0000
ENDCHAR
STARTCHAR 0x323F
ENCODING 12863
SWIDTH 886 0
DWIDTH 12 0
BBX 12 13 0 -2
BITMAP
0000
37F0
3060
6060
6F60
ED60
6D60
6D60
6F60
6060
6060
61E0
0000
ENDCHAR
STARTCHAR 0x3240
ENCODING 12864
SWIDTH 886 0
DWIDTH 12 0
BBX 12 13 0 -2
BITMAP
0C00
3400
34F0
6F50
6D50
ED50
6D50
6D50
6B50
6B50
6350
6EF0
0000
ENDCHAR
STARTCHAR 0x3241
ENCODING 12865
SWIDTH 886 0
DWIDTH 12 0
BBX 12 13 0 -2
BITMAP
0000
37F0
3340
6340
6FF0
ED50
6D50
6D50
6D50
6D50
6D50
6FF0
0000
ENDCHAR
STARTCHAR 0x3242
ENCODING 12866
SWIDTH 886 0
DWIDTH 12 0
BBX 12 13 0 -2
BITMAP
0180
3180
37F0
6180
6180
EFF0
6180
6180
6FF0
6180
6180
6FF0
0000
ENDCHAR
STARTCHAR 0x3243
ENCODING 12867
SWIDTH 886 0
DWIDTH 12 0
BBX 12 13 0 -2
BITMAP
3000
3000
31F0
FEB0
36B0
36B0
36B0
66B0
66B0
C6B0
CDB0
39F0
0000
ENDCHAR
STARTCHAR 0x3244
ENCODING 12868
SWIDTH 886 0
DWIDTH 12 0
BBX 12 13 0 -2
BITMAP
0000
FFF0
00C0
00C0
7CC0
6CC0
6CC0
6CC0
7CC0
00C0
00C0
03C0
0000
ENDCHAR
STARTCHAR 0x3245
ENCODING 12869
SWIDTH 886 0
DWIDTH 12 0
BBX 12 13 0 -2
BITMAP
0600
0600
FFF0
0600
7FE0
30C0
3FC0
1980
FFF0
3560
6D60
DDE0
0000
ENDCHAR
STARTCHAR 0x3246
ENCODING 12870
SWIDTH 886 0
DWIDTH 12 0
BBX 12 13 0 -2
BITMAP
0000
FFF0
0600
3FE0
3060
3FE0
3060
3FE0
18C0
74C0
0F80
F8F0
0000
ENDCHAR
STARTCHAR 0x3247
ENCODING 12871
SWIDTH 886 0
DWIDTH 12 0
BBX 12 13 0 -2
BITMAP
0180
6180
6FF0
F830
6BE0
69B0
6BA0
DEC0
F1E0
3750
6CD0
6380
0000
ENDCHAR
STARTCHAR 0x3248
ENCODING 12872
SWIDTH 886 0
DWIDTH 12 0
BBX 12 13 0 -2
BITMAP
0600
0600
FFF0
C030
DFD0
3600
0E60
7B40
0780
1D40
F370
0E00
0000
ENDCHAR
STARTCHAR 0x3249
ENCODING 12873
SWIDTH 886 0
DWIDTH 12 0
BBX 12 13 0 -2
BITMAP
0600
0600
FFF0
D9B0
DFB0
1980
FFF0
30C0
7FE0
CCD0
18C0
7380
0000
ENDCHAR
STARTCHAR 0x324A
ENCODING 12874
SWIDTH 886 0
DWIDTH 12 0
BBX 12 13 0 -2
BITMAP
0000
1C60
F360
31A0
3060
FA60
3360
7070
79E0
D760
D060
3060
0000
ENDCHAR
STARTCHAR 0x324B
ENCODING 12875
SWIDTH 886 0
DWIDTH 12 0
BBX 12 13 0 -2
BITMAP
0000
1F70
FB30
DB30
DF70
D800
F9F0
DF30
D8D0
DF50
F8E0
1BB0
0000
ENDCHAR
STARTCHAR 0x324C
ENCODING 12876
SWIDTH 886 0
DWIDTH 12 0
BBX 12 13 0 -2
BITMAP
0000
7FE0
6660
7FE0
6660
6660
7FE0
0600
FFF0
0E80
3AC0
E670
0000
ENDCHAR
STARTCHAR 0x324D
ENCODING 12877
SWIDTH 886 0
DWIDTH 12 0
BBX 12 13 0 -2
BITMAP
3000
31F0
FEB0
36B0
36B0
66B0
DDF0
0600
FFF0
0E80
3AC0
E670
0000
ENDCHAR
STARTCHAR 0x324E
ENCODING 12878
SWIDTH 886 0
DWIDTH 12 0
BBX 12 13 0 -2
BITMAP
0300
FF00
D5F0
D550
F550
0D50
FEC0
0CC0
F5A0
D5A0
F530
1E30
0000
ENDCHAR
STARTCHAR 0x324F
ENCODING 12879
SWIDTH 886 0
DWIDTH 12 0
BBX 12 13 0 -2
BITMAP
0000
3FF0
C060
6060
0F60
CD60
6D60
0D60
0F60
3060
6060
C1E0
0000
ENDCHAR
STARTCHAR 0x3250
ENCODING 12880
SWIDTH 886 0
DWIDTH 12 0
BBX 12 13 0 -2
BITMAP
0600
0600
0600
3660
3660
66C0
66C0
0D00
0D00
1980
30C0
E070
0000
ENDCHAR
STARTCHAR 0x3251
ENCODING 12881
SWIDTH 886 0
DWIDTH 12 0
BBX 12 13 0 -2
BITMAP
0000
1FF0
F060
6060
6F60
6D60
F560
6D60
6F60
6060
F060
01E0
0000
ENDCHAR
STARTCHAR 0x3252
ENCODING 12882
SWIDTH 886 0
DWIDTH 12 0
BBX 12 13 0 -2
BITMAP
0000
67E0
6660
FAE0
1AA0
37F0
6C30
EDD0
7550
6D50
6DD0
6C70
0000
ENDCHAR
STARTCHAR 0x3253
ENCODING 12883
SWIDTH 886 0
DWIDTH 12 0
BBX 12 13 0 -2
BITMAP
0000
03E0
7E00
0600
0600
FFF0
0700
0E80
1AC0
3660
E630
0600
0000
ENDCHAR
STARTCHAR 0x3254
ENCODING 12884
SWIDTH 886 0
DWIDTH 12 0
BBX 12 13 0 -2
BITMAP
0180
1D80
F7F0
3430
37E0
F9B0
33A0
76C0
71E0
D750
DCD0
3380
0000
ENDCHAR
STARTCHAR 0x3255
ENCODING 12885
SWIDTH 886 0
DWIDTH 12 0
BBX 12 13 0 -2
BITMAP
0300
6300
7DF0
D6C0
0000
FFF0
C630
DFD0
C630
DFB0
D9B0
FFF0
0000
ENDCHAR
STARTCHAR 0x3256
ENCODING 12886
SWIDTH 886 0
DWIDTH 12 0
BBX 12 13 0 -2
BITMAP
1980
1980
FFF0
1980
1800
1B00
3370
73C0
D300
3300
3330
33F0
0000
ENDCHAR
STARTCHAR 0x3257
ENCODING 12887
SWIDTH 886 0
DWIDTH 12 0
BBX 12 13 0 -2
BITMAP
1980
1980
FFF0
1980
0000
FFF0
0060
3E60
3660
3660
3E60
01E0
0000
ENDCHAR
STARTCHAR 0x3258
ENCODING 12888
SWIDTH 886 0
DWIDTH 12 0
BBX 12 13 0 -2
BITMAP
1980
1980
FFF0
1980
3000
31F0
FEB0
36B0
36B0
66B0
CDB0
39F0
0000
ENDCHAR
STARTCHAR 0x3259
ENCODING 12889
SWIDTH 886 0
DWIDTH 12 0
BBX 12 13 0 -2
BITMAP
1980
1980
FFF0
1980
3000
7FF0
E060
6F60
6D60
6D60
6F60
60E0
0000
ENDCHAR
STARTCHAR 0x325A
ENCODING 12890
SWIDTH 886 0
DWIDTH 12 0
BBX 12 13 0 -2
BITMAP
1980
1980
FFF0
1980
7FE0
36C0
FFF0
36C0
7FE0
0600
FFF0
0600
0000
ENDCHAR
STARTCHAR 0x325B
ENCODING 12891
SWIDTH 886 0
DWIDTH 12 0
BBX 12 13 0 -2
BITMAP
1980
1980
FFF0
1980
3FC0
36C0
3FC0
36C0
FFF0
0E80
3AC0
E670
0000
ENDCHAR
STARTCHAR 0x325C
ENCODING 12892
SWIDTH 886 0
DWIDTH 12 0
BBX 12 13 0 -2
BITMAP
0000
37F0
35B0
FDB0
D7B0
D400
D5F0
FF30
34D0
3750
34E0
FDB0
0000
ENDCHAR
STARTCHAR 0x325D
ENCODING 12893
SWIDTH 886 0
DWIDTH 12 0
BBX 12 13 0 -2
BITMAP
0000
F7F0
0DB0
F7F0
0DB0
F5B0
0FF0
0180
F7F0
D380
D6A0
FDB0
0000
ENDCHAR
STARTCHAR 0x325E
ENCODING 12894
SWIDTH 886 0
DWIDTH 12 0
BBX 12 13 0 -2
BITMAP
0360
0360
F7F0
D360
D7F0
D6D0
DFF0
D6D0
D7F0
D0C0
F7F0
00C0
0000
ENDCHAR
STARTCHAR 0x325F
ENCODING 12895
SWIDTH 886 0
DWIDTH 12 0
BBX 12 13 0 -2
BITMAP
0300
1B70
33C0
F330
3FF0
30C0
3FC0
30C0
3FC0
30C0
3FC0
E070
0000
ENDCHAR
STARTCHAR 0x3260
ENCODING 12896
SWIDTH 886 0
DWIDTH 12 0
BBX 12 13 0 -2
BITMAP
0C00
0C00
CCF0
6F50
0D50
0D50
F550
3550
3B50
3770
6800
CFF0
0000
ENDCHAR
STARTCHAR 0x3261
ENCODING 12897
SWIDTH 886 0
DWIDTH 12 0
BBX 12 13 0 -2
BITMAP
0000
07E0
6660
36E0
06A0
0FF0
F430
35D0
3550
35D0
6800
CFF0
0000
ENDCHAR
STARTCHAR 0x3262
ENCODING 12898
SWIDTH 886 0
DWIDTH 12 0
BBX 12 13 0 -2
BITMAP
0000
7FE0
0600
FFF0
D6B0
1AC0
FDF0
CC30
FFF0
C360
FDC0
C770
0000
ENDCHAR
STARTCHAR 0x3263
ENCODING 12899
SWIDTH 886 0
DWIDTH 12 0
BBX 12 13 0 -2
BITMAP
00C0
30C0
30C0
FFF0
D660
D660
D6A0
FEA0
31A0
34C0
35C0
FF70
0000
ENDCHAR
STARTCHAR 0x3264
ENCODING 12900
SWIDTH 886 0
DWIDTH 12 0
BBX 12 13 0 -2
BITMAP
00C0
3750
3CD0
6CC0
6DF0
FEC0
6CD0
6F50
7C60
6C60
6DD0
6F30
0000
ENDCHAR
STARTCHAR 0x3265
ENCODING 12901
SWIDTH 886 0
DWIDTH 12 0
BBX 12 13 0 -2
BITMAP
00C0
3750
36D0
36C0
D7F0
DEC0
D6D0
D750
DE60
D660
FAD0
0F30
0000
ENDCHAR
STARTCHAR 0x3266
ENCODING 12902
SWIDTH 886 0
DWIDTH 12 0
BBX 12 13 0 -2
BITMAP
0180
1DA0
F1B0
3180
37F0
F8C0
30D0
36D0
F860
30E0
31B0
7730
0000
ENDCHAR
STARTCHAR 0x3267
ENCODING 12903
SWIDTH 886 0
DWIDTH 12 0
BBX 12 13 0 -2
BITMAP
0000
7FE0
3180
3180
3180
FFF0
0380
0680
0D80
3980
E180
0780
0000
ENDCHAR
STARTCHAR 0x3268
ENCODING 12904
SWIDTH 886 0
DWIDTH 12 0
BBX 12 13 0 -2
BITMAP
0000
FFF0
0600
3FC0
36C0
D6D0
DFD0
D6D0
D6D0
DFD0
C030
FFF0
0000
ENDCHAR
STARTCHAR 0x3269
ENCODING 12905
SWIDTH 886 0
DWIDTH 12 0
BBX 12 13 0 -2
BITMAP
00C0
FEC0
D8C0
D8C0
FCC0
CCC0
CDA0
FDA0
DB60
DB30
FE30
0630
0000
ENDCHAR
STARTCHAR 0x326A
ENCODING 12906
SWIDTH 886 0
DWIDTH 12 0
BBX 12 13 0 -2
BITMAP
1980
1980
FFF0
1980
7FE0
1980
1980
FFF0
0680
1D80
F180
0780
0000
ENDCHAR
STARTCHAR 0x326B
ENCODING 12907
SWIDTH 886 0
DWIDTH 12 0
BBX 12 13 0 -2
BITMAP
00C0
3750
36D0
FAC0
D7F0
D6C0
D6D0
FF50
3660
3660
36D0
FF30
0000
ENDCHAR
STARTCHAR 0x326C
ENCODING 12908
SWIDTH 886 0
DWIDTH 12 0
BBX 12 13 0 -2
BITMAP
3000
33F0
FD30
3530
6DF0
CCC0
3FC0
30C0
3FC0
30C0
3FC0
E070
0000
ENDCHAR
STARTCHAR 0x326D
ENCODING 12909
SWIDTH 886 0
DWIDTH 12 0
BBX 12 13 0 -2
BITMAP
0300
FD60
6B60
6BF0
6AC0
6FF0
FAC0
1AC0
3BF0
6AC0
DAC0
3BF0
0000
ENDCHAR
STARTCHAR 0x326E
ENCODING 12910
SWIDTH 886 0
DWIDTH 12 0
BBX 12 13 0 -2
BITMAP
00C0
7750
DAD0
36C0
FFF0
DAC0
FAD0
DB50
FE60
D660
DAD0
F730
0000
ENDCHAR
STARTCHAR 0x326F
ENCODING 12911
SWIDTH 886 0
DWIDTH 12 0
BBX 12 13 0 -2
BITMAP
3000
31F0
FEB0
36B0
7FF0
D600
3FE0
3600
3FF0
0030
6AB0
DAB0
0000
ENDCHAR
STARTCHAR 0x3270
ENCODING 12912
SWIDTH 886 0
DWIDTH 12 0
BBX 12 13 0 -2
BITMAP
0000
0F00
1980
30C0
69A0
D9B0
1980
1980
3180
3180
6180
6180
0000
ENDCHAR
STARTCHAR 0x3271
ENCODING 12913
SWIDTH 886 0
DWIDTH 12 0
BBX 12 13 0 -2
BITMAP
0000
0F00
1980
30C0
6FA0
C030
0000
FFF0
18C0
18C0
33A0
3E60
0000
ENDCHAR
STARTCHAR 0x3272
ENCODING 12914
SWIDTH 886 0
DWIDTH 12 0
BBX 12 13 0 -2
BITMAP
0000
7BF0
D9B0
3330
FEE0
D540
FDF0
D540
D6C0
FDF0
CCC0
DCC0
0000
ENDCHAR
STARTCHAR 0x3273
ENCODING 12915
SWIDTH 886 0
DWIDTH 12 0
BBX 12 13 0 -2
BITMAP
0000
FFF0
C030
C030
DFB0
D9B0
D9B0
D9B0
DFB0
C030
C030
FFF0
0000
ENDCHAR
STARTCHAR 0x3274
ENCODING 12916
SWIDTH 886 0
DWIDTH 12 0
BBX 12 13 0 -2
BITMAP
0180
6300
6FF0
6DB0
F7F0
6DB0
6DB0
6FF0
66A0
66A0
F5B0
0DF0
0000
ENDCHAR
STARTCHAR 0x3275
ENCODING 12917
SWIDTH 886 0
DWIDTH 12 0
BBX 12 13 0 -2
BITMAP
0180
6180
6FF0
6D50
F550
6FF0
6300
6FF0
66B0
6DA0
F4C0
0F70
0000
ENDCHAR
STARTCHAR 0x3276
ENCODING 12918
SWIDTH 886 0
DWIDTH 12 0
BBX 12 13 0 -2
BITMAP
0000
0FF0
F430
35D0
6D50
CD50
F5D0
3430
D7F0
6000
D800
CFF0
0000
ENDCHAR
STARTCHAR 0x3277
ENCODING 12919
SWIDTH 886 0
DWIDTH 12 0
BBX 12 13 0 -2
BITMAP
0180
3180
37F0
31B0
D1B0
D1B0
DFF0
D180
D180
3340
3660
3C30
0000
ENDCHAR
STARTCHAR 0x3278
ENCODING 12920
SWIDTH 886 0
DWIDTH 12 0
BBX 12 13 0 -2
BITMAP
0000
37F0
3030
3360
D1C0
D770
D180
D180
D7F0
3180
3180
37F0
0000
ENDCHAR
STARTCHAR 0x3279
ENCODING 12921
SWIDTH 886 0
DWIDTH 12 0
BBX 12 13 0 -2
BITMAP
0600
3600
37F0
3400
D7E0
D6A0
D6A0
DFF0
D560
3560
37F0
30C0
0000
ENDCHAR
STARTCHAR 0x327A
ENCODING 12922
SWIDTH 886 0
DWIDTH 12 0
BBX 12 13 0 -2
BITMAP
0000
37F0
34C0
34C0
D550
D550
D550
D4C0
D5A0
31A0
3330
3630
0000
ENDCHAR
STARTCHAR 0x327B
ENCODING 12923
SWIDTH 886 0
DWIDTH 12 0
BBX 12 13 0 -2
BITMAP
0180
3180
3FF0
3550
D550
D7F0
D300
DFF0
D6B0
3DA0
34C0
3770
0000
ENDCHAR
STARTCHAR 0x327C
ENCODING 12924
SWIDTH 886 0
DWIDTH 12 0
BBX 12 13 0 -2
BITMAP
0180
01B0
FFF0
0180
35B0
35B0
FEA0
35A0
34C0
61C0
6760
1C30
0000
ENDCHAR
STARTCHAR 0x327D
ENCODING 12925
SWIDTH 886 0
DWIDTH 12 0
BBX 12 13 0 -2
BITMAP
0000
67E0
6660
FA60
67E0
6000
6000
77F0
E330
6330
6630
ECE0
0000
ENDCHAR
STARTCHAR 0x327E
ENCODING 12926
SWIDTH 886 0
DWIDTH 12 0
BBX 12 13 0 -2
BITMAP
0300
0300
FBF0
1B60
1A60
FA60
C1A0
C1A0
D8C0
D8C0
FBA0
0E30
0000
ENDCHAR
STARTCHAR 0x3321
ENCODING 13089
SWIDTH 886 0
DWIDTH 12 0
BBX 12 13 0 -2
BITMAP
1800
31B0
FED0
D630
FEB0
D6D0
D630
FEF0
6A30
6B80
D830
DFF0
0000
ENDCHAR
STARTCHAR 0x3322
ENCODING 13090
SWIDTH 886 0
DWIDTH 12 0
BBX 12 13 0 -2
BITMAP
0600
0600
F7F0
D400
D7E0
D6A0
F6A0
DFF0
D560
D560
F7F0
00C0
0000
ENDCHAR
STARTCHAR 0x3323
ENCODING 13091
SWIDTH 886 0
DWIDTH 12 0
BBX 12 13 0 -2
BITMAP
00C0
30D0
37F0
F8C0
3540
3550
7FD0
7550
D560
D560
30D0
33B0
0000
ENDCHAR
STARTCHAR 0x3324
ENCODING 13092
SWIDTH 886 0
DWIDTH 12 0
BBX 12 13 0 -2
BITMAP
0C00
0C00
CFF0
6800
1FE0
CDA0
6DA0
1FF0
6B60
6B60
DFF0
C0C0
0000
ENDCHAR
STARTCHAR 0x3325
ENCODING 13093
SWIDTH 886 0
DWIDTH 12 0
BBX 12 13 0 -2
BITMAP
0000
7FF0
6000
6180
6DB0
6DB0
6DB0
6180
6340
C340
C660
1C30
0000
ENDCHAR
STARTCHAR 0x3326
ENCODING 13094
SWIDTH 886 0
DWIDTH 12 0
BBX 12 13 0 -2
BITMAP
0000
7FE0
6660
7FE0
6660
6660
7FE0
1980
39C0
E9A0
19B0
7180
0000
ENDCHAR
STARTCHAR 0x3327
ENCODING 13095
SWIDTH 886 0
DWIDTH 12 0
BBX 12 13 0 -2
BITMAP
0300
6300
7DF0
6300
6330
FDF0
0600
3FE0
3060
3FE0
3060
3FE0
0000
ENDCHAR
STARTCHAR 0x3328
ENCODING 13096
SWIDTH 886 0
DWIDTH 12 0
BBX 12 13 0 -2
BITMAP
0000
33E0
6630
D800
FBF0
3000
6000
FBF0
3180
DB30
D630
37F0
0000
ENDCHAR
STARTCHAR 0x3329
ENCODING 13097
SWIDTH 886 0
DWIDTH 12 0
BBX 12 13 0 -2
BITMAP
1980
1980
FFF0
1980
0000
0F00
39C0
E9B0
1980
1980
3180
3180
0000
ENDCHAR
STARTCHAR 0x332A
ENCODING 13098
SWIDTH 886 0
DWIDTH 12 0
BBX 12 13 0 -2
BITMAP
0000
7DF0
D9B0
FDF0
D540
FFF0
CCC0
3FC0
36C0
3FC0
0630
FFF0
0000
ENDCHAR
STARTCHAR 0x332B
ENCODING 13099
SWIDTH 886 0
DWIDTH 12 0
BBX 12 13 0 -2
BITMAP
0000
FDF0
CD30
FDF0
CD30
FDF0
C030
DFD0
CD30
DFD0
CD30
DB70
0000
ENDCHAR
STARTCHAR 0x332C
ENCODING 13100
SWIDTH 886 0
DWIDTH 12 0
BBX 12 13 0 -2
BITMAP
00C0
F4C0
D770
D4C0
ECC0
D770
D180
D7F0
D430
EFF0
CC30
CFF0
0000
ENDCHAR
STARTCHAR 0x332D
ENCODING 13101
SWIDTH 886 0
DWIDTH 12 0
BBX 12 13 0 -2
BITMAP
0000
3FE0
3060
3FE0
3060
3FE0
3060
3060
3FE0
0000
18C0
7070
0000
ENDCHAR
STARTCHAR 0x332E
ENCODING 13102
SWIDTH 886 0
DWIDTH 12 0
BBX 12 13 0 -2
BITMAP
3000
D5E0
FD60
0360
FD60
0360
FD60
CD60
FD60
6B60
6A60
FC70
0000
ENDCHAR
STARTCHAR 0x332F
ENCODING 13103
SWIDTH 886 0
DWIDTH 12 0
BBX 12 13 0 -2
BITMAP
3180
3180
FD80
67F0
CDB0
69B0
3330
6D30
DA30
3630
6860
CDC0
0000
ENDCHAR
STARTCHAR 0x3330
ENCODING 13104
SWIDTH 886 0
DWIDTH 12 0
BBX 12 13 0 -2
BITMAP
0180
6180
7D80
6D80
6E80
D580
DDC0
0DA0
19B0
1980
3180
E180
0000
ENDCHAR
STARTCHAR 0x3331
ENCODING 13105
SWIDTH 886 0
DWIDTH 12 0
BBX 12 13 0 -2
BITMAP
0180
0180
FFF0
D980
DB30
DA60
DB40
D9B0
DB60
D8C0
FBA0
0E30
0000
ENDCHAR
STARTCHAR 0x3332
ENCODING 13106
SWIDTH 886 0
DWIDTH 12 0
BBX 12 13 0 -2
BITMAP
0600
0600
FFF0
C630
DFD0
0600
3FC0
0600
FFF0
30C0
30C0
3FC0
0000
ENDCHAR
STARTCHAR 0x3333
ENCODING 13107
SWIDTH 886 0
DWIDTH 12 0
BBX 12 13 0 -2
BITMAP
0600
6630
7FF0
0000
7FF0
6300
6FE0
6300
6FE0
C300
C300
3FF0
0000
ENDCHAR
STARTCHAR 0x3334
ENCODING 13108
SWIDTH 886 0
DWIDTH 12 0
BBX 12 13 0 -2
BITMAP
0000
37F0
35A0
37A0
D5A0
DDF0
D7A0
D460
D5A0
36E0
31A0
3770
0000
ENDCHAR
STARTCHAR 0x3335
ENCODING 13109
SWIDTH 886 0
DWIDTH 12 0
BBX 12 13 0 -2
BITMAP
0000
37F0
35A0
FFA0
35A0
35F0
77A0
7460
D5A0
D6E0
31A0
3770
0000
ENDCHAR
STARTCHAR 0x3336
ENCODING 13110
SWIDTH 886 0
DWIDTH 12 0
BBX 12 13 0 -2
BITMAP
0000
0FF0
CCC0
6DF0
0CC0
CCC0
6FF0
0CC0
6DF0
68C0
D8C0
C7F0
0000
ENDCHAR
STARTCHAR 0x3337
ENCODING 13111
SWIDTH 886 0
DWIDTH 12 0
BBX 12 13 0 -2
BITMAP
0000
07F0
FA30
37F0
3630
37F0
7860
EFF0
6860
6A60
6B60
78E0
0000
ENDCHAR
STARTCHAR 0x3338
ENCODING 13112
SWIDTH 886 0
DWIDTH 12 0
BBX 12 13 0 -2
BITMAP
1980
1980
FFF0
1980
0600
FFF0
18C0
7FE0
0030
7FE0
6D60
FFF0
0000
ENDCHAR
STARTCHAR 0x3339
ENCODING 13113
SWIDTH 886 0
DWIDTH 12 0
BBX 12 13 0 -2
BITMAP
0600
36F0
6F80
C600
06F0
3FB0
6630
E630
6FB0
6630
6630
6FB0
0000
ENDCHAR
STARTCHAR 0x333A
ENCODING 13114
SWIDTH 886 0
DWIDTH 12 0
BBX 12 13 0 -2
BITMAP
0180
F180
0FF0
F180
0330
F660
0340
01B0
F760
D0C0
D3A0
F630
0000
ENDCHAR
STARTCHAR 0x333B
ENCODING 13115
SWIDTH 886 0
DWIDTH 12 0
BBX 12 13 0 -2
BITMAP
0180
3AB0
67F0
C000
FBF0
3000
FFF0
3630
DBF0
D360
3360
FFF0
0000
ENDCHAR
STARTCHAR 0x333C
ENCODING 13116
SWIDTH 886 0
DWIDTH 12 0
BBX 12 13 0 -2
BITMAP
0180
7D80
6FF0
6D80
6D30
FEA0
C6C0
7DB0
6F60
7CC0
6DA0
6F30
0000
ENDCHAR
STARTCHAR 0x333D
ENCODING 13117
SWIDTH 886 0
DWIDTH 12 0
BBX 12 13 0 -2
BITMAP
0000
0FF0
CDB0
6FF0
0DB0
CDB0
6FF0
0180
0FF0
3180
6180
CFF0
0000
ENDCHAR
STARTCHAR 0x333E
ENCODING 13118
SWIDTH 886 0
DWIDTH 12 0
BBX 12 13 0 -2
BITMAP
1800
FFE0
1B60
FE70
6AC0
7F70
C600
FFF0
36C0
7FE0
D0D0
3FC0
0000
ENDCHAR
STARTCHAR 0x333F
ENCODING 13119
SWIDTH 886 0
DWIDTH 12 0
BBX 12 13 0 -2
BITMAP
00C0
30C0
33F0
FCC0
D4C0
D7F0
D4C0
FCC0
33F0
34C0
34C0
FFF0
0000
ENDCHAR
STARTCHAR 0x3340
ENCODING 13120
SWIDTH 886 0
DWIDTH 12 0
BBX 12 13 0 -2
BITMAP
0000
6FF0
6000
6FE0
F460
6C60
6FE0
6C60
6C60
6FE0
F000
1FF0
0000
ENDCHAR
STARTCHAR 0x3341
ENCODING 13121
SWIDTH 886 0
DWIDTH 12 0
BBX 12 13 0 -2
BITMAP
0180
3180
37F0
F980
3180
37F0
75B0
75B0
D5B0
D5B0
35B0
3180
0000
ENDCHAR
STARTCHAR 0x3342
ENCODING 13122
SWIDTH 886 0
DWIDTH 12 0
BBX 12 13 0 -2
BITMAP
0000
37F0
3600
FE00
D7F0
D680
D680
FEF0
3330
3330
3630
FEE0
0000
ENDCHAR
STARTCHAR 0x3343
ENCODING 13123
SWIDTH 886 0
DWIDTH 12 0
BBX 12 13 0 -2
BITMAP
0600
3A00
67F0
CC30
FD30
3330
FD30
36D0
DAD0
D7D0
3030
FCE0
0000
ENDCHAR
STARTCHAR 0x3344
ENCODING 13124
SWIDTH 886 0
DWIDTH 12 0
BBX 12 13 0 -2
BITMAP
0000
FE30
36B0
FEB0
36B0
FEB0
31B0
FFB0
D6B0
FE30
D630
FF70
0000
ENDCHAR
STARTCHAR 0x3345
ENCODING 13125
SWIDTH 886 0
DWIDTH 12 0
BBX 12 13 0 -2
BITMAP
06C0
06C0
F7F0
D6C0
D6C0
DFF0
D6A0
D6A0
DAB0
D6A0
F5A0
0DA0
0000
ENDCHAR
STARTCHAR 0x3346
ENCODING 13126
SWIDTH 886 0
DWIDTH 12 0
BBX 12 13 0 -2
BITMAP
1800
1800
1FC0
30C0
6D80
0700
1DC0
F070
3FC0
30C0
30C0
3FC0
0000
ENDCHAR
STARTCHAR 0x3347
ENCODING 13127
SWIDTH 886 0
DWIDTH 12 0
BBX 12 13 0 -2
BITMAP
0600
0600
FFF0
D800
FEF0
D6B0
DEA0
CDA0
D9B0
FFB0
CDE0
DD80
0000
ENDCHAR
STARTCHAR 0x3348
ENCODING 13128
SWIDTH 886 0
DWIDTH 12 0
BBX 12 13 0 -2
BITMAP
0180
6180
6FF0
FC00
6D80
6D80
6D80
7560
ED60
6B60
6AD0
E7B0
0000
ENDCHAR
STARTCHAR 0x3349
ENCODING 13129
SWIDTH 886 0
DWIDTH 12 0
BBX 12 13 0 -2
BITMAP
0300
6DA0
66C0
FFF0
6C30
6FE0
6C60
7460
EFE0
6340
66D0
ECF0
0000
ENDCHAR
STARTCHAR 0x334A
ENCODING 13130
SWIDTH 886 0
DWIDTH 12 0
BBX 12 13 0 -2
BITMAP
0300
3300
33F0
FA30
3560
31C0
7360
7A30
D7F0
D630
3630
37F0
0000
ENDCHAR
STARTCHAR 0x334B
ENCODING 13131
SWIDTH 886 0
DWIDTH 12 0
BBX 12 13 0 -2
BITMAP
0180
3180
37F0
F980
3330
3660
7340
71B0
DB60
D0C0
33A0
3630
0000
ENDCHAR
STARTCHAR 0x334C
ENCODING 13132
SWIDTH 886 0
DWIDTH 12 0
BBX 12 13 0 -2
BITMAP
3000
33E0
FD60
3360
FD60
0670
FC00
CFF0
7B30
6B60
D9C0
DF70
0000
ENDCHAR
STARTCHAR 0x334D
ENCODING 13133
SWIDTH 886 0
DWIDTH 12 0
BBX 12 13 0 -2
BITMAP
0360
3360
D7F0
6360
67F0
D6C0
37F0
76C0
D7F0
3660
33C0
EE70
0000
ENDCHAR
STARTCHAR 0x334E
ENCODING 13134
SWIDTH 886 0
DWIDTH 12 0
BBX 12 13 0 -2
BITMAP
0180
0180
FFF0
3530
3340
37F0
7EC0
EAC0
6BF0
6AC0
6AC0
7BF0
0000
ENDCHAR
STARTCHAR 0x334F
ENCODING 13135
SWIDTH 886 0
DWIDTH 12 0
BBX 12 13 0 -2
BITMAP
0360
1D60
F7F0
3360
37F0
FEC0
37F0
76C0
77F0
D660
D3C0
3670
0000
ENDCHAR
STARTCHAR 0x3350
ENCODING 13136
SWIDTH 886 0
DWIDTH 12 0
BBX 12 13 0 -2
BITMAP
06C0
3680
FFF0
D0D0
DFD0
30C0
3FC0
30C0
3FD0
1B30
3330
E3F0
0000
ENDCHAR
STARTCHAR 0x3351
ENCODING 13137
SWIDTH 886 0
DWIDTH 12 0
BBX 12 13 0 -2
BITMAP
0000
1FC0
3180
7FE0
E660
7FE0
6660
6660
7FE0
6060
C060
C1E0
0000
ENDCHAR
STARTCHAR 0x3352
ENCODING 13138
SWIDTH 886 0
DWIDTH 12 0
BBX 12 13 0 -2
BITMAP
1980
1980
FFF0
1980
1980
FFF0
3540
D550
D550
D550
6CC0
6DC0
0000
ENDCHAR
STARTCHAR 0x3353
ENCODING 13139
SWIDTH 886 0
DWIDTH 12 0
BBX 12 13 0 -2
BITMAP
0180
3180
FFF0
3000
FD60
D630
FC00
D560
FDA0
30C0
FDA0
3730
0000
ENDCHAR
STARTCHAR 0x3354
ENCODING 13140
SWIDTH 886 0
DWIDTH 12 0
BBX 12 13 0 -2
BITMAP
1800
19F0
FFB0
01B0
7EA0
66C0
7EA0
0DB0
19B0
FFB0
19E0
7980
0000
ENDCHAR
STARTCHAR 0x3355
ENCODING 13141
SWIDTH 886 0
DWIDTH 12 0
BBX 12 13 0 -2
BITMAP
0000
FDF0
CD30
FDF0
CD30
FFF0
D9B0
D730
D9B0
DFD0
D9B0
DFB0
0000
ENDCHAR
STARTCHAR 0x3356
ENCODING 13142
SWIDTH 886 0
DWIDTH 12 0
BBX 12 13 0 -2
BITMAP
0000
F7F0
D000
D7E0
E660
D7E0
D000
D7F0
D550
EE70
CDD0
CDB0
0000
ENDCHAR
STARTCHAR 0x3357
ENCODING 13143
SWIDTH 886 0
DWIDTH 12 0
BBX 12 13 0 -2
BITMAP
1980
1980
FFF0
1980
1F80
0600
7FE0
6660
7FE0
0600
FFF0
0600
0000
ENDCHAR
STARTCHAR 0x3358
ENCODING 13144
SWIDTH 886 0
DWIDTH 12 0
BBX 12 13 0 -2
BITMAP
0C60
66C0
3180
FFF0
C030
DFB0
0300
0600
FFF0
0600
0600
1E00
0000
ENDCHAR
STARTCHAR 0x3359
ENCODING 13145
SWIDTH 886 0
DWIDTH 12 0
BBX 12 13 0 -2
BITMAP
0000
03C0
3E00
3000
3FE0
3180
3180
FFF0
0600
6660
6660
7FE0
0000
ENDCHAR
STARTCHAR 0x335A
ENCODING 13146
SWIDTH 886 0
DWIDTH 12 0
BBX 12 13 0 -2
BITMAP
0600
0C00
DFB0
69A0
1F80
69A0
DFB0
0600
FFF0
0E80
3AC0
E670
0000
ENDCHAR
STARTCHAR 0x335B
ENCODING 13147
SWIDTH 886 0
DWIDTH 12 0
BBX 12 13 0 -2
BITMAP
1800
1BF0
FEC0
D5F0
D530
6BF0
3530
67F0
FD30
6DF0
6D60
7E30
0000
ENDCHAR
STARTCHAR 0x335C
ENCODING 13148
SWIDTH 886 0
DWIDTH 12 0
BBX 12 13 0 -2
BITMAP
0000
FDF0
D4C0
FDF0
0330
FDF0
0330
FDF0
6330
FDF0
CDA0
3B30
0000
ENDCHAR
STARTCHAR 0x335D
ENCODING 13149
SWIDTH 886 0
DWIDTH 12 0
BBX 12 13 0 -2
BITMAP
0600
6660
6FA0
F660
6660
6FA0
6670
7660
EFA0
6660
6660
EFA0
0000
ENDCHAR
STARTCHAR 0x335E
ENCODING 13150
SWIDTH 886 0
DWIDTH 12 0
BBX 12 13 0 -2
BITMAP
0300
6300
7DF0
D6C0
36C0
0600
7FE0
1980
1980
1B00
0300
FFF0
0000
ENDCHAR
STARTCHAR 0x335F
ENCODING 13151
SWIDTH 886 0
DWIDTH 12 0
BBX 12 13 0 -2
BITMAP
0000
37F0
3530
FFD0
35A0
37A0
7550
77D0
D180
D7F0
3180
37F0
0000
ENDCHAR
STARTCHAR 0x3360
ENCODING 13152
SWIDTH 886 0
DWIDTH 12 0
BBX 12 13 0 -2
BITMAP
0000
37F0
36B0
FBF0
36B0
37F0
7000
77F0
D6B0
D7F0
36B0
37F0
0000
ENDCHAR
STARTCHAR 0x3361
ENCODING 13153
SWIDTH 886 0
DWIDTH 12 0
BBX 12 13 0 -2
BITMAP
0000
37F0
3630
FBF0
3600
37F0
76C0
7BF0
D6C0
D5F0
34C0
30F0
0000
ENDCHAR
STARTCHAR 0x3362
ENCODING 13154
SWIDTH 886 0
DWIDTH 12 0
BBX 12 13 0 -2
BITMAP
00C0
7BC0
DEC0
36D0
FAD0
D7D0
FAC0
D6E0
FEA0
06A0
D530
D530
0000
ENDCHAR
STARTCHAR 0x3363
ENCODING 13155
SWIDTH 886 0
DWIDTH 12 0
BBX 12 13 0 -2
BITMAP
0300
0EE0
CC60
6EE0
0C60
CFE0
6600
0FF0
6830
6D50
CD30
C0E0
0000
ENDCHAR
STARTCHAR 0x3364
ENCODING 13156
SWIDTH 886 0
DWIDTH 12 0
BBX 12 13 0 -2
BITMAP
1800
1830
FFB0
D9B0
FEB0
19B0
7EB0
19B0
FEB0
6630
6630
7E70
0000
ENDCHAR
STARTCHAR 0x3365
ENCODING 13157
SWIDTH 886 0
DWIDTH 12 0
BBX 12 13 0 -2
BITMAP
0000
0FE0
F460
D7E0
D460
D7E0
D600
D7F0
DC30
D5B0
F7B0
00E0
0000
ENDCHAR
STARTCHAR 0x3366
ENCODING 13158
SWIDTH 886 0
DWIDTH 12 0
BBX 12 13 0 -2
BITMAP
0000
33E0
3630
3400
D000
D7F0
D000
D000
D7F0
3630
3630
37F0
0000
ENDCHAR
STARTCHAR 0x3367
ENCODING 13159
SWIDTH 886 0
DWIDTH 12 0
BBX 12 13 0 -2
BITMAP
0000
3070
37C0
F8C0
30C0
37F0
30C0
38C0
F7F0
3630
3630
77F0
0000
ENDCHAR
STARTCHAR 0x3368
ENCODING 13160
SWIDTH 886 0
DWIDTH 12 0
BBX 12 13 0 -2
BITMAP
0000
00F0
CF80
6180
0180
CFF0
6180
0180
0FF0
3430
6C30
CFF0
0000
ENDCHAR
STARTCHAR 0x3369
ENCODING 13161
SWIDTH 886 0
DWIDTH 12 0
BBX 12 13 0 -2
BITMAP
0000
0FE0
CC60
6FE0
0C60
CFE0
6600
0FF0
6C30
6DB0
CFB0
C0E0
0000
ENDCHAR
STARTCHAR 0x336A
ENCODING 13162
SWIDTH 886 0
DWIDTH 12 0
BBX 12 13 0 -2
BITMAP
0000
0FE0
CC60
6DE0
0D60
DFF0
6830
0FE0
0C60
37E0
6C60
CCE0
0000
ENDCHAR
STARTCHAR 0x336B
ENCODING 13163
SWIDTH 886 0
DWIDTH 12 0
BBX 12 13 0 -2
BITMAP
1980
1980
FFF0
30C0
3FC0
30C0
3FC0
1800
3FF0
F030
3330
3F60
0000
ENDCHAR
STARTCHAR 0x336C
ENCODING 13164
SWIDTH 886 0
DWIDTH 12 0
BBX 12 13 0 -2
BITMAP
0000
6FE0
6C60
F7E0
3460
37E0
6600
F7F0
6C30
6DB0
6FB0
60E0
0000
ENDCHAR
STARTCHAR 0x336D
ENCODING 13165
SWIDTH 886 0
DWIDTH 12 0
BBX 12 13 0 -2
BITMAP
00C0
30C0
FFF0
36D0
FDF0
D4C0
FDF0
D4C0
FFF0
3330
FD30
33F0
0000
ENDCHAR
STARTCHAR 0x336E
ENCODING 13166
SWIDTH 886 0
DWIDTH 12 0
BBX 12 13 0 -2
BITMAP
0000
3FC0
30C0
30C0
3FC0
30C0
30C0
3FC0
30C0
30C0
30C0
FFF0
0000
ENDCHAR
STARTCHAR 0x336F
ENCODING 13167
SWIDTH 886 0
DWIDTH 12 0
BBX 12 13 0 -2
BITMAP
0000
77F0
D530
6FD0
FDA0
D7A0
FD50
D7D0
FCC0
03F0
D4C0
D7F0
0000
ENDCHAR
STARTCHAR 0x3370
ENCODING 13168
SWIDTH 886 0
DWIDTH 12 0
BBX 12 13 0 -2
BITMAP
00C0
00C0
F8C0
D8C0
DFF0
D8C0
D8C0
D8C0
D8C0
D8C0
F8C0
00C0
0000
ENDCHAR
STARTCHAR 0x3371
ENCODING 13169
SWIDTH 886 0
DWIDTH 12 0
BBX 12 13 0 -2
BITMAP
06C0
36C0
3FF0
F6C0
3680
36B0
75A0
75C0
DD80
D580
35B0
35F0
0000
ENDCHAR
STARTCHAR 0x3372
ENCODING 13170
SWIDTH 886 0
DWIDTH 12 0
BBX 12 13 0 -2
BITMAP
0360
3360
37F0
FB60
37F0
36D0
7FF0
76D0
D7F0
D0C0
37F0
30C0
0000
ENDCHAR
STARTCHAR 0x3373
ENCODING 13171
SWIDTH 886 0
DWIDTH 12 0
BBX 12 13 0 -2
BITMAP
0300
6B00
FDF0
6A30
7BD0
36D0
FCD0
D5D0
FD70
3300
FD30
33F0
0000
ENDCHAR
STARTCHAR 0x3374
ENCODING 13172
SWIDTH 886 0
DWIDTH 12 0
BBX 12 13 0 -2
BITMAP
0180
3580
3580
F7F0
3980
3180
77F0
7980
D3C0
D6A0
3DB0
3180
0000
ENDCHAR
STARTCHAR 0x3375
ENCODING 13173
SWIDTH 886 0
DWIDTH 12 0
BBX 12 13 0 -2
BITMAP
0600
0C00
EFB0
D9B0
DFB0
D9B0
D9B0
EFB0
0300
1B00
1B30
F3F0
0000
ENDCHAR
STARTCHAR 0x3376
ENCODING 13174
SWIDTH 886 0
DWIDTH 12 0
BBX 12 13 0 -2
BITMAP
0600
0600
FFF0
CD30
1B00
7FE0
36C0
7FE0
6660
7FE0
6630
07F0
0000
ENDCHAR
STARTCHAR 0x3377
ENCODING 13175
SWIDTH 886 0
DWIDTH 12 0
BBX 12 13 0 -2
BITMAP
1980
1980
FFF0
19B0
6FF0
3180
CFF0
6DB0
0FF0
35B0
6FF0
CDB0
0000
ENDCHAR
STARTCHAR 0x3378
ENCODING 13176
SWIDTH 886 0
DWIDTH 12 0
BBX 12 13 0 -2
BITMAP
0000
39C0
ED70
0F00
39C0
E070
3FC0
0600
7FE0
36C0
1A80
FFF0
0000
ENDCHAR
STARTCHAR 0x3379
ENCODING 13177
SWIDTH 886 0
DWIDTH 12 0
BBX 12 13 0 -2
BITMAP
0360
3B40
6FF0
C340
FBF0
3350
FFF0
3350
DBF0
D340
3760
FD50
0000
ENDCHAR
STARTCHAR 0x337A
ENCODING 13178
SWIDTH 886 0
DWIDTH 12 0
BBX 12 13 0 -2
BITMAP
0300
0DE0
F500
DFF0
D360
D550
D330
DFF0
D550
DB70
F330
3FF0
0000
ENDCHAR
STARTCHAR 0x337B
ENCODING 13179
SWIDTH 886 0
DWIDTH 12 0
BBX 12 13 0 -2
BITMAP
00C0
0180
FDE0
D560
D5E0
FD60
D5F0
D500
FDF0
3030
3550
3570
0000
ENDCHAR
STARTCHAR 0x337C
ENCODING 13180
SWIDTH 886 0
DWIDTH 12 0
BBX 12 13 0 -2
BITMAP
0000
37F0
3180
FB00
37F0
3630
7630
77F0
DA30
D630
3630
37F0
0000
ENDCHAR
STARTCHAR 0x337D
ENCODING 13181
SWIDTH 886 0
DWIDTH 12 0
BBX 12 13 0 -2
BITMAP
1980
1980
FFF0
1980
3FC0
0180
FFF0
0730
0D60
3B00
E300
0F00
0000
ENDCHAR
STARTCHAR 0x337E
ENCODING 13182
SWIDTH 886 0
DWIDTH 12 0
BBX 12 13 0 -2
BITMAP
1980
1980
FFF0
1980
0600
FFF0
C030
DFD0
1980
1F80
1980
FFF0
0000
ENDCHAR
STARTCHAR 0x3421
ENCODING 13345
SWIDTH 886 0
DWIDTH 12 0
BBX 12 13 0 -2
BITMAP
0000
F6F0
3AB0
3730
F6F0
DFC0
C6C0
F6F0
3730
3AB0
3630
E6E0
0000
ENDCHAR
STARTCHAR 0x3422
ENCODING 13346
SWIDTH 886 0
DWIDTH 12 0
BBX 12 13 0 -2
BITMAP
0000
0C30
0DB0
CDB0
6DB0
39B0
19B0
19B0
35B0
3630
6030
6070
0000
ENDCHAR
STARTCHAR 0x3423
ENCODING 13347
SWIDTH 886 0
DWIDTH 12 0
BBX 12 13 0 -2
BITMAP
1980
1980
FFF0
1980
1830
69B0
39B0
19B0
35B0
36B0
6030
6070
0000
ENDCHAR
STARTCHAR 0x3424
ENCODING 13348
SWIDTH 886 0
DWIDTH 12 0
BBX 12 13 0 -2
BITMAP
0000
FFF0
1800
1800
1F80
1980
1980
3580
3680
31B0
3FB0
E1F0
0000
ENDCHAR
STARTCHAR 0x3425
ENCODING 13349
SWIDTH 886 0
DWIDTH 12 0
BBX 12 13 0 -2
BITMAP
0300
3300
FDF0
3300
FE00
CDF0
FC60
CCC0
FD80
3330
FE30
37F0
0000
ENDCHAR
STARTCHAR 0x3426
ENCODING 13350
SWIDTH 886 0
DWIDTH 12 0
BBX 12 13 0 -2
BITMAP
0000
37F0
3430
6C30
6C30
EFF0
6000
66A0
66A0
66A0
6DA0
69B0
0000
ENDCHAR
STARTCHAR 0x3427
ENCODING 13351
SWIDTH 886 0
DWIDTH 12 0
BBX 12 13 0 -2
BITMAP
0000
FFF0
C030
0060
F860
07F0
0060
FD60
69A0
6860
D830
DFF0
0000
ENDCHAR
STARTCHAR 0x3428
ENCODING 13352
SWIDTH 886 0
DWIDTH 12 0
BBX 12 13 0 -2
BITMAP
0600
0600
FFF0
D9B0
DFD0
1980
FFF0
1980
36C0
E3B0
1C00
0780
0000
ENDCHAR
STARTCHAR 0x3429
ENCODING 13353
SWIDTH 886 0
DWIDTH 12 0
BBX 12 13 0 -2
BITMAP
0000
FE30
31B0
31B0
31B0
31B0
FEB0
31B0
31B0
3030
3030
3070
0000
ENDCHAR
STARTCHAR 0x342A
ENCODING 13354
SWIDTH 886 0
DWIDTH 12 0
BBX 12 13 0 -2
BITMAP
0180
6D80
FD80
6FF0
7DB0
6DB0
6DB0
FEB0
D530
EF30
C060
FEC0
0000
ENDCHAR
STARTCHAR 0x342B
ENCODING 13355
SWIDTH 886 0
DWIDTH 12 0
BBX 12 13 0 -2
BITMAP
6180
6180
7E80
D3F0
FEB0
69B0
7EB0
E9B0
7F30
6B30
6860
7EC0
0000
ENDCHAR
STARTCHAR 0x342C
ENCODING 13356
SWIDTH 886 0
DWIDTH 12 0
BBX 12 13 0 -2
BITMAP
0600
3660
36C0
7FE0
0D80
FFF0
18C0
3FE0
E0D0
3FC0
3060
3FE0
0000
ENDCHAR
STARTCHAR 0x342D
ENCODING 13357
SWIDTH 886 0
DWIDTH 12 0
BBX 12 13 0 -2
BITMAP
0000
07E0
F4C0
DFF0
D550
D550
D6F0
D5B0
DFF0
D340
F660
1C30
0000
ENDCHAR
STARTCHAR 0x342E
ENCODING 13358
SWIDTH 886 0
DWIDTH 12 0
BBX 12 13 0 -2
BITMAP
0660
6660
6FF0
6660
F7E0
6660
6660
6FF0
6D40
6EF0
FC00
0FF0
0000
ENDCHAR
STARTCHAR 0x342F
ENCODING 13359
SWIDTH 886 0
DWIDTH 12 0
BBX 12 13 0 -2
BITMAP
0C00
0C00
7FE0
1980
3980
1F80
30C0
FFF0
6D60
ED60
3DE0
E730
0000
ENDCHAR
STARTCHAR 0x3430
ENCODING 13360
SWIDTH 886 0
DWIDTH 12 0
BBX 12 13 0 -2
BITMAP
0600
0600
FFF0
C030
DFD0
0000
0000
7FE0
1B00
1B00
3330
E3F0
0000
ENDCHAR
STARTCHAR 0x3431
ENCODING 13361
SWIDTH 886 0
DWIDTH 12 0
BBX 12 13 0 -2
BITMAP
0600
0600
FFF0
C030
DFB0
D1B0
3F80
3000
3FC0
30C0
30C0
3FC0
0000
ENDCHAR
STARTCHAR 0x3432
ENCODING 13362
SWIDTH 886 0
DWIDTH 12 0
BBX 12 13 0 -2
BITMAP
0600
0600
FFF0
D9B0
7FE0
30C0
3FC0
30C0
3FC0
0D00
3B30
E3F0
0000
ENDCHAR
STARTCHAR 0x3433
ENCODING 13363
SWIDTH 886 0
DWIDTH 12 0
BBX 12 13 0 -2
BITMAP
0000
7FE0
0600
0600
0600
0600
FFF0
0600
0600
0600
0600
0600
0000
ENDCHAR
STARTCHAR 0x3434
ENCODING 13364
SWIDTH 886 0
DWIDTH 12 0
BBX 12 13 0 -2
BITMAP
0000
31E0
FD30
3600
FDF0
CCC0
FCC0
CCC0
FDF0
30C0
FCC0
30C0
0000
ENDCHAR
STARTCHAR 0x3435
ENCODING 13365
SWIDTH 886 0
DWIDTH 12 0
BBX 12 13 0 -2
BITMAP
0600
0600
7FE0
6660
7FE0
0600
7FE0
6660
7FE0
1B00
6860
CFD0
0000
ENDCHAR
STARTCHAR 0x3436
ENCODING 13366
SWIDTH 886 0
DWIDTH 12 0
BBX 12 13 0 -2
BITMAP
0180
01B0
7FF0
6180
6EA0
6AC0
DEA0
C330
0600
1B60
6830
CFC0
0000
ENDCHAR
STARTCHAR 0x3437
ENCODING 13367
SWIDTH 886 0
DWIDTH 12 0
BBX 12 13 0 -2
BITMAP
0000
37F0
35B0
3FF0
D5B0
D7F0
D430
D7F0
D430
37F0
3360
3630
0000
ENDCHAR
STARTCHAR 0x3438
ENCODING 13368
SWIDTH 886 0
DWIDTH 12 0
BBX 12 13 0 -2
BITMAP
00C0
30D0
37F0
34C0
D750
D560
D750
D5B0
3300
0DA0
3430
67C0
0000
ENDCHAR
STARTCHAR 0x3439
ENCODING 13369
SWIDTH 886 0
DWIDTH 12 0
BBX 12 13 0 -2
BITMAP
0000
67E0
6CC0
FFF0
6D50
6D50
6EF0
75B0
EFF0
6340
6660
EC30
0000
ENDCHAR
STARTCHAR 0x343A
ENCODING 13370
SWIDTH 886 0
DWIDTH 12 0
BBX 12 13 0 -2
BITMAP
0180
FE80
19F0
FEB0
6730
7E30
66D0
7ED0
6660
7E60
E6D0
07B0
0000
ENDCHAR
STARTCHAR 0x343B
ENCODING 13371
SWIDTH 886 0
DWIDTH 12 0
BBX 12 13 0 -2
BITMAP
0600
3630
3630
FFF0
3630
3630
77F0
7630
DA30
D630
3630
37F0
0000
ENDCHAR
STARTCHAR 0x343C
ENCODING 13372
SWIDTH 886 0
DWIDTH 12 0
BBX 12 13 0 -2
BITMAP
0000
37F0
3000
FBF0
3630
3630
77F0
7630
DA30
D7F0
3000
37F0
0000
ENDCHAR
STARTCHAR 0x343D
ENCODING 13373
SWIDTH 886 0
DWIDTH 12 0
BBX 12 13 0 -2
BITMAP
0180
3180
37F0
FC30
37E0
3660
77E0
7600
DBF0
D630
3630
37F0
0000
ENDCHAR
STARTCHAR 0x343E
ENCODING 13374
SWIDTH 886 0
DWIDTH 12 0
BBX 12 13 0 -2
BITMAP
0300
3300
FFF0
3350
FD50
0350
FCC0
00C0
FEA0
31A0
D530
D630
0000
ENDCHAR
STARTCHAR 0x343F
ENCODING 13375
SWIDTH 886 0
DWIDTH 12 0
BBX 12 13 0 -2
BITMAP
6300
6300
7FF0
D350
FF50
6B50
7EC0
E8C0
7EA0
69A0
6B30
7E30
0000
ENDCHAR
STARTCHAR 0x3440
ENCODING 13376
SWIDTH 886 0
DWIDTH 12 0
BBX 12 13 0 -2
BITMAP
0000
0FF0
C180
6180
0180
C180
6FF0
0180
0180
3180
6180
C180
0000
ENDCHAR
STARTCHAR 0x3441
ENCODING 13377
SWIDTH 886 0
DWIDTH 12 0
BBX 12 13 0 -2
BITMAP
06C0
06C0
DFF0
66C0
0FF0
CDB0
6FF0
0180
6FF0
6340
C660
DC30
0000
ENDCHAR
STARTCHAR 0x3442
ENCODING 13378
SWIDTH 886 0
DWIDTH 12 0
BBX 12 13 0 -2
BITMAP
0000
1F70
DB50
6F70
1B50
DF70
6830
1BD0
6AD0
6BD0
DAD0
DBD0
0000
ENDCHAR
STARTCHAR 0x3443
ENCODING 13379
SWIDTH 886 0
DWIDTH 12 0
BBX 12 13 0 -2
BITMAP
0600
0600
C7F0
6D80
0FF0
C360
67F0
0EC0
07F0
36C0
66C0
C7F0
0000
ENDCHAR
STARTCHAR 0x3444
ENCODING 13380
SWIDTH 886 0
DWIDTH 12 0
BBX 12 13 0 -2
BITMAP
0000
0FF0
FD50
37F0
3000
37F0
FA60
37E0
31B0
3BC0
EEA0
01B0
0000
ENDCHAR
STARTCHAR 0x3445
ENCODING 13381
SWIDTH 886 0
DWIDTH 12 0
BBX 12 13 0 -2
BITMAP
30C0
30C0
30C0
FFF0
30C0
30C0
3FC0
30C0
30C0
30C0
30C0
3FC0
0000
ENDCHAR
STARTCHAR 0x3446
ENCODING 13382
SWIDTH 886 0
DWIDTH 12 0
BBX 12 13 0 -2
BITMAP
0300
FD00
D3F0
FE00
CC00
FDE0
D000
D000
FFE0
6D60
6D60
FFF0
0000
ENDCHAR
STARTCHAR 0x3447
ENCODING 13383
SWIDTH 886 0
DWIDTH 12 0
BBX 12 13 0 -2
BITMAP
0000
7FF0
0600
3FE0
0600
FFF0
0C00
1FE0
3860
EFE0
1860
1FE0
0000
ENDCHAR
STARTCHAR 0x3448
ENCODING 13384
SWIDTH 886 0
DWIDTH 12 0
BBX 12 13 0 -2
BITMAP
0300
6300
7DF0
D6C0
0000
7FE0
0600
0600
FFF0
0600
0600
0600
0000
ENDCHAR
STARTCHAR 0x3449
ENCODING 13385
SWIDTH 886 0
DWIDTH 12 0
BBX 12 13 0 -2
BITMAP
0300
6300
7DF0
D6C0
0600
FFF0
D9B0
DFB0
1800
1FC0
18C0
1FC0
0000
ENDCHAR
STARTCHAR 0x344A
ENCODING 13386
SWIDTH 886 0
DWIDTH 12 0
BBX 12 13 0 -2
BITMAP
6300
6300
7DF0
D6C0
FDF0
CD30
FDF0
CF30
F9F0
DFB0
D9B0
DFB0
0000
ENDCHAR
STARTCHAR 0x344B
ENCODING 13387
SWIDTH 886 0
DWIDTH 12 0
BBX 12 13 0 -2
BITMAP
0000
37F0
66B0
C6A0
F7F0
3180
6FF0
FB00
37E0
D560
D1C0
3770
0000
ENDCHAR
STARTCHAR 0x344C
ENCODING 13388
SWIDTH 886 0
DWIDTH 12 0
BBX 12 13 0 -2
BITMAP
3000
3000
3FE0
6600
6600
0600
FFF0
0600
0600
6660
6660
7FE0
0000
ENDCHAR
STARTCHAR 0x344D
ENCODING 13389
SWIDTH 886 0
DWIDTH 12 0
BBX 12 13 0 -2
BITMAP
0000
31E0
FD30
3600
FFF0
CDB0
FED0
CDB0
FDB0
36D0
FDB0
33B0
0000
ENDCHAR
STARTCHAR 0x344E
ENCODING 13390
SWIDTH 886 0
DWIDTH 12 0
BBX 12 13 0 -2
BITMAP
0000
FBF0
D8C0
D8C0
F8C0
D8C0
DBF0
F8C0
D8C0
D8C0
D8C0
D8C0
0000
ENDCHAR
STARTCHAR 0x344F
ENCODING 13391
SWIDTH 886 0
DWIDTH 12 0
BBX 12 13 0 -2
BITMAP
30C0
6FC0
F540
D7F0
F580
D780
FD70
D300
F7F0
D550
D550
DFF0
0000
ENDCHAR
STARTCHAR 0x3450
ENCODING 13392
SWIDTH 886 0
DWIDTH 12 0
BBX 12 13 0 -2
BITMAP
1980
1980
FFF0
1980
FFF0
C030
3FC0
0000
7FE0
0D00
3B30
E3F0
0000
ENDCHAR
STARTCHAR 0x3451
ENCODING 13393
SWIDTH 886 0
DWIDTH 12 0
BBX 12 13 0 -2
BITMAP
6000
63F0
7F30
D3F0
FF30
6BF0
7F30
EBF0
7DA0
69A0
6B60
7E70
0000
ENDCHAR
STARTCHAR 0x3452
ENCODING 13394
SWIDTH 886 0
DWIDTH 12 0
BBX 12 13 0 -2
BITMAP
0180
F180
0FF0
F180
0FF0
F5B0
0FF0
0DB0
F7F0
D380
D6A0
FDB0
0000
ENDCHAR
STARTCHAR 0x3453
ENCODING 13395
SWIDTH 886 0
DWIDTH 12 0
BBX 12 13 0 -2
BITMAP
0000
7FE0
6660
FFF0
6660
7FE0
30C0
3FC0
30C0
3FC0
30C0
E070
0000
ENDCHAR
STARTCHAR 0x3454
ENCODING 13396
SWIDTH 886 0
DWIDTH 12 0
BBX 12 13 0 -2
BITMAP
0000
0FF0
6D50
37F0
0000
1FF0
F660
37E0
33B0
36A0
69B0
CFF0
0000
ENDCHAR
STARTCHAR 0x3455
ENCODING 13397
SWIDTH 886 0
DWIDTH 12 0
BBX 12 13 0 -2
BITMAP
00C0
3FC0
6D40
CFF0
FD80
3780
FD70
3300
D7F0
D550
3550
FFF0
0000
ENDCHAR
STARTCHAR 0x3456
ENCODING 13398
SWIDTH 886 0
DWIDTH 12 0
BBX 12 13 0 -2
BITMAP
0000
FDF0
CD30
FDF0
CD30
FDF0
C030
DFB0
D9B0
DFB0
D9B0
DFB0
0000
ENDCHAR
STARTCHAR 0x3457
ENCODING 13399
SWIDTH 886 0
DWIDTH 12 0
BBX 12 13 0 -2
BITMAP
0000
FDF0
CD30
FDF0
CD30
FDF0
C630
DFD0
C630
CF30
DAD0
C670
0000
ENDCHAR
STARTCHAR 0x3458
ENCODING 13400
SWIDTH 886 0
DWIDTH 12 0
BBX 12 13 0 -2
BITMAP
0000
FDF0
CD30
FDF0
CD30
FDF0
CD30
DFD0
C630
DFD0
CD30
D9B0
0000
ENDCHAR
STARTCHAR 0x3459
ENCODING 13401
SWIDTH 886 0
DWIDTH 12 0
BBX 12 13 0 -2
BITMAP
0000
F3E0
D660
D4C0
E3F0
D530
D530
D5F0
D530
ED30
CD30
CDF0
0000
ENDCHAR
STARTCHAR 0x345A
ENCODING 13402
SWIDTH 886 0
DWIDTH 12 0
BBX 12 13 0 -2
BITMAP
30C0
30C0
FBF0
31B0
FFF0
CD30
FDF0
CCC0
FFF0
36C0
FFF0
30C0
0000
ENDCHAR
STARTCHAR 0x345B
ENCODING 13403
SWIDTH 886 0
DWIDTH 12 0
BBX 12 13 0 -2
BITMAP
0180
7980
C7F0
3630
FDF0
CD60
FDE0
CD00
FDF0
D330
DB30
F5F0
0000
ENDCHAR
STARTCHAR 0x345C
ENCODING 13404
SWIDTH 886 0
DWIDTH 12 0
BBX 12 13 0 -2
BITMAP
0180
3980
67F0
C630
FDF0
3360
FDE0
3300
FDF0
CD30
CD30
FDF0
0000
ENDCHAR
STARTCHAR 0x345D
ENCODING 13405
SWIDTH 886 0
DWIDTH 12 0
BBX 12 13 0 -2
BITMAP
1800
1800
1800
FF80
1980
1980
6980
3980
1980
35B0
66B0
C1F0
0000
ENDCHAR
STARTCHAR 0x345E
ENCODING 13406
SWIDTH 886 0
DWIDTH 12 0
BBX 12 13 0 -2
BITMAP
0000
1F80
30C0
6FA0
C030
3FC0
0180
0300
3FC0
30C0
30C0
3FC0
0000
ENDCHAR
STARTCHAR 0x345F
ENCODING 13407
SWIDTH 886 0
DWIDTH 12 0
BBX 12 13 0 -2
BITMAP
0300
6330
7FF0
0000
7FF0
6000
6FE0
6300
6300
DFF0
C300
0300
0000
ENDCHAR
STARTCHAR 0x3460
ENCODING 13408
SWIDTH 886 0
DWIDTH 12 0
BBX 12 13 0 -2
BITMAP
0600
6630
7FF0
3360
7FF0
6D80
7FF0
6A60
6EA0
6AA0
DEC0
C770
0000
ENDCHAR
STARTCHAR 0x3461
ENCODING 13409
SWIDTH 886 0
DWIDTH 12 0
BBX 12 13 0 -2
BITMAP
0000
0FF0
F800
3000
3000
FFF0
36C0
36C0
3AC0
E6C0
0CD0
38F0
0000
ENDCHAR
STARTCHAR 0x3462
ENCODING 13410
SWIDTH 886 0
DWIDTH 12 0
BBX 12 13 0 -2
BITMAP
0300
0300
7FF0
6C60
EFE0
6000
6F70
EB50
6F70
6180
D9B0
DFF0
0000
ENDCHAR
STARTCHAR 0x3463
ENCODING 13411
SWIDTH 886 0
DWIDTH 12 0
BBX 12 13 0 -2
BITMAP
0000
07F0
FA30
DBF0
FA30
DA30
DBF0
FA80
DAB0
DAD0
FA60
07B0
0000
ENDCHAR
STARTCHAR 0x3464
ENCODING 13412
SWIDTH 886 0
DWIDTH 12 0
BBX 12 13 0 -2
BITMAP
0600
6660
6660
7FE0
0000
FFF0
0C00
1800
3FE0
F060
3060
3FE0
0000
ENDCHAR
STARTCHAR 0x3465
ENCODING 13413
SWIDTH 886 0
DWIDTH 12 0
BBX 12 13 0 -2
BITMAP
0000
FEF0
3600
DA00
7600
DBF0
36A0
FDA0
CDA0
FDA0
CD60
FD70
0000
ENDCHAR
STARTCHAR 0x3466
ENCODING 13414
SWIDTH 886 0
DWIDTH 12 0
BBX 12 13 0 -2
BITMAP
0000
7FF0
6D60
6BF0
7B40
6B40
6FF0
6860
DFE0
D860
1FE0
7070
0000
ENDCHAR
STARTCHAR 0x3467
ENCODING 13415
SWIDTH 886 0
DWIDTH 12 0
BBX 12 13 0 -2
BITMAP
0000
7FF0
6DA0
6DA0
6BF0
7B60
6BF0
6D60
6BF0
DB60
DB60
1BF0
0000
ENDCHAR
STARTCHAR 0x3468
ENCODING 13416
SWIDTH 886 0
DWIDTH 12 0
BBX 12 13 0 -2
BITMAP
0000
0FF0
F980
07F0
0630
FBF0
6A30
6BF0
6A30
DFF0
C360
0E30
0000
ENDCHAR
STARTCHAR 0x3469
ENCODING 13417
SWIDTH 886 0
DWIDTH 12 0
BBX 12 13 0 -2
BITMAP
3000
37F0
FCC0
6DF0
6D30
FFF0
DB30
F3F0
DD30
F3F0
1DA0
F730
0000
ENDCHAR
STARTCHAR 0x346A
ENCODING 13418
SWIDTH 886 0
DWIDTH 12 0
BBX 12 13 0 -2
BITMAP
0000
FDF0
D8C0
FDF0
CD30
FDF0
CD30
FDF0
DB30
6DF0
D9A0
3B30
0000
ENDCHAR
STARTCHAR 0x346B
ENCODING 13419
SWIDTH 886 0
DWIDTH 12 0
BBX 12 13 0 -2
BITMAP
0000
0F00
1980
30C0
6660
C630
0600
37C0
3600
3600
3600
FFF0
0000
ENDCHAR
STARTCHAR 0x346C
ENCODING 13420
SWIDTH 886 0
DWIDTH 12 0
BBX 12 13 0 -2
BITMAP
0180
3180
3FF0
6180
6180
EFE0
6060
6660
6660
6340
63C0
6E70
0000
ENDCHAR
STARTCHAR 0x346D
ENCODING 13421
SWIDTH 886 0
DWIDTH 12 0
BBX 12 13 0 -2
BITMAP
0000
1F80
3180
6300
FFF0
6000
6FC0
6CC0
6CC0
6DC0
CC30
CFF0
0000
ENDCHAR
STARTCHAR 0x346E
ENCODING 13422
SWIDTH 886 0
DWIDTH 12 0
BBX 12 13 0 -2
BITMAP
0600
0600
FFF0
0600
7FE0
30C0
3FC0
1980
FFF0
30C0
30C0
3FC0
0000
ENDCHAR
STARTCHAR 0x346F
ENCODING 13423
SWIDTH 886 0
DWIDTH 12 0
BBX 12 13 0 -2
BITMAP
0000
7DE0
6D60
6D60
7DE0
0600
FFF0
1980
FDF0
6D60
6D60
7DE0
0000
ENDCHAR
STARTCHAR 0x3470
ENCODING 13424
SWIDTH 886 0
DWIDTH 12 0
BBX 12 13 0 -2
BITMAP
1980
1980
7FE0
1980
1F80
1980
FFF0
1980
36C0
EFB0
0600
7FE0
0000
ENDCHAR
STARTCHAR 0x3471
ENCODING 13425
SWIDTH 886 0
DWIDTH 12 0
BBX 12 13 0 -2
BITMAP
0600
0600
7FE0
0D00
1980
30C0
FFF0
00C0
3EC0
36C0
3EC0
01C0
0000
ENDCHAR
STARTCHAR 0x3472
ENCODING 13426
SWIDTH 886 0
DWIDTH 12 0
BBX 12 13 0 -2
BITMAP
00C0
60C0
6FF0
F8C0
6BF0
6A30
6BF0
DB60
F7F0
3A30
6630
67F0
0000
ENDCHAR
STARTCHAR 0x3473
ENCODING 13427
SWIDTH 886 0
DWIDTH 12 0
BBX 12 13 0 -2
BITMAP
0600
0600
FFF0
C630
DFD0
0D00
1980
FFF0
00C0
3EC0
36C0
3EC0
0000
ENDCHAR
STARTCHAR 0x3474
ENCODING 13428
SWIDTH 886 0
DWIDTH 12 0
BBX 12 13 0 -2
BITMAP
0180
3180
3FF0
3180
D180
D7E0
D060
D660
D660
FB40
03C0
1E70
0000
ENDCHAR
STARTCHAR 0x3475
ENCODING 13429
SWIDTH 886 0
DWIDTH 12 0
BBX 12 13 0 -2
BITMAP
0000
39E0
0F00
79C0
0660
FFF0
1B00
3FE0
EB60
1B60
1B60
0300
0000
ENDCHAR
STARTCHAR 0x3476
ENCODING 13430
SWIDTH 886 0
DWIDTH 12 0
BBX 12 13 0 -2
BITMAP
0600
36C0
6AA0
36C0
66B0
7EF0
0600
FFF0
3330
3360
69C0
6F70
0000
ENDCHAR
STARTCHAR 0x3477
ENCODING 13431
SWIDTH 886 0
DWIDTH 12 0
BBX 12 13 0 -2
BITMAP
0000
3FC0
00C0
00C0
3FC0
3000
3060
3FE0
0600
1B60
6830
CFC0
0000
ENDCHAR
STARTCHAR 0x3478
ENCODING 13432
SWIDTH 886 0
DWIDTH 12 0
BBX 12 13 0 -2
BITMAP
0000
6FF0
69B0
FFF0
6DB0
6FF0
6DB0
75B0
EFF0
6180
6FF0
E180
0000
ENDCHAR
STARTCHAR 0x3479
ENCODING 13433
SWIDTH 886 0
DWIDTH 12 0
BBX 12 13 0 -2
BITMAP
0000
37E0
3660
FA60
3660
3660
7660
7A60
D660
D660
3460
3870
0000
ENDCHAR
STARTCHAR 0x347A
ENCODING 13434
SWIDTH 886 0
DWIDTH 12 0
BBX 12 13 0 -2
BITMAP
0600
6600
6FF0
FA60
67F0
6660
7BE0
6A60
DFF0
D800
1B60
7630
0000
ENDCHAR
STARTCHAR 0x347B
ENCODING 13435
SWIDTH 886 0
DWIDTH 12 0
BBX 12 13 0 -2
BITMAP
0000
FBF0
DB60
FB60
DB60
DFF0
F8C0
C0C0
D9C0
CD50
D6D0
ECF0
0000
ENDCHAR
STARTCHAR 0x347C
ENCODING 13436
SWIDTH 886 0
DWIDTH 12 0
BBX 12 13 0 -2
BITMAP
0000
6DF0
FEB0
6DB0
7DF0
6DB0
7DB0
6DF0
FEB0
01B0
6B30
CD70
0000
ENDCHAR
STARTCHAR 0x347D
ENCODING 13437
SWIDTH 886 0
DWIDTH 12 0
BBX 12 13 0 -2
BITMAP
0660
3660
37F0
FA60
37E0
3660
77E0
7660
D7F0
D000
3660
3430
0000
ENDCHAR
STARTCHAR 0x347E
ENCODING 13438
SWIDTH 886 0
DWIDTH 12 0
BBX 12 13 0 -2
BITMAP
0600
0600
FFF0
18C0
7FE0
36C0
FFF0
36C0
7FE0
0E80
3AC0
E670
0000
ENDCHAR
STARTCHAR 0x3521
ENCODING 13601
SWIDTH 886 0
DWIDTH 12 0
BBX 12 13 0 -2
BITMAP
0180
36B0
35A0
FAD0
35A0
37F0
7180
77F0
D6C0
D750
3460
35D0
0000
ENDCHAR
STARTCHAR 0x3522
ENCODING 13602
SWIDTH 886 0
DWIDTH 12 0
BBX 12 13 0 -2
BITMAP
0000
37E0
D060
D7E0
D060
DFF0
D1B0
D7F0
35A0
35A0
6DE0
6180
0000
ENDCHAR
STARTCHAR 0x3523
ENCODING 13603
SWIDTH 886 0
DWIDTH 12 0
BBX 12 13 0 -2
BITMAP
3000
33E0
FD60
6B60
6B60
FE70
D400
6BF0
DB30
6D60
D9C0
7770
0000
ENDCHAR
STARTCHAR 0x3524
ENCODING 13604
SWIDTH 886 0
DWIDTH 12 0
BBX 12 13 0 -2
BITMAP
3000
3000
3FF0
6000
6FC0
0000
7FE0
0060
3B60
0E60
1B30
71B0
0000
ENDCHAR
STARTCHAR 0x3525
ENCODING 13605
SWIDTH 886 0
DWIDTH 12 0
BBX 12 13 0 -2
BITMAP
0C00
0C00
CFE0
6800
1BC0
C000
6FE0
0060
0060
3060
6030
C030
0000
ENDCHAR
STARTCHAR 0x3526
ENCODING 13606
SWIDTH 886 0
DWIDTH 12 0
BBX 12 13 0 -2
BITMAP
0600
1AC0
36A0
6B40
36B0
FFF0
0600
FFF0
6AB0
7EA0
6AC0
7EB0
0000
ENDCHAR
STARTCHAR 0x3527
ENCODING 13607
SWIDTH 886 0
DWIDTH 12 0
BBX 12 13 0 -2
BITMAP
0000
30E0
3780
FA00
1A00
1BF0
3660
7660
DA60
3460
3460
3060
0000
ENDCHAR
STARTCHAR 0x3528
ENCODING 13608
SWIDTH 886 0
DWIDTH 12 0
BBX 12 13 0 -2
BITMAP
0000
3FC0
0600
FFF0
1A80
36C0
EFA0
0330
0600
FFF0
0600
1E00
0000
ENDCHAR
STARTCHAR 0x3529
ENCODING 13609
SWIDTH 886 0
DWIDTH 12 0
BBX 12 13 0 -2
BITMAP
0000
1D70
F1C0
3760
31B0
FBF0
3300
77F0
76B0
DAB0
D6B0
3180
0000
ENDCHAR
STARTCHAR 0x352A
ENCODING 13610
SWIDTH 886 0
DWIDTH 12 0
BBX 12 13 0 -2
BITMAP
0000
37F0
6030
D830
F830
37F0
6600
FE00
3600
DA30
D630
37F0
0000
ENDCHAR
STARTCHAR 0x352B
ENCODING 13611
SWIDTH 886 0
DWIDTH 12 0
BBX 12 13 0 -2
BITMAP
0680
3A80
6AF0
DFB0
0630
3550
6AD0
ED50
6FA0
6660
6AD0
77B0
0000
ENDCHAR
STARTCHAR 0x352C
ENCODING 13612
SWIDTH 886 0
DWIDTH 12 0
BBX 12 13 0 -2
BITMAP
0000
37F0
3630
FBF0
3630
37F0
FE30
37F0
6B40
6B40
C6D0
DCF0
0000
ENDCHAR
STARTCHAR 0x352D
ENCODING 13613
SWIDTH 886 0
DWIDTH 12 0
BBX 12 13 0 -2
BITMAP
0000
FBF0
0030
F830
0030
FBF0
0600
0600
FA00
DA30
DA30
FBF0
0000
ENDCHAR
STARTCHAR 0x352E
ENCODING 13614
SWIDTH 886 0
DWIDTH 12 0
BBX 12 13 0 -2
BITMAP
0600
0600
7FE0
6660
7FE0
0600
FFF0
30C0
3FC0
30C0
3FC0
E070
0000
ENDCHAR
STARTCHAR 0x352F
ENCODING 13615
SWIDTH 886 0
DWIDTH 12 0
BBX 12 13 0 -2
BITMAP
3000
33F0
FC30
3030
33F0
FD00
3300
3D30
D3F0
D000
F800
CFF0
0000
ENDCHAR
STARTCHAR 0x3530
ENCODING 13616
SWIDTH 886 0
DWIDTH 12 0
BBX 12 13 0 -2
BITMAP
0180
3180
FD80
37E0
FDA0
D5A0
FDA0
D5A0
FD60
3360
FE60
3670
0000
ENDCHAR
STARTCHAR 0x3531
ENCODING 13617
SWIDTH 886 0
DWIDTH 12 0
BBX 12 13 0 -2
BITMAP
0000
37F0
35B0
D7F0
D6B0
37F0
FEB0
6AB0
6BF0
6980
DFF0
C180
0000
ENDCHAR
STARTCHAR 0x3532
ENCODING 13618
SWIDTH 886 0
DWIDTH 12 0
BBX 12 13 0 -2
BITMAP
0000
7BE0
CD60
3360
FD60
CD60
FD60
CD60
FD60
DB60
CD60
FA70
0000
ENDCHAR
STARTCHAR 0x3533
ENCODING 13619
SWIDTH 886 0
DWIDTH 12 0
BBX 12 13 0 -2
BITMAP
0180
F980
D7F0
FB40
D660
FC30
D7F0
F830
1BB0
EAB0
1BB0
7070
0000
ENDCHAR
STARTCHAR 0x3534
ENCODING 13620
SWIDTH 886 0
DWIDTH 12 0
BBX 12 13 0 -2
BITMAP
0600
0C00
7FC0
6CC0
7FC0
6CC0
6CC0
7FC0
1AA0
1AE0
3630
E3F0
0000
ENDCHAR
STARTCHAR 0x3535
ENCODING 13621
SWIDTH 886 0
DWIDTH 12 0
BBX 12 13 0 -2
BITMAP
0000
3F80
6300
FFC0
6CC0
7FE0
6C60
FFE0
CC60
FFE0
CC30
07F0
0000
ENDCHAR
STARTCHAR 0x3536
ENCODING 13622
SWIDTH 886 0
DWIDTH 12 0
BBX 12 13 0 -2
BITMAP
0CC0
36C0
3180
6FC0
66C0
EFE0
6860
7FF0
6030
6AB0
6AB0
60E0
0000
ENDCHAR
STARTCHAR 0x3537
ENCODING 13623
SWIDTH 886 0
DWIDTH 12 0
BBX 12 13 0 -2
BITMAP
0660
36C0
3FF0
6180
6FF0
E180
6FF0
6D80
7FF0
6DB0
6EE0
6DB0
0000
ENDCHAR
STARTCHAR 0x3538
ENCODING 13624
SWIDTH 886 0
DWIDTH 12 0
BBX 12 13 0 -2
BITMAP
0180
6180
6FF0
F980
6980
6FE0
6860
DA60
F660
3B40
63C0
6E70
0000
ENDCHAR
STARTCHAR 0x3539
ENCODING 13625
SWIDTH 886 0
DWIDTH 12 0
BBX 12 13 0 -2
BITMAP
0600
0600
FFF0
C030
DFD0
30C0
3FC0
30C0
3FC0
30C0
30C0
FFF0
0000
ENDCHAR
STARTCHAR 0x353A
ENCODING 13626
SWIDTH 886 0
DWIDTH 12 0
BBX 12 13 0 -2
BITMAP
18C0
1F50
18D0
7F40
6BF0
7F40
68D0
6F50
DAA0
DB60
1AD0
7FB0
0000
ENDCHAR
STARTCHAR 0x353B
ENCODING 13627
SWIDTH 886 0
DWIDTH 12 0
BBX 12 13 0 -2
BITMAP
0180
6180
6FF0
F180
6180
6FE0
6060
7660
E660
6340
63C0
EE70
0000
ENDCHAR
STARTCHAR 0x353C
ENCODING 13628
SWIDTH 886 0
DWIDTH 12 0
BBX 12 13 0 -2
BITMAP
0000
6BF0
6E60
F8C0
6FF0
68D0
6F40
74C0
EF70
6D40
6B40
F3F0
0000
ENDCHAR
STARTCHAR 0x353D
ENCODING 13629
SWIDTH 886 0
DWIDTH 12 0
BBX 12 13 0 -2
BITMAP
0300
6D00
FDF0
6D50
7D50
6D50
7CC0
6CC0
FEA0
01A0
6B30
CE30
0000
ENDCHAR
STARTCHAR 0x353E
ENCODING 13630
SWIDTH 886 0
DWIDTH 12 0
BBX 12 13 0 -2
BITMAP
0660
D6C0
D7F0
F980
D7F0
D180
37F0
3A80
F7F0
36D0
3760
36D0
0000
ENDCHAR
STARTCHAR 0x353F
ENCODING 13631
SWIDTH 886 0
DWIDTH 12 0
BBX 12 13 0 -2
BITMAP
0000
DDF0
F060
CCC0
FDF0
60D0
7D40
DB40
FF70
1B40
3540
E7F0
0000
ENDCHAR
STARTCHAR 0x3540
ENCODING 13632
SWIDTH 886 0
DWIDTH 12 0
BBX 12 13 0 -2
BITMAP
0000
6070
67C0
FAC0
1AC0
1AC0
37F0
6660
F660
6A60
66D0
6F30
0000
ENDCHAR
STARTCHAR 0x3541
ENCODING 13633
SWIDTH 886 0
DWIDTH 12 0
BBX 12 13 0 -2
BITMAP
18C0
1980
FFF0
0600
7FE0
0600
FFF0
3630
FFF0
3360
FDC0
3770
0000
ENDCHAR
STARTCHAR 0x3542
ENCODING 13634
SWIDTH 886 0
DWIDTH 12 0
BBX 12 13 0 -2
BITMAP
0360
3340
37F0
FCC0
D5F0
D4C0
D7F0
FAC0
37F0
36D0
3760
FAD0
0000
ENDCHAR
STARTCHAR 0x3543
ENCODING 13635
SWIDTH 886 0
DWIDTH 12 0
BBX 12 13 0 -2
BITMAP
0180
F180
0FF0
F430
07E0
F660
07E0
0660
F7E0
D660
D660
F7F0
0000
ENDCHAR
STARTCHAR 0x3544
ENCODING 13636
SWIDTH 886 0
DWIDTH 12 0
BBX 12 13 0 -2
BITMAP
0660
F6C0
1FF0
F180
0FF0
F180
1FF0
0D80
FFF0
D5B0
DEE0
F5B0
0000
ENDCHAR
STARTCHAR 0x3545
ENCODING 13637
SWIDTH 886 0
DWIDTH 12 0
BBX 12 13 0 -2
BITMAP
0C00
6C00
6FF0
F830
6B50
6DB0
6330
6FF0
F3B0
6D50
6B30
E0E0
0000
ENDCHAR
STARTCHAR 0x3546
ENCODING 13638
SWIDTH 886 0
DWIDTH 12 0
BBX 12 13 0 -2
BITMAP
1980
1980
FFF0
1980
3FF0
6DB0
D530
0C30
7FD0
1D30
35B0
6CE0
0000
ENDCHAR
STARTCHAR 0x3547
ENCODING 13639
SWIDTH 886 0
DWIDTH 12 0
BBX 12 13 0 -2
BITMAP
0600
6A00
FFF0
6A30
7D50
3350
FD30
D7F0
FDB0
3750
FD30
30E0
0000
ENDCHAR
STARTCHAR 0x3548
ENCODING 13640
SWIDTH 886 0
DWIDTH 12 0
BBX 12 13 0 -2
BITMAP
0600
0600
FFF0
0600
0600
7FE0
0000
0000
3FC0
30C0
30C0
3FC0
0000
ENDCHAR
STARTCHAR 0x3549
ENCODING 13641
SWIDTH 886 0
DWIDTH 12 0
BBX 12 13 0 -2
BITMAP
0600
0600
FBF0
DC00
D800
DBE0
D8C0
D980
DB00
DA30
FA30
03F0
0000
ENDCHAR
STARTCHAR 0x354A
ENCODING 13642
SWIDTH 886 0
DWIDTH 12 0
BBX 12 13 0 -2
BITMAP
0600
0600
F7F0
D6D0
D750
D6B0
D770
D180
DFF0
D180
F740
1C70
0000
ENDCHAR
STARTCHAR 0x354B
ENCODING 13643
SWIDTH 886 0
DWIDTH 12 0
BBX 12 13 0 -2
BITMAP
00C0
30C0
37F0
F8C0
30C0
37F0
7000
7000
DBF0
D630
3630
37F0
0000
ENDCHAR
STARTCHAR 0x354C
ENCODING 13644
SWIDTH 886 0
DWIDTH 12 0
BBX 12 13 0 -2
BITMAP
0000
37E0
30C0
FFF0
36B0
35A0
77F0
7550
D6F0
D5D0
3550
35D0
0000
ENDCHAR
STARTCHAR 0x354D
ENCODING 13645
SWIDTH 886 0
DWIDTH 12 0
BBX 12 13 0 -2
BITMAP
00C0
F8C0
07F0
F8C0
00C0
FBF0
0000
0000
FBF0
DB30
DB30
FBF0
0000
ENDCHAR
STARTCHAR 0x354E
ENCODING 13646
SWIDTH 886 0
DWIDTH 12 0
BBX 12 13 0 -2
BITMAP
0180
FD80
3180
31F0
3180
3180
7980
EBF0
6A30
6A30
6A30
7BF0
0000
ENDCHAR
STARTCHAR 0x354F
ENCODING 13647
SWIDTH 886 0
DWIDTH 12 0
BBX 12 13 0 -2
BITMAP
0600
3600
37F0
FCC0
34C0
30C0
70C0
77F0
D0C0
D0C0
30C0
30C0
0000
ENDCHAR
STARTCHAR 0x3550
ENCODING 13648
SWIDTH 886 0
DWIDTH 12 0
BBX 12 13 0 -2
BITMAP
0000
03E0
7E00
0600
FFF0
36C0
6D60
39C0
E670
1A80
36C0
EE70
0000
ENDCHAR
STARTCHAR 0x3551
ENCODING 13649
SWIDTH 886 0
DWIDTH 12 0
BBX 12 13 0 -2
BITMAP
3000
33F0
FD30
3330
3330
3330
FF30
6330
6330
CD30
FD70
0D00
0000
ENDCHAR
STARTCHAR 0x3552
ENCODING 13650
SWIDTH 886 0
DWIDTH 12 0
BBX 12 13 0 -2
BITMAP
0600
0600
FFF0
D8D0
D5B0
6700
1DC0
F070
3FC0
30C0
30C0
3FC0
0000
ENDCHAR
STARTCHAR 0x3553
ENCODING 13651
SWIDTH 886 0
DWIDTH 12 0
BBX 12 13 0 -2
BITMAP
0600
F6F0
D6D0
DFD0
F6D0
D6D0
DFD0
F6D0
D4D0
D570
D740
D0C0
0000
ENDCHAR
STARTCHAR 0x3554
ENCODING 13652
SWIDTH 886 0
DWIDTH 12 0
BBX 12 13 0 -2
BITMAP
0600
07E0
0600
7FF0
6630
6FC0
6630
6FF0
6800
DFF0
D800
1FF0
0000
ENDCHAR
STARTCHAR 0x3555
ENCODING 13653
SWIDTH 886 0
DWIDTH 12 0
BBX 12 13 0 -2
BITMAP
0660
0360
C0C0
6FF0
0180
0DB0
F5B0
37F0
3180
3180
6800
CFF0
0000
ENDCHAR
STARTCHAR 0x3556
ENCODING 13654
SWIDTH 886 0
DWIDTH 12 0
BBX 12 13 0 -2
BITMAP
0000
01C0
3F00
3000
3000
3FE0
3180
3180
3180
3180
3180
FFF0
0000
ENDCHAR
STARTCHAR 0x3557
ENCODING 13655
SWIDTH 886 0
DWIDTH 12 0
BBX 12 13 0 -2
BITMAP
1800
1800
1FC0
18C0
30C0
3180
0180
0300
0680
0CC0
3860
E030
0000
ENDCHAR
STARTCHAR 0x3558
ENCODING 13656
SWIDTH 886 0
DWIDTH 12 0
BBX 12 13 0 -2
BITMAP
0300
3300
3300
6FE0
6360
E360
6360
6360
6660
6660
6C30
7830
0000
ENDCHAR
STARTCHAR 0x3559
ENCODING 13657
SWIDTH 886 0
DWIDTH 12 0
BBX 12 13 0 -2
BITMAP
0180
3180
3180
6FF0
6180
E180
6380
66C0
6DA0
69B0
6180
6180
0000
ENDCHAR
STARTCHAR 0x355A
ENCODING 13658
SWIDTH 886 0
DWIDTH 12 0
BBX 12 13 0 -2
BITMAP
0000
7FC0
18C0
1980
1B00
1BE0
3060
3660
6340
61C0
0760
3C30
0000
ENDCHAR
STARTCHAR 0x355B
ENCODING 13659
SWIDTH 886 0
DWIDTH 12 0
BBX 12 13 0 -2
BITMAP
0000
1FE0
F660
D6C0
D680
D6E0
D460
D560
D9A0
D0C0
F3A0
0E30
0000
ENDCHAR
STARTCHAR 0x355C
ENCODING 13660
SWIDTH 886 0
DWIDTH 12 0
BBX 12 13 0 -2
BITMAP
0600
0600
FFF0
C030
DFB0
D9B0
1F80
0C00
3FC0
30C0
30C0
3FC0
0000
ENDCHAR
STARTCHAR 0x355D
ENCODING 13661
SWIDTH 886 0
DWIDTH 12 0
BBX 12 13 0 -2
BITMAP
0000
3FE0
0060
0060
3FE0
3000
3000
3FF0
6030
6030
0060
03C0
0000
ENDCHAR
STARTCHAR 0x355E
ENCODING 13662
SWIDTH 886 0
DWIDTH 12 0
BBX 12 13 0 -2
BITMAP
0000
1F80
3300
7FE0
0060
3FE0
0060
3FE0
0600
1B60
6830
CFC0
0000
ENDCHAR
STARTCHAR 0x355F
ENCODING 13663
SWIDTH 886 0
DWIDTH 12 0
BBX 12 13 0 -2
BITMAP
3300
3300
35F0
FD60
3060
D660
75A0
31A0
74C0
D6C0
31A0
7730
0000
ENDCHAR
STARTCHAR 0x3560
ENCODING 13664
SWIDTH 886 0
DWIDTH 12 0
BBX 12 13 0 -2
BITMAP
0000
37F0
3300
FB00
3300
33F0
7330
7630
DA30
D030
3060
33C0
0000
ENDCHAR
STARTCHAR 0x3561
ENCODING 13665
SWIDTH 886 0
DWIDTH 12 0
BBX 12 13 0 -2
BITMAP
0600
0660
0630
FFE0
0600
6660
3740
0680
0EC0
3A60
E630
0E00
0000
ENDCHAR
STARTCHAR 0x3562
ENCODING 13666
SWIDTH 886 0
DWIDTH 12 0
BBX 12 13 0 -2
BITMAP
0000
1FE0
C660
66C0
0680
C6E0
6C60
0D60
69A0
68C0
C3A0
CE30
0000
ENDCHAR
STARTCHAR 0x3563
ENCODING 13667
SWIDTH 886 0
DWIDTH 12 0
BBX 12 13 0 -2
BITMAP
0300
0300
C300
6FF0
0000
C660
6660
0660
06C0
36C0
60C0
DFF0
0000
ENDCHAR
STARTCHAR 0x3564
ENCODING 13668
SWIDTH 886 0
DWIDTH 12 0
BBX 12 13 0 -2
BITMAP
0000
1FC0
7180
0700
1DC0
F070
0600
3660
66C0
0D00
39C0
E070
0000
ENDCHAR
STARTCHAR 0x3565
ENCODING 13669
SWIDTH 886 0
DWIDTH 12 0
BBX 12 13 0 -2
BITMAP
0180
01A0
F1B0
6FE0
6180
6DB0
F6A0
6180
66C0
6DA0
F9B0
0380
0000
ENDCHAR
STARTCHAR 0x3566
ENCODING 13670
SWIDTH 886 0
DWIDTH 12 0
BBX 12 13 0 -2
BITMAP
0600
0600
FFF0
CD30
1B00
71E0
0C00
7F80
0D80
0DB0
39B0
E0F0
0000
ENDCHAR
STARTCHAR 0x3567
ENCODING 13671
SWIDTH 886 0
DWIDTH 12 0
BBX 12 13 0 -2
BITMAP
0600
0600
FFF0
CD30
7DF0
6C30
7DF0
6D00
FFF0
3530
6C30
DDE0
0000
ENDCHAR
STARTCHAR 0x3568
ENCODING 13672
SWIDTH 886 0
DWIDTH 12 0
BBX 12 13 0 -2
BITMAP
0300
6300
7DF0
D6C0
0000
FFE0
3180
33E0
6C60
66C0
C3C0
DE70
0000
ENDCHAR
STARTCHAR 0x3569
ENCODING 13673
SWIDTH 886 0
DWIDTH 12 0
BBX 12 13 0 -2
BITMAP
0000
37E0
6660
DAC0
FA80
36E0
6C60
F560
39A0
D0C0
D3A0
3630
0000
ENDCHAR
STARTCHAR 0x356A
ENCODING 13674
SWIDTH 886 0
DWIDTH 12 0
BBX 12 13 0 -2
BITMAP
0000
3060
6360
DB60
FB60
3360
6D60
FD70
33E0
D660
D060
3060
0000
ENDCHAR
STARTCHAR 0x356B
ENCODING 13675
SWIDTH 886 0
DWIDTH 12 0
BBX 12 13 0 -2
BITMAP
0000
31E0
6330
DA00
F800
33F0
6C00
FC00
33F0
D530
D530
33F0
0000
ENDCHAR
STARTCHAR 0x356C
ENCODING 13676
SWIDTH 886 0
DWIDTH 12 0
BBX 12 13 0 -2
BITMAP
0000
6FF0
6C30
6C30
6C30
6C30
6FF0
6C30
6C30
6C30
6C30
6FF0
0000
ENDCHAR
STARTCHAR 0x356D
ENCODING 13677
SWIDTH 886 0
DWIDTH 12 0
BBX 12 13 0 -2
BITMAP
0600
6600
6600
7FE0
C600
C600
0600
FFF0
0600
0600
0600
0600
0000
ENDCHAR
STARTCHAR 0x356E
ENCODING 13678
SWIDTH 886 0
DWIDTH 12 0
BBX 12 13 0 -2
BITMAP
0600
0600
7FE0
0600
0600
0600
FFF0
0C00
0CC0
18C0
33A0
3E60
0000
ENDCHAR
STARTCHAR 0x356F
ENCODING 13679
SWIDTH 886 0
DWIDTH 12 0
BBX 12 13 0 -2
BITMAP
0000
7FE0
6060
7FE0
6300
7FF0
6300
6300
6FE0
D860
D860
1FE0
0000
ENDCHAR
STARTCHAR 0x3570
ENCODING 13680
SWIDTH 886 0
DWIDTH 12 0
BBX 12 13 0 -2
BITMAP
0000
7FF0
6000
6000
7FC0
60C0
60C0
7FC0
6000
6000
6000
7FF0
0000
ENDCHAR
STARTCHAR 0x3571
ENCODING 13681
SWIDTH 886 0
DWIDTH 12 0
BBX 12 13 0 -2
BITMAP
0000
6FF0
6C00
F400
6FE0
6C60
6C60
77E0
EC00
6C00
6C00
EFF0
0000
ENDCHAR
STARTCHAR 0x3572
ENCODING 13682
SWIDTH 886 0
DWIDTH 12 0
BBX 12 13 0 -2
BITMAP
1800
69E0
6EA0
FAA0
6AA0
6AA0
6AA0
7560
ED60
6C70
6A00
F3F0
0000
ENDCHAR
STARTCHAR 0x3573
ENCODING 13683
SWIDTH 886 0
DWIDTH 12 0
BBX 12 13 0 -2
BITMAP
0C60
36C0
1980
FFF0
30C0
6FA0
C630
3FC0
0600
FFF0
0600
1E00
0000
ENDCHAR
STARTCHAR 0x3574
ENCODING 13684
SWIDTH 886 0
DWIDTH 12 0
BBX 12 13 0 -2
BITMAP
0000
67F0
3600
C7E0
6660
1BE0
3600
FFF0
0E80
3AC0
E670
0600
0000
ENDCHAR
STARTCHAR 0x3575
ENCODING 13685
SWIDTH 886 0
DWIDTH 12 0
BBX 12 13 0 -2
BITMAP
0600
07E0
0600
7FF0
6C30
6FE0
6C00
6FE0
76B0
DAA0
C680
3FF0
0000
ENDCHAR
STARTCHAR 0x3576
ENCODING 13686
SWIDTH 886 0
DWIDTH 12 0
BBX 12 13 0 -2
BITMAP
0300
FB00
03F0
FAC0
06C0
F8C0
00C0
07F0
F8C0
D8C0
D8C0
F8C0
0000
ENDCHAR
STARTCHAR 0x3577
ENCODING 13687
SWIDTH 886 0
DWIDTH 12 0
BBX 12 13 0 -2
BITMAP
0000
FDF0
CD00
CD00
FDF0
3330
3330
DDF0
D300
D300
D300
FDF0
0000
ENDCHAR
STARTCHAR 0x3578
ENCODING 13688
SWIDTH 886 0
DWIDTH 12 0
BBX 12 13 0 -2
BITMAP
0000
3BF0
6E30
C7F0
FAC0
37F0
FEC0
36C0
D5F0
D530
3330
FDF0
0000
ENDCHAR
STARTCHAR 0x3579
ENCODING 13689
SWIDTH 886 0
DWIDTH 12 0
BBX 12 13 0 -2
BITMAP
0000
07E0
CCC0
6FF0
0DB0
CFF0
6DB0
0DB0
6FF0
6000
CD50
DB50
0000
ENDCHAR
STARTCHAR 0x357A
ENCODING 13690
SWIDTH 886 0
DWIDTH 12 0
BBX 12 13 0 -2
BITMAP
1800
6FF0
DAD0
3FD0
66D0
EAF0
6FC0
0000
FFF0
0600
6660
CE30
0000
ENDCHAR
STARTCHAR 0x357B
ENCODING 13691
SWIDTH 886 0
DWIDTH 12 0
BBX 12 13 0 -2
BITMAP
0000
1FC0
3180
7FE0
E660
7FE0
6660
6660
7FE0
0000
6B60
CDB0
0000
ENDCHAR
STARTCHAR 0x357C
ENCODING 13692
SWIDTH 886 0
DWIDTH 12 0
BBX 12 13 0 -2
BITMAP
0600
0600
FFF0
1980
1980
1F80
0000
FFF0
0300
0600
0600
1E00
0000
ENDCHAR
STARTCHAR 0x357D
ENCODING 13693
SWIDTH 886 0
DWIDTH 12 0
BBX 12 13 0 -2
BITMAP
0600
0600
FFF0
1980
1980
3FC0
0180
0300
FFF0
0600
0600
1E00
0000
ENDCHAR
STARTCHAR 0x357E
ENCODING 13694
SWIDTH 886 0
DWIDTH 12 0
BBX 12 13 0 -2
BITMAP
0600
0600
FFF0
0000
3FC0
30C0
30C0
3FC0
0600
6660
C630
1E00
0000
ENDCHAR
STARTCHAR 0x3621
ENCODING 13857
SWIDTH 886 0
DWIDTH 12 0
BBX 12 13 0 -2
BITMAP
06C0
36C0
36C0
6FF0
66C0
E6C0
66C0
6FF0
6000
66C0
6C60
6830
0000
ENDCHAR
STARTCHAR 0x3622
ENCODING 13858
SWIDTH 886 0
DWIDTH 12 0
BBX 12 13 0 -2
BITMAP
0180
3180
37F0
6180
6DB0
E6A0
6180
6FF0
6180
6340
6660
6C30
0000
ENDCHAR
STARTCHAR 0x3623
ENCODING 13859
SWIDTH 886 0
DWIDTH 12 0
BBX 12 13 0 -2
BITMAP
0000
37F0
3300
6FF0
66C0
EEE0
6BD0
7000
6FF0
6AD0
6BD0
6870
0000
ENDCHAR
STARTCHAR 0x3624
ENCODING 13860
SWIDTH 886 0
DWIDTH 12 0
BBX 12 13 0 -2
BITMAP
0000
69A0
6D60
6660
6D60
69A0
6060
7FE0
1B00
1B30
3330
E1F0
0000
ENDCHAR
STARTCHAR 0x3625
ENCODING 13861
SWIDTH 886 0
DWIDTH 12 0
BBX 12 13 0 -2
BITMAP
30C0
30C0
FDF0
69A0
FFF0
0000
FDF0
CD30
FDF0
69A0
DB60
DE70
0000
ENDCHAR
STARTCHAR 0x3626
ENCODING 13862
SWIDTH 886 0
DWIDTH 12 0
BBX 12 13 0 -2
BITMAP
1980
1980
1980
7FE0
1980
1980
1980
FFF0
0000
1980
30C0
6060
0000
ENDCHAR
STARTCHAR 0x3627
ENCODING 13863
SWIDTH 886 0
DWIDTH 12 0
BBX 12 13 0 -2
BITMAP
0000
C030
D0D0
D9B0
CD30
C630
CD30
D9B0
D0D0
C030
C030
FFF0
0000
ENDCHAR
STARTCHAR 0x3628
ENCODING 13864
SWIDTH 886 0
DWIDTH 12 0
BBX 12 13 0 -2
BITMAP
0300
6300
6FE0
6360
FB60
6660
6FF0
6D50
6D50
6D50
6BB0
6B70
0000
ENDCHAR
STARTCHAR 0x3629
ENCODING 13865
SWIDTH 886 0
DWIDTH 12 0
BBX 12 13 0 -2
BITMAP
0000
FFF0
C000
DFF0
C300
C300
DFE0
C300
C300
DFF0
C000
FFF0
0000
ENDCHAR
STARTCHAR 0x362A
ENCODING 13866
SWIDTH 886 0
DWIDTH 12 0
BBX 12 13 0 -2
BITMAP
0000
3F70
ED50
CF50
D550
D550
D750
D4D0
F550
3570
6F40
6340
0000
ENDCHAR
STARTCHAR 0x362B
ENCODING 13867
SWIDTH 886 0
DWIDTH 12 0
BBX 12 13 0 -2
BITMAP
0000
0060
FB60
DB60
DB60
DB60
DB60
DB70
DBE0
DE60
F860
0060
0000
ENDCHAR
STARTCHAR 0x362C
ENCODING 13868
SWIDTH 886 0
DWIDTH 12 0
BBX 12 13 0 -2
BITMAP
0000
7FE0
0600
FFF0
19C0
39A0
EFB0
0000
7FE0
69A0
6FA0
60E0
0000
ENDCHAR
STARTCHAR 0x362D
ENCODING 13869
SWIDTH 886 0
DWIDTH 12 0
BBX 12 13 0 -2
BITMAP
0300
6300
6FF0
66C0
F6C0
6FF0
6C60
6FE0
6C60
6FE0
F6C0
1CF0
0000
ENDCHAR
STARTCHAR 0x362E
ENCODING 13870
SWIDTH 886 0
DWIDTH 12 0
BBX 12 13 0 -2
BITMAP
0180
3180
3FF0
3180
D5B0
D6A0
D180
DFF0
D180
D340
F660
1C30
0000
ENDCHAR
STARTCHAR 0x362F
ENCODING 13871
SWIDTH 886 0
DWIDTH 12 0
BBX 12 13 0 -2
BITMAP
0300
F600
3430
37F0
F180
CFF0
CDB0
F5B0
37F0
3180
31B0
EFF0
0000
ENDCHAR
STARTCHAR 0x3630
ENCODING 13872
SWIDTH 886 0
DWIDTH 12 0
BBX 12 13 0 -2
BITMAP
0000
F7F0
36B0
37F0
F6B0
C7F0
C000
F7F0
36B0
37F0
36B0
EFF0
0000
ENDCHAR
STARTCHAR 0x3631
ENCODING 13873
SWIDTH 886 0
DWIDTH 12 0
BBX 12 13 0 -2
BITMAP
0180
3180
37F0
3180
D180
D180
D7F0
D300
D360
3660
34D0
37B0
0000
ENDCHAR
STARTCHAR 0x3632
ENCODING 13874
SWIDTH 886 0
DWIDTH 12 0
BBX 12 13 0 -2
BITMAP
0000
FBE0
3660
3760
36A0
3A60
E070
0600
1B00
1860
6830
CFC0
0000
ENDCHAR
STARTCHAR 0x3633
ENCODING 13875
SWIDTH 886 0
DWIDTH 12 0
BBX 12 13 0 -2
BITMAP
1980
1980
7FE0
1980
1980
FFF0
30C0
6660
DA30
36A0
66A0
0E00
0000
ENDCHAR
STARTCHAR 0x3634
ENCODING 13876
SWIDTH 886 0
DWIDTH 12 0
BBX 12 13 0 -2
BITMAP
0180
6180
6FF0
F180
6DB0
66A0
6180
77F0
E180
6340
6660
EC30
0000
ENDCHAR
STARTCHAR 0x3635
ENCODING 13877
SWIDTH 886 0
DWIDTH 12 0
BBX 12 13 0 -2
BITMAP
3180
3680
FEF0
3560
3560
FE60
61A0
DDA0
0CC0
FEC0
19A0
3B30
0000
ENDCHAR
STARTCHAR 0x3636
ENCODING 13878
SWIDTH 886 0
DWIDTH 12 0
BBX 12 13 0 -2
BITMAP
0000
37F0
3180
FFF0
36C0
36E0
7BD0
7000
D7F0
D550
35D0
3470
0000
ENDCHAR
STARTCHAR 0x3637
ENCODING 13879
SWIDTH 886 0
DWIDTH 12 0
BBX 12 13 0 -2
BITMAP
0000
0FF0
CC30
6C30
0C30
CFF0
6340
0340
6340
6350
C6D0
DCF0
0000
ENDCHAR
STARTCHAR 0x3638
ENCODING 13880
SWIDTH 886 0
DWIDTH 12 0
BBX 12 13 0 -2
BITMAP
0000
37F0
D180
6180
6180
D180
37F0
7180
D180
3180
3180
EFF0
0000
ENDCHAR
STARTCHAR 0x3639
ENCODING 13881
SWIDTH 886 0
DWIDTH 12 0
BBX 12 13 0 -2
BITMAP
0180
3180
D7F0
6180
6DB0
D6A0
3180
77F0
D180
3340
3660
EC30
0000
ENDCHAR
STARTCHAR 0x363A
ENCODING 13882
SWIDTH 886 0
DWIDTH 12 0
BBX 12 13 0 -2
BITMAP
0000
CFF0
F980
D7F0
36C0
F6E0
3BD0
3000
6FF0
6AD0
DBD0
D870
0000
ENDCHAR
STARTCHAR 0x363B
ENCODING 13883
SWIDTH 886 0
DWIDTH 12 0
BBX 12 13 0 -2
BITMAP
0C00
F400
D7F0
D9B0
F530
D6D0
D550
F9D0
D0D0
DFD0
D030
D0E0
0000
ENDCHAR
STARTCHAR 0x363C
ENCODING 13884
SWIDTH 886 0
DWIDTH 12 0
BBX 12 13 0 -2
BITMAP
0600
3FC0
0CC0
18C0
FDF0
35B0
6D70
DFE0
3060
3FE0
3060
30E0
0000
ENDCHAR
STARTCHAR 0x363D
ENCODING 13885
SWIDTH 886 0
DWIDTH 12 0
BBX 12 13 0 -2
BITMAP
0000
EFB0
D9B0
FFF0
D9B0
FBF0
DAB0
DAB0
FFF0
0000
6060
C030
0000
ENDCHAR
STARTCHAR 0x363E
ENCODING 13886
SWIDTH 886 0
DWIDTH 12 0
BBX 12 13 0 -2
BITMAP
1980
1980
FFF0
0600
FFF0
1980
3FA0
E030
7FE0
69A0
6FA0
60E0
0000
ENDCHAR
STARTCHAR 0x363F
ENCODING 13887
SWIDTH 886 0
DWIDTH 12 0
BBX 12 13 0 -2
BITMAP
0000
3770
6D50
CF50
F550
3560
6F50
CCD0
F550
3560
6F40
6340
0000
ENDCHAR
STARTCHAR 0x3640
ENCODING 13888
SWIDTH 886 0
DWIDTH 12 0
BBX 12 13 0 -2
BITMAP
0180
3980
6FF0
C360
FB60
37F0
FE60
37E0
DA60
D7E0
3340
FEF0
0000
ENDCHAR
STARTCHAR 0x3641
ENCODING 13889
SWIDTH 886 0
DWIDTH 12 0
BBX 12 13 0 -2
BITMAP
0000
6F70
D550
6F60
D550
F6F0
36C0
7FE0
1980
FFF0
30C0
3FC0
0000
ENDCHAR
STARTCHAR 0x3642
ENCODING 13890
SWIDTH 886 0
DWIDTH 12 0
BBX 12 13 0 -2
BITMAP
0000
6F70
D550
6F60
D550
F6F0
36C0
7FE0
D0D0
3FC0
3360
FDF0
0000
ENDCHAR
STARTCHAR 0x3643
ENCODING 13891
SWIDTH 886 0
DWIDTH 12 0
BBX 12 13 0 -2
BITMAP
0300
6B00
FFF0
6AA0
7AC0
0D70
7FE0
6600
7FF0
0030
6AB0
DAB0
0000
ENDCHAR
STARTCHAR 0x3644
ENCODING 13892
SWIDTH 886 0
DWIDTH 12 0
BBX 12 13 0 -2
BITMAP
0000
3380
36F0
6DB0
6DB0
EDB0
6DB0
6DB0
6DB0
6DB0
6EB0
6180
0000
ENDCHAR
STARTCHAR 0x3645
ENCODING 13893
SWIDTH 886 0
DWIDTH 12 0
BBX 12 13 0 -2
BITMAP
0000
1BF0
DE60
68C0
0FF0
18D0
1F40
0CC0
6F70
6D40
DB40
D3F0
0000
ENDCHAR
STARTCHAR 0x3646
ENCODING 13894
SWIDTH 886 0
DWIDTH 12 0
BBX 12 13 0 -2
BITMAP
0600
0600
7FE0
0600
1A80
FFF0
1980
1980
7FE0
0D00
3B30
E1F0
0000
ENDCHAR
STARTCHAR 0x3647
ENCODING 13895
SWIDTH 886 0
DWIDTH 12 0
BBX 12 13 0 -2
BITMAP
0180
0180
F7F0
D180
D6A0
DFF0
F660
D660
D7F0
D340
F6D0
1CF0
0000
ENDCHAR
STARTCHAR 0x3648
ENCODING 13896
SWIDTH 886 0
DWIDTH 12 0
BBX 12 13 0 -2
BITMAP
0D00
3560
3540
FFF0
1980
1980
7FE0
0600
FFF0
0E80
3AC0
E670
0000
ENDCHAR
STARTCHAR 0x3649
ENCODING 13897
SWIDTH 886 0
DWIDTH 12 0
BBX 12 13 0 -2
BITMAP
0000
7FE0
6060
7FE0
6000
7FF0
6030
6FB0
69B0
69B0
DFB0
C0E0
0000
ENDCHAR
STARTCHAR 0x364A
ENCODING 13898
SWIDTH 886 0
DWIDTH 12 0
BBX 12 13 0 -2
BITMAP
0D80
0D80
0D80
7FF0
6DB0
6DB0
6DB0
7FF0
6DB0
6DB0
6DB0
7FF0
0000
ENDCHAR
STARTCHAR 0x364B
ENCODING 13899
SWIDTH 886 0
DWIDTH 12 0
BBX 12 13 0 -2
BITMAP
0000
37F0
3600
FB70
3330
3750
7550
7560
D760
D3B0
3600
37F0
0000
ENDCHAR
STARTCHAR 0x364C
ENCODING 13900
SWIDTH 886 0
DWIDTH 12 0
BBX 12 13 0 -2
BITMAP
0000
FFF0
0600
0600
0600
0600
7FE0
0600
0660
0630
0600
FFF0
0000
ENDCHAR
STARTCHAR 0x364D
ENCODING 13901
SWIDTH 886 0
DWIDTH 12 0
BBX 12 13 0 -2
BITMAP
0000
37F0
3430
FC30
35D0
3430
75D0
7550
D550
D5D0
3430
3470
0000
ENDCHAR
STARTCHAR 0x364E
ENCODING 13902
SWIDTH 886 0
DWIDTH 12 0
BBX 12 13 0 -2
BITMAP
0000
30E0
D780
D180
3180
F980
37F0
7180
7980
D180
D180
3180
0000
ENDCHAR
STARTCHAR 0x364F
ENCODING 13903
SWIDTH 886 0
DWIDTH 12 0
BBX 12 13 0 -2
BITMAP
06C0
36C0
3FF0
66C0
6FF0
EDB0
6DB0
6FF0
6180
6FF0
6180
6FF0
0000
ENDCHAR
STARTCHAR 0x3650
ENCODING 13904
SWIDTH 886 0
DWIDTH 12 0
BBX 12 13 0 -2
BITMAP
0180
6980
FD80
6BF0
FDB0
D5B0
D5B0
FDB0
3330
FD30
3060
FDC0
0000
ENDCHAR
STARTCHAR 0x3651
ENCODING 13905
SWIDTH 886 0
DWIDTH 12 0
BBX 12 13 0 -2
BITMAP
0600
6600
67F0
6C30
F430
67B0
6030
61D0
6F30
6030
F060
01C0
0000
ENDCHAR
STARTCHAR 0x3652
ENCODING 13906
SWIDTH 886 0
DWIDTH 12 0
BBX 12 13 0 -2
BITMAP
0600
0600
0600
FFF0
C630
C630
C630
C630
C630
C6F0
0600
0600
0000
ENDCHAR
STARTCHAR 0x3653
ENCODING 13907
SWIDTH 886 0
DWIDTH 12 0
BBX 12 13 0 -2
BITMAP
00C0
3980
67F0
C630
FBF0
3630
FBF0
3180
DBF0
D6B0
36B0
FEB0
0000
ENDCHAR
STARTCHAR 0x3654
ENCODING 13908
SWIDTH 886 0
DWIDTH 12 0
BBX 12 13 0 -2
BITMAP
0000
01E0
7F00
6000
6000
7FF0
6180
6180
6180
C180
C180
0180
0000
ENDCHAR
STARTCHAR 0x3655
ENCODING 13909
SWIDTH 886 0
DWIDTH 12 0
BBX 12 13 0 -2
BITMAP
0300
1D00
73F0
6350
6350
7F50
6CC0
6CC0
6DA0
CDA0
CD30
0E30
0000
ENDCHAR
STARTCHAR 0x3656
ENCODING 13910
SWIDTH 886 0
DWIDTH 12 0
BBX 12 13 0 -2
BITMAP
0300
3B00
6DF0
C350
FD50
3350
FCC0
30C0
D5A0
D5A0
3330
FE30
0000
ENDCHAR
STARTCHAR 0x3657
ENCODING 13911
SWIDTH 886 0
DWIDTH 12 0
BBX 12 13 0 -2
BITMAP
0000
FDF0
30C0
7DE0
30C0
FFF0
1980
3740
6070
DFC0
00C0
0180
0000
ENDCHAR
STARTCHAR 0x3658
ENCODING 13912
SWIDTH 886 0
DWIDTH 12 0
BBX 12 13 0 -2
BITMAP
30C0
30C0
FDF0
31C0
7B60
D6D0
3FC0
0000
FFF0
0600
6660
CE30
0000
ENDCHAR
STARTCHAR 0x3659
ENCODING 13913
SWIDTH 886 0
DWIDTH 12 0
BBX 12 13 0 -2
BITMAP
0000
1F80
36C0
7FE0
CD30
36C0
3540
34C0
FFF0
CDB0
DFB0
C070
0000
ENDCHAR
STARTCHAR 0x365A
ENCODING 13914
SWIDTH 886 0
DWIDTH 12 0
BBX 12 13 0 -2
BITMAP
0300
6300
7DF0
D680
7D80
6FF0
7DB0
6DB0
7DB0
6D30
CD30
DCE0
0000
ENDCHAR
STARTCHAR 0x365B
ENCODING 13915
SWIDTH 886 0
DWIDTH 12 0
BBX 12 13 0 -2
BITMAP
0000
FDF0
D030
FDA0
CDC0
FF70
CD80
1B60
FFF0
0600
36C0
E670
0000
ENDCHAR
STARTCHAR 0x365C
ENCODING 13916
SWIDTH 886 0
DWIDTH 12 0
BBX 12 13 0 -2
BITMAP
1980
1980
FFF0
1980
03E0
7E00
6000
7FF0
6180
C180
C180
0180
0000
ENDCHAR
STARTCHAR 0x365D
ENCODING 13917
SWIDTH 886 0
DWIDTH 12 0
BBX 12 13 0 -2
BITMAP
1980
1980
FFF0
1980
FFF0
C630
DFD0
C630
CEB0
DAD0
C630
FFF0
0000
ENDCHAR
STARTCHAR 0x365E
ENCODING 13918
SWIDTH 886 0
DWIDTH 12 0
BBX 12 13 0 -2
BITMAP
0000
33E0
3630
FC00
1BF0
1800
3000
77F0
D830
3430
3060
31C0
0000
ENDCHAR
STARTCHAR 0x365F
ENCODING 13919
SWIDTH 886 0
DWIDTH 12 0
BBX 12 13 0 -2
BITMAP
0660
6660
6FF0
F6E0
36B0
3660
6FE0
7000
EFF0
6180
6DA0
6BB0
0000
ENDCHAR
STARTCHAR 0x3660
ENCODING 13920
SWIDTH 886 0
DWIDTH 12 0
BBX 12 13 0 -2
BITMAP
0360
F360
0FF0
F360
0FF0
F5B0
0DB0
0FF0
F180
D7F0
D180
F7F0
0000
ENDCHAR
STARTCHAR 0x3661
ENCODING 13921
SWIDTH 886 0
DWIDTH 12 0
BBX 12 13 0 -2
BITMAP
0000
00E0
6780
3600
0600
07F0
F6C0
34C0
34C0
30C0
6800
CFF0
0000
ENDCHAR
STARTCHAR 0x3662
ENCODING 13922
SWIDTH 886 0
DWIDTH 12 0
BBX 12 13 0 -2
BITMAP
0000
0F00
1980
30C0
6FA0
C630
0600
7FE0
0600
6660
36C0
FFF0
0000
ENDCHAR
STARTCHAR 0x3663
ENCODING 13923
SWIDTH 886 0
DWIDTH 12 0
BBX 12 13 0 -2
BITMAP
0000
03E0
FA30
DC00
DBF0
D800
D800
DBF0
D830
D830
F860
01C0
0000
ENDCHAR
STARTCHAR 0x3664
ENCODING 13924
SWIDTH 886 0
DWIDTH 12 0
BBX 12 13 0 -2
BITMAP
0000
3BF0
6D30
C3F0
FD30
3330
FDF0
3340
D550
D550
3360
FDB0
0000
ENDCHAR
STARTCHAR 0x3665
ENCODING 13925
SWIDTH 886 0
DWIDTH 12 0
BBX 12 13 0 -2
BITMAP
0C00
0C00
0C00
FF80
0D80
0D80
0D80
0D80
1980
19B0
31B0
E0F0
0000
ENDCHAR
STARTCHAR 0x3666
ENCODING 13926
SWIDTH 886 0
DWIDTH 12 0
BBX 12 13 0 -2
BITMAP
0000
37E0
3460
6FE0
6C60
EFE0
6C60
6C60
6FF0
6000
6C60
6830
0000
ENDCHAR
STARTCHAR 0x3667
ENCODING 13927
SWIDTH 886 0
DWIDTH 12 0
BBX 12 13 0 -2
BITMAP
3000
3000
3FF0
6030
6030
DF30
DB30
1B30
1B30
1F30
0060
01C0
0000
ENDCHAR
STARTCHAR 0x3668
ENCODING 13928
SWIDTH 886 0
DWIDTH 12 0
BBX 12 13 0 -2
BITMAP
0000
FFF0
C000
D860
CCC0
C680
C300
C680
CCC0
D860
C000
FFF0
0000
ENDCHAR
STARTCHAR 0x3669
ENCODING 13929
SWIDTH 886 0
DWIDTH 12 0
BBX 12 13 0 -2
BITMAP
0600
3600
D7F0
6C30
6C30
D7B0
36B0
76B0
D7B0
3030
3060
E1C0
0000
ENDCHAR
STARTCHAR 0x366A
ENCODING 13930
SWIDTH 886 0
DWIDTH 12 0
BBX 12 13 0 -2
BITMAP
0600
0600
FBE0
6660
6660
F460
6CC0
60C0
6180
F340
0E60
3830
0000
ENDCHAR
STARTCHAR 0x366B
ENCODING 13931
SWIDTH 886 0
DWIDTH 12 0
BBX 12 13 0 -2
BITMAP
0000
C7F0
FE00
D600
37F0
FE30
3630
37F0
6A00
6E00
C600
C7F0
0000
ENDCHAR
STARTCHAR 0x366C
ENCODING 13932
SWIDTH 886 0
DWIDTH 12 0
BBX 12 13 0 -2
BITMAP
1980
1980
FFF0
1980
0600
FFF0
0600
0600
7FE0
6060
6060
7FE0
0000
ENDCHAR
STARTCHAR 0x366D
ENCODING 13933
SWIDTH 886 0
DWIDTH 12 0
BBX 12 13 0 -2
BITMAP
3000
63F0
FD00
CD50
FD50
CD60
FD60
CF50
FD50
35B0
6D00
DDF0
0000
ENDCHAR
STARTCHAR 0x366E
ENCODING 13934
SWIDTH 886 0
DWIDTH 12 0
BBX 12 13 0 -2
BITMAP
0000
FDF0
D300
FD50
D350
FD60
D360
FD50
0D50
D5B0
0D00
3BF0
0000
ENDCHAR
STARTCHAR 0x366F
ENCODING 13935
SWIDTH 886 0
DWIDTH 12 0
BBX 12 13 0 -2
BITMAP
0000
FCE0
D380
FD00
D300
FDF0
D360
FD60
0D60
D560
0D60
3BF0
0000
ENDCHAR
STARTCHAR 0x3670
ENCODING 13936
SWIDTH 886 0
DWIDTH 12 0
BBX 12 13 0 -2
BITMAP
0300
FD00
D3F0
FA30
D630
FBD0
D350
FD50
0DD0
D430
0C60
39C0
0000
ENDCHAR
STARTCHAR 0x3671
ENCODING 13937
SWIDTH 886 0
DWIDTH 12 0
BBX 12 13 0 -2
BITMAP
0000
3FC0
30C0
3FC0
30C0
3FC0
30C0
30C0
FFF0
0000
39C0
E070
0000
ENDCHAR
STARTCHAR 0x3672
ENCODING 13938
SWIDTH 886 0
DWIDTH 12 0
BBX 12 13 0 -2
BITMAP
0000
3FC0
36C0
3FC0
36C0
FFF0
C630
DFB0
0600
1B60
6830
CFC0
0000
ENDCHAR
STARTCHAR 0x3673
ENCODING 13939
SWIDTH 886 0
DWIDTH 12 0
BBX 12 13 0 -2
BITMAP
07C0
0600
7FF0
6630
6FE0
66C0
6AC0
6FF0
6030
DFF0
CCC0
3870
0000
ENDCHAR
STARTCHAR 0x3674
ENCODING 13940
SWIDTH 886 0
DWIDTH 12 0
BBX 12 13 0 -2
BITMAP
0000
07C0
F460
D9B0
D7E0
D460
D7E0
D460
D7E0
D5B0
F4C0
0F70
0000
ENDCHAR
STARTCHAR 0x3675
ENCODING 13941
SWIDTH 886 0
DWIDTH 12 0
BBX 12 13 0 -2
BITMAP
0600
0600
FFF0
CD30
CD30
1B00
73E0
0000
3FC0
0600
0600
FFF0
0000
ENDCHAR
STARTCHAR 0x3676
ENCODING 13942
SWIDTH 886 0
DWIDTH 12 0
BBX 12 13 0 -2
BITMAP
0000
37F0
35B0
6FF0
6DB0
EFF0
6180
6FF0
6D30
6D50
6FD0
6C70
0000
ENDCHAR
STARTCHAR 0x3677
ENCODING 13943
SWIDTH 886 0
DWIDTH 12 0
BBX 12 13 0 -2
BITMAP
0600
0600
FFF0
D6D0
3FC0
36C0
3FC0
0600
FFF0
C6D0
DFD0
C070
0000
ENDCHAR
STARTCHAR 0x3678
ENCODING 13944
SWIDTH 886 0
DWIDTH 12 0
BBX 12 13 0 -2
BITMAP
0000
0FF0
6DB0
37F0
0DB0
0FF0
F180
37F0
35B0
35D0
6800
CFF0
0000
ENDCHAR
STARTCHAR 0x3679
ENCODING 13945
SWIDTH 886 0
DWIDTH 12 0
BBX 12 13 0 -2
BITMAP
0000
F7F0
D5B0
D7F0
EDB0
D7F0
D180
D7F0
D530
ED50
CFD0
CC70
0000
ENDCHAR
STARTCHAR 0x367A
ENCODING 13946
SWIDTH 886 0
DWIDTH 12 0
BBX 12 13 0 -2
BITMAP
0600
0600
7FE0
6660
6660
7FE0
0600
FFF0
C630
FFF0
0600
0600
0000
ENDCHAR
STARTCHAR 0x367B
ENCODING 13947
SWIDTH 886 0
DWIDTH 12 0
BBX 12 13 0 -2
BITMAP
0180
3580
37F0
FAA0
3770
3550
7750
7550
D750
D4D0
3570
3740
0000
ENDCHAR
STARTCHAR 0x367C
ENCODING 13948
SWIDTH 886 0
DWIDTH 12 0
BBX 12 13 0 -2
BITMAP
0000
3B30
6D50
C350
FD50
3350
FD50
3350
DB50
D350
3630
FA30
0000
ENDCHAR
STARTCHAR 0x367D
ENCODING 13949
SWIDTH 886 0
DWIDTH 12 0
BBX 12 13 0 -2
BITMAP
0000
7FF0
6030
7FF0
6B60
6D40
6FF0
6830
6FF0
D830
DFF0
1830
0000
ENDCHAR
STARTCHAR 0x367E
ENCODING 13950
SWIDTH 886 0
DWIDTH 12 0
BBX 12 13 0 -2
BITMAP
0000
7FF0
6030
7FF0
6180
6DB0
6DB0
6FF0
6180
D9B0
D9B0
1FF0
0000
ENDCHAR
STARTCHAR 0x3721
ENCODING 14113
SWIDTH 886 0
DWIDTH 12 0
BBX 12 13 0 -2
BITMAP
0000
6FF0
6C30
F7F0
6CC0
6D50
6D50
75F0
ECC0
6AD0
6AD0
E7F0
0000
ENDCHAR
STARTCHAR 0x3722
ENCODING 14114
SWIDTH 886 0
DWIDTH 12 0
BBX 12 13 0 -2
BITMAP
0600
0600
FFF0
CD30
1B00
7FF0
6030
7FF0
6B60
DFE0
D330
3FF0
0000
ENDCHAR
STARTCHAR 0x3723
ENCODING 14115
SWIDTH 886 0
DWIDTH 12 0
BBX 12 13 0 -2
BITMAP
0600
0600
FB30
1AA0
36C0
EE70
0000
7FE0
6060
7FE0
6060
7FE0
0000
ENDCHAR
STARTCHAR 0x3724
ENCODING 14116
SWIDTH 886 0
DWIDTH 12 0
BBX 12 13 0 -2
BITMAP
00C0
6B40
FD40
6B40
7B50
3360
FD40
D540
FD40
3350
FD50
3370
0000
ENDCHAR
STARTCHAR 0x3725
ENCODING 14117
SWIDTH 886 0
DWIDTH 12 0
BBX 12 13 0 -2
BITMAP
0600
6660
DFD0
6AA0
FFF0
6AA0
FFF0
6660
3FC0
30C0
30C0
3FC0
0000
ENDCHAR
STARTCHAR 0x3726
ENCODING 14118
SWIDTH 886 0
DWIDTH 12 0
BBX 12 13 0 -2
BITMAP
0600
0600
FFF0
CD30
1B00
31E0
D980
6FF0
0180
37E0
6180
DFF0
0000
ENDCHAR
STARTCHAR 0x3727
ENCODING 14119
SWIDTH 886 0
DWIDTH 12 0
BBX 12 13 0 -2
BITMAP
3300
6370
CDC0
FD30
CDF0
FD00
CDF0
FD00
CDF0
0000
6B60
CDB0
0000
ENDCHAR
STARTCHAR 0x3728
ENCODING 14120
SWIDTH 886 0
DWIDTH 12 0
BBX 12 13 0 -2
BITMAP
0000
F7F0
D5B0
D7F0
EDB0
D7F0
D000
DFF0
D5B0
EDA0
CCC0
DF70
0000
ENDCHAR
STARTCHAR 0x3729
ENCODING 14121
SWIDTH 886 0
DWIDTH 12 0
BBX 12 13 0 -2
BITMAP
0000
1FC0
7180
0700
1D80
F6F0
36C0
0680
FFF0
0E80
3AC0
E670
0000
ENDCHAR
STARTCHAR 0x372A
ENCODING 14122
SWIDTH 886 0
DWIDTH 12 0
BBX 12 13 0 -2
BITMAP
0000
FFF0
0D00
7FE0
6D60
6D60
7FE0
0600
FFF0
0E80
3AC0
E670
0000
ENDCHAR
STARTCHAR 0x372B
ENCODING 14123
SWIDTH 886 0
DWIDTH 12 0
BBX 12 13 0 -2
BITMAP
0000
37E0
6660
CFF0
F550
3550
6F70
F980
37F0
D380
D6A0
35B0
0000
ENDCHAR
STARTCHAR 0x372C
ENCODING 14124
SWIDTH 886 0
DWIDTH 12 0
BBX 12 13 0 -2
BITMAP
0000
7FC0
18C0
1980
0F00
FDF0
6DB0
69A0
FFF0
0E80
3AC0
E670
0000
ENDCHAR
STARTCHAR 0x372D
ENCODING 14125
SWIDTH 886 0
DWIDTH 12 0
BBX 12 13 0 -2
BITMAP
00C0
3BC0
6EC0
C6D0
FAD0
37D0
FAC0
36E0
D6A0
DAA0
3730
FA30
0000
ENDCHAR
STARTCHAR 0x372E
ENCODING 14126
SWIDTH 886 0
DWIDTH 12 0
BBX 12 13 0 -2
BITMAP
0180
FD80
37F0
FDB0
D5B0
FDB0
D530
FD30
30E0
FC00
0360
D9B0
0000
ENDCHAR
STARTCHAR 0x372F
ENCODING 14127
SWIDTH 886 0
DWIDTH 12 0
BBX 12 13 0 -2
BITMAP
0000
3FE0
0660
FFF0
0660
0660
7FE0
0C00
3FE0
E860
1860
1FE0
0000
ENDCHAR
STARTCHAR 0x3730
ENCODING 14128
SWIDTH 886 0
DWIDTH 12 0
BBX 12 13 0 -2
BITMAP
1980
1980
FFF0
0600
7FE0
36C0
3FC0
36C0
FFF0
0000
6B60
CDB0
0000
ENDCHAR
STARTCHAR 0x3731
ENCODING 14129
SWIDTH 886 0
DWIDTH 12 0
BBX 12 13 0 -2
BITMAP
0000
FB30
0350
FB50
0350
FB50
0350
0350
FB50
DB50
DA30
FA30
0000
ENDCHAR
STARTCHAR 0x3732
ENCODING 14130
SWIDTH 886 0
DWIDTH 12 0
BBX 12 13 0 -2
BITMAP
0360
FD60
34C0
FFF0
34C0
34C0
FDF0
30C0
7CC0
EFF0
6CC0
7CC0
0000
ENDCHAR
STARTCHAR 0x3733
ENCODING 14131
SWIDTH 886 0
DWIDTH 12 0
BBX 12 13 0 -2
BITMAP
0000
FFF0
C630
FFF0
36C0
3FC0
36C0
36C0
3FC0
0600
FFF0
0600
0000
ENDCHAR
STARTCHAR 0x3734
ENCODING 14132
SWIDTH 886 0
DWIDTH 12 0
BBX 12 13 0 -2
BITMAP
0000
FEF0
36B0
FFA0
36C0
36A0
FEB0
31B0
7EB0
E6E0
6680
7E80
0000
ENDCHAR
STARTCHAR 0x3735
ENCODING 14133
SWIDTH 886 0
DWIDTH 12 0
BBX 12 13 0 -2
BITMAP
1800
18C0
FEC0
18C0
18C0
FF60
18D0
18D0
FEC0
18C0
18C0
FF40
0000
ENDCHAR
STARTCHAR 0x3736
ENCODING 14134
SWIDTH 886 0
DWIDTH 12 0
BBX 12 13 0 -2
BITMAP
3000
31F0
FEB0
36B0
66B0
DDF0
0600
FFF0
1A60
F360
31C0
7E70
0000
ENDCHAR
STARTCHAR 0x3737
ENCODING 14135
SWIDTH 886 0
DWIDTH 12 0
BBX 12 13 0 -2
BITMAP
3000
33F0
3330
FD30
0D60
1B40
3360
7B30
D530
3330
3360
3300
0000
ENDCHAR
STARTCHAR 0x3738
ENCODING 14136
SWIDTH 886 0
DWIDTH 12 0
BBX 12 13 0 -2
BITMAP
0000
37F0
3300
6660
6CC0
E680
6330
6FF0
6180
6DA0
69B0
6180
0000
ENDCHAR
STARTCHAR 0x3739
ENCODING 14137
SWIDTH 886 0
DWIDTH 12 0
BBX 12 13 0 -2
BITMAP
0000
37F0
30C0
6BF0
6B30
EBF0
6D30
6BF0
6B30
6DF0
6360
6E30
0000
ENDCHAR
STARTCHAR 0x373A
ENCODING 14138
SWIDTH 886 0
DWIDTH 12 0
BBX 12 13 0 -2
BITMAP
0000
FE30
6DB0
6DB0
6DB0
FEB0
6DB0
6DB0
6DB0
6C30
CC30
CC70
0000
ENDCHAR
STARTCHAR 0x373B
ENCODING 14139
SWIDTH 886 0
DWIDTH 12 0
BBX 12 13 0 -2
BITMAP
0000
3FC0
30C0
30C0
30C0
30C0
3FC0
1B00
1B00
1B30
3330
E3F0
0000
ENDCHAR
STARTCHAR 0x373C
ENCODING 14140
SWIDTH 886 0
DWIDTH 12 0
BBX 12 13 0 -2
BITMAP
0300
FD00
03F0
7F60
6D60
7DC0
C770
C000
3FC0
30C0
30C0
3FC0
0000
ENDCHAR
STARTCHAR 0x373D
ENCODING 14141
SWIDTH 886 0
DWIDTH 12 0
BBX 12 13 0 -2
BITMAP
0600
0600
7FE0
0600
0600
FFF0
0600
0600
7FE0
0600
0600
FFF0
0000
ENDCHAR
STARTCHAR 0x373E
ENCODING 14142
SWIDTH 886 0
DWIDTH 12 0
BBX 12 13 0 -2
BITMAP
0180
0180
FBF0
6180
6180
6FF0
F180
6180
67F0
6180
F980
0FF0
0000
ENDCHAR
STARTCHAR 0x373F
ENCODING 14143
SWIDTH 886 0
DWIDTH 12 0
BBX 12 13 0 -2
BITMAP
0000
FEB0
6DB0
6DB0
FEB0
6DB0
CC70
0600
3FC0
0600
0600
FFF0
0000
ENDCHAR
STARTCHAR 0x3740
ENCODING 14144
SWIDTH 886 0
DWIDTH 12 0
BBX 12 13 0 -2
BITMAP
3000
37F0
FDB0
31B0
7D30
3330
FCE0
0600
FFF0
0D00
39C0
E070
0000
ENDCHAR
STARTCHAR 0x3741
ENCODING 14145
SWIDTH 886 0
DWIDTH 12 0
BBX 12 13 0 -2
BITMAP
0000
FF30
6C60
6CC0
6C00
FF30
6C60
6CC0
6C00
6C30
CC60
CCC0
0000
ENDCHAR
STARTCHAR 0x3742
ENCODING 14146
SWIDTH 886 0
DWIDTH 12 0
BBX 12 13 0 -2
BITMAP
0000
37F0
6030
C360
01C0
3770
6180
E180
67F0
6180
6180
6FF0
0000
ENDCHAR
STARTCHAR 0x3743
ENCODING 14147
SWIDTH 886 0
DWIDTH 12 0
BBX 12 13 0 -2
BITMAP
0600
0600
FFF0
0600
7FE0
6660
7FE0
6660
7FE0
1B60
6830
CFC0
0000
ENDCHAR
STARTCHAR 0x3744
ENCODING 14148
SWIDTH 886 0
DWIDTH 12 0
BBX 12 13 0 -2
BITMAP
0300
0300
7FF0
6D80
7FF0
6DB0
7FF0
6CD0
77E0
DA60
C7C0
3C70
0000
ENDCHAR
STARTCHAR 0x3745
ENCODING 14149
SWIDTH 886 0
DWIDTH 12 0
BBX 12 13 0 -2
BITMAP
30C0
30C0
FDF0
30C0
FDF0
30C0
7FE0
0060
7FE0
1B00
6860
CFD0
0000
ENDCHAR
STARTCHAR 0x3746
ENCODING 14150
SWIDTH 886 0
DWIDTH 12 0
BBX 12 13 0 -2
BITMAP
00C0
FD80
33F0
FF30
33F0
FD30
CD30
FDF0
0600
1B60
6830
CFC0
0000
ENDCHAR
STARTCHAR 0x3747
ENCODING 14151
SWIDTH 886 0
DWIDTH 12 0
BBX 12 13 0 -2
BITMAP
0000
6FE0
6C60
F7E0
6C60
6FE0
6600
77F0
EC30
6DB0
6FB0
E0E0
0000
ENDCHAR
STARTCHAR 0x3748
ENCODING 14152
SWIDTH 886 0
DWIDTH 12 0
BBX 12 13 0 -2
BITMAP
06C0
66C0
6FF0
F580
6FF0
6D80
6FF0
7580
EFE0
6370
6630
ECE0
0000
ENDCHAR
STARTCHAR 0x3749
ENCODING 14153
SWIDTH 886 0
DWIDTH 12 0
BBX 12 13 0 -2
BITMAP
0300
6B00
FDF0
6B60
6360
7E60
C6A0
F6A0
D6C0
F6C0
0DA0
3B30
0000
ENDCHAR
STARTCHAR 0x374A
ENCODING 14154
SWIDTH 886 0
DWIDTH 12 0
BBX 12 13 0 -2
BITMAP
0000
3FC0
30C0
3FC0
30C0
3FC0
0600
FFF0
1980
1F80
6660
CE30
0000
ENDCHAR
STARTCHAR 0x374B
ENCODING 14155
SWIDTH 886 0
DWIDTH 12 0
BBX 12 13 0 -2
BITMAP
0180
3180
37F0
F980
3180
37F0
7180
7180
DBF0
D180
3180
37F0
0000
ENDCHAR
STARTCHAR 0x374C
ENCODING 14156
SWIDTH 886 0
DWIDTH 12 0
BBX 12 13 0 -2
BITMAP
0000
1FF0
C000
6B30
0DA0
C180
6FF0
0180
6FF0
6340
C660
DC30
0000
ENDCHAR
STARTCHAR 0x374D
ENCODING 14157
SWIDTH 886 0
DWIDTH 12 0
BBX 12 13 0 -2
BITMAP
00C0
00C0
FDF0
D4C0
D4C0
D7F0
FCC0
D4C0
D5F0
D4C0
FCC0
07F0
0000
ENDCHAR
STARTCHAR 0x374E
ENCODING 14158
SWIDTH 886 0
DWIDTH 12 0
BBX 12 13 0 -2
BITMAP
0180
1DA0
F7F0
3340
36F0
FBC0
3630
77F0
7800
D7F0
D630
37F0
0000
ENDCHAR
STARTCHAR 0x374F
ENCODING 14159
SWIDTH 886 0
DWIDTH 12 0
BBX 12 13 0 -2
BITMAP
0000
7FE0
0C00
1980
3300
1AC0
0C60
FFF0
0600
36C0
6660
C630
0000
ENDCHAR
STARTCHAR 0x3750
ENCODING 14160
SWIDTH 886 0
DWIDTH 12 0
BBX 12 13 0 -2
BITMAP
0000
37F0
6030
DB60
F9C0
3770
6180
F980
37F0
D980
D180
37F0
0000
ENDCHAR
ENDFONT
